LibreCaslonText2048-Regular_.ufo
<glyph name="exclam" format="2">
  <advance width="528.0"/>
  <unicode hex="0021"/>
  <outline>
    <contour>
      <point x="275.0" y="374.0" type="line"/>
      <point x="286.0" y="616.0"/>
      <point x="297.0" y="838.0"/>
      <point x="312.0" y="1023.0" type="curve" smooth="yes"/>
      <point x="330.0" y="1241.0"/>
      <point x="350.0" y="1406.0"/>
      <point x="350.0" y="1465.0" type="curve" smooth="yes"/>
      <point x="350.0" y="1529.0"/>
      <point x="321.0" y="1566.0"/>
      <point x="264.0" y="1566.0" type="curve" smooth="yes"/>
      <point x="211.0" y="1566.0"/>
      <point x="178.0" y="1527.0"/>
      <point x="178.0" y="1459.0" type="curve" smooth="yes"/>
      <point x="178.0" y="1401.0"/>
      <point x="194.0" y="1234.0"/>
      <point x="216.0" y="1014.0" type="curve" smooth="yes"/>
      <point x="235.0" y="832.0"/>
      <point x="240.0" y="614.0"/>
      <point x="253.0" y="374.0" type="curve"/>
    </contour>
    <contour>
      <point x="158.0" y="84.0" type="curve" smooth="yes"/>
      <point x="158.0" y="24.0"/>
      <point x="200.0" y="-22.0"/>
      <point x="264.0" y="-22.0" type="curve" smooth="yes"/>
      <point x="328.0" y="-22.0"/>
      <point x="370.0" y="24.0"/>
      <point x="370.0" y="84.0" type="curve" smooth="yes"/>
      <point x="370.0" y="143.0"/>
      <point x="328.0" y="189.0"/>
      <point x="264.0" y="189.0" type="curve" smooth="yes"/>
      <point x="200.0" y="189.0"/>
      <point x="158.0" y="143.0"/>
    </contour>
  </outline>
</glyph>
<glyph name="numbersign" format="2">
  <advance width="1322.0"/>
  <unicode hex="0023"/>
  <outline>
    <contour>
      <point x="198.0" y="977.0" type="line"/>
      <point x="1214.0" y="977.0" type="line"/>
      <point x="1203.0" y="928.0" type="line"/>
      <point x="187.0" y="928.0" type="line"/>
    </contour>
    <contour>
      <point x="119.0" y="554.0" type="line"/>
      <point x="1137.0" y="554.0" type="line"/>
      <point x="1124.0" y="506.0" type="line"/>
      <point x="108.0" y="506.0" type="line"/>
    </contour>
    <contour>
      <point x="563.0" y="1283.0" type="line"/>
      <point x="394.0" y="202.0" type="line"/>
      <point x="343.0" y="202.0" type="line"/>
      <point x="513.0" y="1283.0" type="line"/>
    </contour>
    <contour>
      <point x="986.0" y="1283.0" type="line"/>
      <point x="816.0" y="202.0" type="line"/>
      <point x="766.0" y="202.0" type="line"/>
      <point x="935.0" y="1283.0" type="line"/>
    </contour>
  </outline>
</glyph>
<glyph name="dollar" format="2">
  <advance width="1135.0"/>
  <unicode hex="0024"/>
  <outline>
    <contour>
      <point x="592.0" y="1760.0" type="line"/>
      <point x="592.0" y="-222.0" type="line"/>
      <point x="543.0" y="-222.0" type="line"/>
      <point x="543.0" y="1760.0" type="line"/>
    </contour>
    <contour>
      <point x="546.0" y="-9.0" type="curve" smooth="yes"/>
      <point x="752.0" y="-9.0"/>
      <point x="904.0" y="110.0"/>
      <point x="904.0" y="306.0" type="curve" smooth="yes"/>
      <point x="904.0" y="510.0"/>
      <point x="737.0" y="585.0"/>
      <point x="499.0" y="693.0" type="curve" smooth="yes"/>
      <point x="312.0" y="779.0"/>
      <point x="108.0" y="873.0"/>
      <point x="108.0" y="1129.0" type="curve" smooth="yes"/>
      <point x="108.0" y="1379.0"/>
      <point x="306.0" y="1553.0"/>
      <point x="581.0" y="1553.0" type="curve" smooth="yes"/>
      <point x="799.0" y="1553.0"/>
      <point x="999.0" y="1445.0"/>
      <point x="999.0" y="1331.0" type="curve" smooth="yes"/>
      <point x="999.0" y="1285.0"/>
      <point x="966.0" y="1250.0"/>
      <point x="920.0" y="1250.0" type="curve" smooth="yes"/>
      <point x="860.0" y="1250.0"/>
      <point x="840.0" y="1302.0"/>
      <point x="829.0" y="1335.0" type="curve" smooth="yes"/>
      <point x="792.0" y="1439.0"/>
      <point x="746.0" y="1527.0"/>
      <point x="572.0" y="1527.0" type="curve" smooth="yes"/>
      <point x="376.0" y="1527.0"/>
      <point x="251.0" y="1417.0"/>
      <point x="251.0" y="1232.0" type="curve" smooth="yes"/>
      <point x="251.0" y="1032.0"/>
      <point x="398.0" y="961.0"/>
      <point x="649.0" y="843.0" type="curve" smooth="yes"/>
      <point x="858.0" y="744.0"/>
      <point x="1041.0" y="653.0"/>
      <point x="1041.0" y="416.0" type="curve" smooth="yes"/>
      <point x="1041.0" y="147.0"/>
      <point x="805.0" y="-35.0"/>
      <point x="537.0" y="-35.0" type="curve" smooth="yes"/>
      <point x="312.0" y="-35.0"/>
      <point x="117.0" y="92.0"/>
      <point x="117.0" y="224.0" type="curve" smooth="yes"/>
      <point x="117.0" y="277.0"/>
      <point x="147.0" y="312.0"/>
      <point x="196.0" y="312.0" type="curve" smooth="yes"/>
      <point x="251.0" y="312.0"/>
      <point x="271.0" y="266.0"/>
      <point x="286.0" y="227.0" type="curve" smooth="yes"/>
      <point x="339.0" y="92.0"/>
      <point x="354.0" y="-9.0"/>
    </contour>
  </outline>
</glyph>
<glyph name="ampersand" format="2">
  <advance width="1822.0"/>
  <unicode hex="0026"/>
  <outline>
    <contour>
      <point x="1723.0" y="229.0" type="line"/>
      <point x="1731.0" y="224.0" type="line"/>
      <point x="1723.0" y="200.0" type="line" smooth="yes"/>
      <point x="1668.0" y="48.0"/>
      <point x="1540.0" y="-44.0"/>
      <point x="1388.0" y="-44.0" type="curve" smooth="yes"/>
      <point x="1274.0" y="-44.0"/>
      <point x="1188.0" y="7.0"/>
      <point x="1074.0" y="139.0" type="curve" smooth="yes"/>
      <point x="484.0" y="823.0" type="line" smooth="yes"/>
      <point x="348.0" y="979.0"/>
      <point x="301.0" y="1071.0"/>
      <point x="301.0" y="1184.0" type="curve" smooth="yes"/>
      <point x="301.0" y="1399.0"/>
      <point x="471.0" y="1553.0"/>
      <point x="706.0" y="1553.0" type="curve" smooth="yes"/>
      <point x="909.0" y="1553.0"/>
      <point x="1047.0" y="1439.0"/>
      <point x="1047.0" y="1272.0" type="curve" smooth="yes"/>
      <point x="1047.0" y="1098.0"/>
      <point x="898.0" y="928.0"/>
      <point x="675.0" y="847.0" type="curve"/>
      <point x="667.0" y="862.0" type="line"/>
      <point x="821.0" y="946.0"/>
      <point x="900.0" y="1074.0"/>
      <point x="900.0" y="1243.0" type="curve" smooth="yes"/>
      <point x="900.0" y="1417.0"/>
      <point x="814.0" y="1527.0"/>
      <point x="678.0" y="1527.0" type="curve" smooth="yes"/>
      <point x="548.0" y="1527.0"/>
      <point x="455.0" y="1426.0"/>
      <point x="455.0" y="1278.0" type="curve" smooth="yes"/>
      <point x="455.0" y="1157.0"/>
      <point x="519.0" y="1032.0"/>
      <point x="667.0" y="867.0" type="curve" smooth="yes"/>
      <point x="1197.0" y="264.0" type="line" smooth="yes"/>
      <point x="1316.0" y="130.0"/>
      <point x="1377.0" y="88.0"/>
      <point x="1474.0" y="88.0" type="curve" smooth="yes"/>
      <point x="1560.0" y="88.0"/>
      <point x="1621.0" y="119.0"/>
      <point x="1701.0" y="205.0" type="curve" smooth="yes"/>
    </contour>
    <contour>
      <point x="1379.0" y="728.0" type="curve" smooth="yes"/>
      <point x="1164.0" y="224.0"/>
      <point x="869.0" y="-44.0"/>
      <point x="530.0" y="-44.0" type="curve" smooth="yes"/>
      <point x="257.0" y="-44.0"/>
      <point x="101.0" y="90.0"/>
      <point x="101.0" y="323.0" type="curve" smooth="yes"/>
      <point x="101.0" y="548.0"/>
      <point x="251.0" y="722.0"/>
      <point x="537.0" y="812.0" type="curve"/>
      <point x="550.0" y="803.0" type="line"/>
      <point x="394.0" y="722.0"/>
      <point x="299.0" y="563.0"/>
      <point x="299.0" y="378.0" type="curve" smooth="yes"/>
      <point x="299.0" y="172.0"/>
      <point x="422.0" y="35.0"/>
      <point x="609.0" y="35.0" type="curve" smooth="yes"/>
      <point x="889.0" y="35.0"/>
      <point x="1190.0" y="319.0"/>
      <point x="1344.0" y="728.0" type="curve" smooth="yes"/>
      <point x="1351.0" y="746.0"/>
      <point x="1353.0" y="752.0"/>
      <point x="1353.0" y="766.0" type="curve" smooth="yes"/>
      <point x="1353.0" y="799.0"/>
      <point x="1338.0" y="812.0"/>
      <point x="1287.0" y="816.0" type="curve" smooth="yes"/>
      <point x="1109.0" y="827.0" type="line"/>
      <point x="1109.0" y="845.0" type="line"/>
      <point x="1665.0" y="845.0" type="line"/>
      <point x="1665.0" y="827.0" type="line"/>
      <point x="1498.0" y="816.0" type="line" smooth="yes"/>
      <point x="1423.0" y="812.0"/>
      <point x="1408.0" y="799.0"/>
    </contour>
  </outline>
</glyph>
<glyph name="quotesingle" format="2">
  <advance width="370.0"/>
  <unicode hex="0027"/>
  <outline>
    <contour>
      <point x="174.0" y="1122.0" type="curve"/>
      <point x="196.0" y="1122.0" type="line"/>
      <point x="196.0" y="1355.0"/>
      <point x="244.0" y="1430.0"/>
      <point x="244.0" y="1505.0" type="curve" smooth="yes"/>
      <point x="244.0" y="1551.0"/>
      <point x="220.0" y="1571.0"/>
      <point x="185.0" y="1571.0" type="curve" smooth="yes"/>
      <point x="150.0" y="1571.0"/>
      <point x="125.0" y="1551.0"/>
      <point x="125.0" y="1505.0" type="curve" smooth="yes"/>
      <point x="125.0" y="1432.0"/>
      <point x="174.0" y="1355.0"/>
    </contour>
  </outline>
</glyph>
<glyph name="parenleft" format="2">
  <advance width="587.0"/>
  <unicode hex="0028"/>
  <outline>
    <contour>
      <point x="262.0" y="618.0" type="curve" smooth="yes"/>
      <point x="262.0" y="180.0"/>
      <point x="372.0" y="-216.0"/>
      <point x="530.0" y="-385.0" type="curve"/>
      <point x="521.0" y="-392.0" type="line"/>
      <point x="332.0" y="-235.0"/>
      <point x="95.0" y="178.0"/>
      <point x="95.0" y="620.0" type="curve" smooth="yes"/>
      <point x="95.0" y="1063.0"/>
      <point x="332.0" y="1476.0"/>
      <point x="521.0" y="1632.0" type="curve"/>
      <point x="530.0" y="1626.0" type="line"/>
      <point x="372.0" y="1456.0"/>
      <point x="262.0" y="1056.0"/>
    </contour>
  </outline>
</glyph>
<glyph name="parenright" format="2">
  <advance width="587.0"/>
  <unicode hex="0029"/>
  <outline>
    <contour>
      <point x="326.0" y="618.0" type="curve" smooth="yes"/>
      <point x="326.0" y="1056.0"/>
      <point x="216.0" y="1456.0"/>
      <point x="57.0" y="1626.0" type="curve"/>
      <point x="66.0" y="1632.0" type="line"/>
      <point x="255.0" y="1476.0"/>
      <point x="493.0" y="1063.0"/>
      <point x="493.0" y="620.0" type="curve" smooth="yes"/>
      <point x="493.0" y="178.0"/>
      <point x="255.0" y="-235.0"/>
      <point x="66.0" y="-392.0" type="curve"/>
      <point x="57.0" y="-385.0" type="line"/>
      <point x="216.0" y="-216.0"/>
      <point x="326.0" y="180.0"/>
    </contour>
  </outline>
</glyph>
<glyph name="asterisk" format="2">
  <advance width="898.0"/>
  <unicode hex="002A"/>
  <outline>
    <contour>
      <point x="508.0" y="1507.0" type="curve" smooth="yes"/>
      <point x="508.0" y="1551.0"/>
      <point x="484.0" y="1571.0"/>
      <point x="449.0" y="1571.0" type="curve" smooth="yes"/>
      <point x="414.0" y="1571.0"/>
      <point x="389.0" y="1551.0"/>
      <point x="389.0" y="1507.0" type="curve" smooth="yes"/>
      <point x="389.0" y="1452.0"/>
      <point x="436.0" y="1404.0"/>
      <point x="438.0" y="1243.0" type="curve"/>
      <point x="279.0" y="1351.0"/>
      <point x="260.0" y="1434.0"/>
      <point x="200.0" y="1434.0" type="curve" smooth="yes"/>
      <point x="172.0" y="1434.0"/>
      <point x="143.0" y="1417.0"/>
      <point x="143.0" y="1379.0" type="curve" smooth="yes"/>
      <point x="143.0" y="1313.0"/>
      <point x="238.0" y="1335.0"/>
      <point x="427.0" y="1225.0" type="curve"/>
      <point x="235.0" y="1118.0"/>
      <point x="143.0" y="1140.0"/>
      <point x="143.0" y="1071.0" type="curve" smooth="yes"/>
      <point x="143.0" y="1034.0"/>
      <point x="172.0" y="1019.0"/>
      <point x="198.0" y="1019.0" type="curve" smooth="yes"/>
      <point x="260.0" y="1019.0"/>
      <point x="279.0" y="1102.0"/>
      <point x="438.0" y="1208.0" type="curve"/>
      <point x="436.0" y="1049.0"/>
      <point x="389.0" y="999.0"/>
      <point x="389.0" y="946.0" type="curve" smooth="yes"/>
      <point x="389.0" y="904.0"/>
      <point x="414.0" y="882.0"/>
      <point x="449.0" y="882.0" type="curve" smooth="yes"/>
      <point x="484.0" y="882.0"/>
      <point x="508.0" y="906.0"/>
      <point x="508.0" y="946.0" type="curve" smooth="yes"/>
      <point x="508.0" y="1001.0"/>
      <point x="462.0" y="1052.0"/>
      <point x="460.0" y="1208.0" type="curve"/>
      <point x="618.0" y="1102.0"/>
      <point x="638.0" y="1019.0"/>
      <point x="697.0" y="1019.0" type="curve" smooth="yes"/>
      <point x="726.0" y="1019.0"/>
      <point x="755.0" y="1036.0"/>
      <point x="755.0" y="1074.0" type="curve" smooth="yes"/>
      <point x="755.0" y="1140.0"/>
      <point x="660.0" y="1118.0"/>
      <point x="471.0" y="1225.0" type="curve"/>
      <point x="662.0" y="1335.0"/>
      <point x="755.0" y="1313.0"/>
      <point x="755.0" y="1379.0" type="curve" smooth="yes"/>
      <point x="755.0" y="1419.0"/>
      <point x="724.0" y="1434.0"/>
      <point x="697.0" y="1434.0" type="curve" smooth="yes"/>
      <point x="638.0" y="1434.0"/>
      <point x="618.0" y="1351.0"/>
      <point x="460.0" y="1243.0" type="curve"/>
      <point x="462.0" y="1401.0"/>
      <point x="508.0" y="1450.0"/>
    </contour>
  </outline>
</glyph>
<glyph name="plus" format="2">
  <advance width="999.0"/>
  <unicode hex="002B"/>
  <outline>
    <contour>
      <point x="125.0" y="781.0" type="line"/>
      <point x="873.0" y="781.0" type="line"/>
      <point x="873.0" y="733.0" type="line"/>
      <point x="125.0" y="733.0" type="line"/>
    </contour>
    <contour>
      <point x="524.0" y="1131.0" type="line"/>
      <point x="524.0" y="383.0" type="line"/>
      <point x="475.0" y="383.0" type="line"/>
      <point x="475.0" y="1131.0" type="line"/>
    </contour>
  </outline>
</glyph>
<glyph name="comma" format="2">
  <advance width="515.0"/>
  <unicode hex="002C"/>
  <outline>
    <contour>
      <point x="169.0" y="-354.0" type="line"/>
      <point x="304.0" y="-249.0"/>
      <point x="376.0" y="-112.0"/>
      <point x="376.0" y="44.0" type="curve" smooth="yes"/>
      <point x="376.0" y="158.0"/>
      <point x="321.0" y="218.0"/>
      <point x="244.0" y="218.0" type="curve" smooth="yes"/>
      <point x="185.0" y="218.0"/>
      <point x="141.0" y="172.0"/>
      <point x="141.0" y="106.0" type="curve" smooth="yes"/>
      <point x="141.0" y="-2.0"/>
      <point x="271.0" y="11.0"/>
      <point x="271.0" y="-114.0" type="curve" smooth="yes"/>
      <point x="271.0" y="-187.0"/>
      <point x="224.0" y="-282.0"/>
      <point x="161.0" y="-343.0" type="curve"/>
    </contour>
  </outline>
</glyph>
<glyph name="period" format="2">
  <advance width="508.0"/>
  <unicode hex="002E"/>
  <outline>
    <contour>
      <point x="141.0" y="106.0" type="curve" smooth="yes"/>
      <point x="141.0" y="42.0"/>
      <point x="187.0" y="-9.0"/>
      <point x="255.0" y="-9.0" type="curve" smooth="yes"/>
      <point x="323.0" y="-9.0"/>
      <point x="367.0" y="42.0"/>
      <point x="367.0" y="106.0" type="curve" smooth="yes"/>
      <point x="367.0" y="169.0"/>
      <point x="323.0" y="218.0"/>
      <point x="255.0" y="218.0" type="curve" smooth="yes"/>
      <point x="187.0" y="218.0"/>
      <point x="141.0" y="169.0"/>
    </contour>
  </outline>
</glyph>
<glyph name="zero" format="2">
  <advance width="1368.0"/>
  <unicode hex="0030"/>
  <outline>
    <contour>
      <point x="684.0" y="1553.0" type="curve" smooth="yes"/>
      <point x="997.0" y="1553.0"/>
      <point x="1245.0" y="1201.0"/>
      <point x="1245.0" y="759.0" type="curve" smooth="yes"/>
      <point x="1245.0" y="317.0"/>
      <point x="997.0" y="-35.0"/>
      <point x="684.0" y="-35.0" type="curve" smooth="yes"/>
      <point x="372.0" y="-35.0"/>
      <point x="123.0" y="317.0"/>
      <point x="123.0" y="759.0" type="curve" smooth="yes"/>
      <point x="123.0" y="1201.0"/>
      <point x="372.0" y="1553.0"/>
    </contour>
    <contour>
      <point x="334.0" y="759.0" type="curve" smooth="yes"/>
      <point x="334.0" y="240.0"/>
      <point x="449.0" y="-9.0"/>
      <point x="684.0" y="-9.0" type="curve" smooth="yes"/>
      <point x="920.0" y="-9.0"/>
      <point x="1034.0" y="240.0"/>
      <point x="1034.0" y="759.0" type="curve" smooth="yes"/>
      <point x="1034.0" y="1278.0"/>
      <point x="920.0" y="1527.0"/>
      <point x="684.0" y="1527.0" type="curve" smooth="yes"/>
      <point x="449.0" y="1527.0"/>
      <point x="334.0" y="1278.0"/>
    </contour>
  </outline>
</glyph>
<glyph name="one" format="2">
  <advance width="757.0"/>
  <unicode hex="0031"/>
  <outline>
    <contour>
      <point x="315.0" y="1320.0" type="line"/>
      <point x="88.0" y="1320.0" type="line"/>
      <point x="88.0" y="1335.0" type="line"/>
      <point x="275.0" y="1360.0"/>
      <point x="389.0" y="1430.0"/>
      <point x="473.0" y="1571.0" type="curve"/>
      <point x="484.0" y="1566.0" type="line"/>
      <point x="484.0" y="37.0" type="line"/>
      <point x="686.0" y="20.0" type="line"/>
      <point x="686.0" y="0.0" type="line"/>
      <point x="90.0" y="0.0" type="line"/>
      <point x="90.0" y="20.0" type="line"/>
      <point x="315.0" y="37.0" type="line"/>
    </contour>
  </outline>
</glyph>
<glyph name="two" format="2">
  <advance width="1122.0"/>
  <unicode hex="0032"/>
  <outline>
    <contour>
      <point x="944.0" y="0.0" type="line"/>
      <point x="994.0" y="427.0" type="line"/>
      <point x="977.0" y="431.0" type="line"/>
      <point x="935.0" y="271.0" type="line" smooth="yes"/>
      <point x="913.0" y="185.0"/>
      <point x="876.0" y="169.0"/>
      <point x="794.0" y="169.0" type="curve" smooth="yes"/>
      <point x="286.0" y="169.0" type="line"/>
      <point x="550.0" y="436.0" type="line" smooth="yes"/>
      <point x="849.0" y="739.0"/>
      <point x="966.0" y="924.0"/>
      <point x="966.0" y="1126.0" type="curve" smooth="yes"/>
      <point x="966.0" y="1375.0"/>
      <point x="801.0" y="1553.0"/>
      <point x="570.0" y="1553.0" type="curve" smooth="yes"/>
      <point x="376.0" y="1553.0"/>
      <point x="200.0" y="1428.0"/>
      <point x="123.0" y="1236.0" type="curve"/>
      <point x="143.0" y="1225.0" type="line"/>
      <point x="213.0" y="1357.0"/>
      <point x="332.0" y="1432.0"/>
      <point x="475.0" y="1432.0" type="curve" smooth="yes"/>
      <point x="658.0" y="1432.0"/>
      <point x="759.0" y="1307.0"/>
      <point x="759.0" y="1078.0" type="curve" smooth="yes"/>
      <point x="759.0" y="803.0"/>
      <point x="612.0" y="528.0"/>
      <point x="312.0" y="244.0" type="curve" smooth="yes"/>
      <point x="77.0" y="20.0" type="line"/>
      <point x="84.0" y="0.0" type="line"/>
    </contour>
  </outline>
</glyph>
<glyph name="three" format="2">
  <advance width="1135.0"/>
  <unicode hex="0033"/>
  <outline>
    <contour>
      <point x="363.0" y="752.0" type="line"/>
      <point x="403.0" y="766.0"/>
      <point x="455.0" y="772.0"/>
      <point x="495.0" y="772.0" type="curve" smooth="yes"/>
      <point x="689.0" y="772.0"/>
      <point x="825.0" y="605.0"/>
      <point x="825.0" y="365.0" type="curve" smooth="yes"/>
      <point x="825.0" y="136.0"/>
      <point x="702.0" y="-4.0"/>
      <point x="502.0" y="-4.0" type="curve" smooth="yes"/>
      <point x="411.0" y="-4.0"/>
      <point x="392.0" y="15.0"/>
      <point x="341.0" y="152.0" type="curve" smooth="yes"/>
      <point x="290.0" y="288.0"/>
      <point x="257.0" y="328.0"/>
      <point x="196.0" y="328.0" type="curve" smooth="yes"/>
      <point x="139.0" y="328.0"/>
      <point x="101.0" y="286.0"/>
      <point x="101.0" y="222.0" type="curve" smooth="yes"/>
      <point x="101.0" y="84.0"/>
      <point x="284.0" y="-35.0"/>
      <point x="495.0" y="-35.0" type="curve" smooth="yes"/>
      <point x="788.0" y="-35.0"/>
      <point x="1023.0" y="185.0"/>
      <point x="1023.0" y="460.0" type="curve" smooth="yes"/>
      <point x="1023.0" y="693.0"/>
      <point x="849.0" y="876.0"/>
      <point x="614.0" y="882.0" type="curve"/>
      <point x="614.0" y="891.0" type="line"/>
      <point x="792.0" y="990.0"/>
      <point x="895.0" y="1133.0"/>
      <point x="895.0" y="1278.0" type="curve" smooth="yes"/>
      <point x="895.0" y="1441.0"/>
      <point x="766.0" y="1555.0"/>
      <point x="583.0" y="1555.0" type="curve" smooth="yes"/>
      <point x="387.0" y="1555.0"/>
      <point x="222.0" y="1423.0"/>
      <point x="150.0" y="1210.0" type="curve"/>
      <point x="169.0" y="1201.0" type="line"/>
      <point x="235.0" y="1349.0"/>
      <point x="348.0" y="1432.0"/>
      <point x="482.0" y="1432.0" type="curve" smooth="yes"/>
      <point x="618.0" y="1432.0"/>
      <point x="702.0" y="1342.0"/>
      <point x="702.0" y="1197.0" type="curve" smooth="yes"/>
      <point x="702.0" y="1021.0"/>
      <point x="574.0" y="862.0"/>
      <point x="356.0" y="774.0" type="curve"/>
    </contour>
  </outline>
</glyph>
<glyph name="four" format="2">
  <advance width="1120.0"/>
  <unicode hex="0034"/>
  <outline>
    <contour>
      <point x="660.0" y="37.0" type="line"/>
      <point x="436.0" y="20.0" type="line"/>
      <point x="436.0" y="0.0" type="line"/>
      <point x="1019.0" y="0.0" type="line"/>
      <point x="1019.0" y="20.0" type="line"/>
      <point x="829.0" y="37.0" type="line"/>
      <point x="829.0" y="429.0" type="line"/>
      <point x="1016.0" y="429.0" type="line"/>
      <point x="1016.0" y="543.0" type="line"/>
      <point x="829.0" y="543.0" type="line"/>
      <point x="829.0" y="1566.0" type="line"/>
      <point x="818.0" y="1571.0" type="line"/>
      <point x="44.0" y="442.0" type="line"/>
      <point x="51.0" y="429.0" type="line"/>
      <point x="660.0" y="429.0" type="line"/>
    </contour>
    <contour>
      <point x="660.0" y="543.0" type="line"/>
      <point x="152.0" y="543.0" type="line"/>
      <point x="150.0" y="550.0" type="line"/>
      <point x="651.0" y="1272.0" type="line"/>
      <point x="660.0" y="1272.0" type="line"/>
    </contour>
  </outline>
</glyph>
<glyph name="five" format="2">
  <advance width="1098.0"/>
  <unicode hex="0035"/>
  <outline>
    <contour>
      <point x="337.0" y="1353.0" type="line"/>
      <point x="889.0" y="1353.0" type="line"/>
      <point x="959.0" y="1586.0" type="line"/>
      <point x="944.0" y="1591.0" type="line"/>
      <point x="931.0" y="1564.0"/>
      <point x="917.0" y="1540.0"/>
      <point x="902.0" y="1518.0" type="curve"/>
      <point x="328.0" y="1518.0" type="line"/>
      <point x="222.0" y="770.0" type="line"/>
      <point x="231.0" y="768.0" type="line"/>
      <point x="299.0" y="821.0"/>
      <point x="367.0" y="845.0"/>
      <point x="449.0" y="845.0" type="curve" smooth="yes"/>
      <point x="662.0" y="845.0"/>
      <point x="794.0" y="682.0"/>
      <point x="794.0" y="418.0" type="curve" smooth="yes"/>
      <point x="794.0" y="165.0"/>
      <point x="675.0" y="-4.0"/>
      <point x="499.0" y="-4.0" type="curve" smooth="yes"/>
      <point x="251.0" y="-4.0"/>
      <point x="354.0" y="328.0"/>
      <point x="178.0" y="328.0" type="curve" smooth="yes"/>
      <point x="117.0" y="328.0"/>
      <point x="77.0" y="286.0"/>
      <point x="77.0" y="222.0" type="curve" smooth="yes"/>
      <point x="77.0" y="86.0"/>
      <point x="262.0" y="-35.0"/>
      <point x="466.0" y="-35.0" type="curve" smooth="yes"/>
      <point x="759.0" y="-35.0"/>
      <point x="986.0" y="207.0"/>
      <point x="986.0" y="517.0" type="curve" smooth="yes"/>
      <point x="986.0" y="805.0"/>
      <point x="790.0" y="997.0"/>
      <point x="493.0" y="997.0" type="curve" smooth="yes"/>
      <point x="429.0" y="997.0"/>
      <point x="376.0" y="988.0"/>
      <point x="284.0" y="964.0" type="curve"/>
    </contour>
  </outline>
</glyph>
<glyph name="six" format="2">
  <advance width="1126.0"/>
  <unicode hex="0036"/>
  <outline>
    <contour>
      <point x="574.0" y="-35.0" type="curve" smooth="yes"/>
      <point x="847.0" y="-35.0"/>
      <point x="1038.0" y="176.0"/>
      <point x="1038.0" y="477.0" type="curve" smooth="yes"/>
      <point x="1038.0" y="750.0"/>
      <point x="880.0" y="931.0"/>
      <point x="638.0" y="931.0" type="curve" smooth="yes"/>
      <point x="521.0" y="931.0"/>
      <point x="418.0" y="889.0"/>
      <point x="350.0" y="814.0" type="curve"/>
      <point x="381.0" y="1129.0"/>
      <point x="541.0" y="1360.0"/>
      <point x="860.0" y="1553.0" type="curve"/>
      <point x="851.0" y="1571.0" type="line"/>
      <point x="407.0" y="1393.0"/>
      <point x="119.0" y="1001.0"/>
      <point x="119.0" y="535.0" type="curve" smooth="yes"/>
      <point x="119.0" y="187.0"/>
      <point x="295.0" y="-35.0"/>
    </contour>
    <contour>
      <point x="587.0" y="-9.0" type="curve" smooth="yes"/>
      <point x="427.0" y="-9.0"/>
      <point x="321.0" y="185.0"/>
      <point x="321.0" y="482.0" type="curve" smooth="yes"/>
      <point x="321.0" y="574.0"/>
      <point x="332.0" y="693.0"/>
      <point x="345.0" y="774.0" type="curve"/>
      <point x="396.0" y="840.0"/>
      <point x="475.0" y="878.0"/>
      <point x="561.0" y="878.0" type="curve" smooth="yes"/>
      <point x="735.0" y="878.0"/>
      <point x="834.0" y="719.0"/>
      <point x="834.0" y="438.0" type="curve" smooth="yes"/>
      <point x="834.0" y="163.0"/>
      <point x="739.0" y="-9.0"/>
    </contour>
  </outline>
</glyph>
<glyph name="seven" format="2">
  <advance width="950.0"/>
  <unicode hex="0037"/>
  <outline>
    <contour>
      <point x="202.0" y="1518.0" type="line"/>
      <point x="200.0" y="1540.0"/>
      <point x="198.0" y="1562.0"/>
      <point x="198.0" y="1584.0" type="curve"/>
      <point x="187.0" y="1588.0" type="line"/>
      <point x="68.0" y="1210.0" type="line"/>
      <point x="84.0" y="1203.0" type="line"/>
      <point x="108.0" y="1263.0"/>
      <point x="125.0" y="1298.0"/>
      <point x="163.0" y="1353.0" type="curve"/>
      <point x="832.0" y="1353.0" type="line"/>
      <point x="227.0" y="112.0" type="line" smooth="yes"/>
      <point x="216.0" y="92.0"/>
      <point x="211.0" y="68.0"/>
      <point x="211.0" y="48.0" type="curve" smooth="yes"/>
      <point x="211.0" y="2.0"/>
      <point x="235.0" y="-35.0"/>
      <point x="290.0" y="-35.0" type="curve" smooth="yes"/>
      <point x="332.0" y="-35.0"/>
      <point x="378.0" y="-7.0"/>
      <point x="396.0" y="51.0" type="curve" smooth="yes"/>
      <point x="625.0" y="785.0"/>
      <point x="682.0" y="928.0"/>
      <point x="931.0" y="1507.0" type="curve"/>
      <point x="917.0" y="1518.0" type="line"/>
    </contour>
  </outline>
</glyph>
<glyph name="eight" format="2">
  <advance width="1155.0"/>
  <unicode hex="0038"/>
  <outline>
    <contour>
      <point x="682.0" y="880.0" type="curve"/>
      <point x="854.0" y="955.0"/>
      <point x="959.0" y="1089.0"/>
      <point x="959.0" y="1239.0" type="curve" smooth="yes"/>
      <point x="959.0" y="1421.0"/>
      <point x="803.0" y="1553.0"/>
      <point x="587.0" y="1553.0" type="curve" smooth="yes"/>
      <point x="350.0" y="1553.0"/>
      <point x="174.0" y="1390.0"/>
      <point x="174.0" y="1173.0" type="curve" smooth="yes"/>
      <point x="174.0" y="1012.0"/>
      <point x="266.0" y="887.0"/>
      <point x="464.0" y="781.0" type="curve"/>
      <point x="244.0" y="686.0"/>
      <point x="123.0" y="539.0"/>
      <point x="123.0" y="365.0" type="curve" smooth="yes"/>
      <point x="123.0" y="143.0"/>
      <point x="319.0" y="-35.0"/>
      <point x="565.0" y="-35.0" type="curve" smooth="yes"/>
      <point x="829.0" y="-35.0"/>
      <point x="1038.0" y="165.0"/>
      <point x="1038.0" y="418.0" type="curve" smooth="yes"/>
      <point x="1038.0" y="598.0"/>
      <point x="928.0" y="741.0"/>
    </contour>
    <contour>
      <point x="662.0" y="891.0" type="curve"/>
      <point x="440.0" y="990.0"/>
      <point x="341.0" y="1104.0"/>
      <point x="341.0" y="1267.0" type="curve" smooth="yes"/>
      <point x="341.0" y="1423.0"/>
      <point x="433.0" y="1527.0"/>
      <point x="574.0" y="1527.0" type="curve" smooth="yes"/>
      <point x="722.0" y="1527.0"/>
      <point x="814.0" y="1415.0"/>
      <point x="814.0" y="1232.0" type="curve" smooth="yes"/>
      <point x="814.0" y="1089.0"/>
      <point x="759.0" y="966.0"/>
    </contour>
    <contour>
      <point x="488.0" y="766.0" type="curve"/>
      <point x="759.0" y="631.0"/>
      <point x="876.0" y="495.0"/>
      <point x="876.0" y="308.0" type="curve" smooth="yes"/>
      <point x="876.0" y="121.0"/>
      <point x="757.0" y="-9.0"/>
      <point x="581.0" y="-9.0" type="curve" smooth="yes"/>
      <point x="398.0" y="-9.0"/>
      <point x="290.0" y="134.0"/>
      <point x="290.0" y="374.0" type="curve" smooth="yes"/>
      <point x="290.0" y="563.0"/>
      <point x="359.0" y="697.0"/>
    </contour>
  </outline>
</glyph>
<glyph name="nine" format="2">
  <advance width="1124.0"/>
  <unicode hex="0039"/>
  <outline>
    <contour>
      <point x="554.0" y="1571.0" type="curve" smooth="yes"/>
      <point x="279.0" y="1571.0"/>
      <point x="86.0" y="1364.0"/>
      <point x="86.0" y="1074.0" type="curve" smooth="yes"/>
      <point x="86.0" y="805.0"/>
      <point x="246.0" y="627.0"/>
      <point x="488.0" y="627.0" type="curve" smooth="yes"/>
      <point x="605.0" y="627.0"/>
      <point x="708.0" y="669.0"/>
      <point x="774.0" y="744.0" type="curve"/>
      <point x="735.0" y="420.0"/>
      <point x="570.0" y="174.0"/>
      <point x="264.0" y="-18.0" type="curve"/>
      <point x="273.0" y="-35.0" type="line"/>
      <point x="724.0" y="145.0"/>
      <point x="1005.0" y="543.0"/>
      <point x="1005.0" y="997.0" type="curve" smooth="yes"/>
      <point x="1005.0" y="1353.0"/>
      <point x="834.0" y="1571.0"/>
    </contour>
    <contour>
      <point x="550.0" y="1544.0" type="curve" smooth="yes"/>
      <point x="713.0" y="1544.0"/>
      <point x="803.0" y="1375.0"/>
      <point x="803.0" y="1069.0" type="curve" smooth="yes"/>
      <point x="803.0" y="975.0"/>
      <point x="794.0" y="869.0"/>
      <point x="779.0" y="783.0" type="curve"/>
      <point x="726.0" y="717.0"/>
      <point x="649.0" y="680.0"/>
      <point x="563.0" y="680.0" type="curve" smooth="yes"/>
      <point x="389.0" y="680.0"/>
      <point x="290.0" y="838.0"/>
      <point x="290.0" y="1113.0" type="curve" smooth="yes"/>
      <point x="290.0" y="1382.0"/>
      <point x="387.0" y="1544.0"/>
    </contour>
  </outline>
</glyph>
<glyph name="colon" format="2">
  <advance width="513.0"/>
  <unicode hex="003A"/>
  <outline>
    <contour>
      <point x="143.0" y="106.0" type="curve" smooth="yes"/>
      <point x="143.0" y="42.0"/>
      <point x="189.0" y="-9.0"/>
      <point x="257.0" y="-9.0" type="curve" smooth="yes"/>
      <point x="326.0" y="-9.0"/>
      <point x="370.0" y="42.0"/>
      <point x="370.0" y="106.0" type="curve" smooth="yes"/>
      <point x="370.0" y="169.0"/>
      <point x="326.0" y="218.0"/>
      <point x="257.0" y="218.0" type="curve" smooth="yes"/>
      <point x="189.0" y="218.0"/>
      <point x="143.0" y="169.0"/>
    </contour>
    <contour>
      <point x="143.0" y="788.0" type="curve" smooth="yes"/>
      <point x="143.0" y="724.0"/>
      <point x="189.0" y="673.0"/>
      <point x="257.0" y="673.0" type="curve" smooth="yes"/>
      <point x="326.0" y="673.0"/>
      <point x="370.0" y="724.0"/>
      <point x="370.0" y="788.0" type="curve" smooth="yes"/>
      <point x="370.0" y="851.0"/>
      <point x="326.0" y="900.0"/>
      <point x="257.0" y="900.0" type="curve" smooth="yes"/>
      <point x="189.0" y="900.0"/>
      <point x="143.0" y="851.0"/>
    </contour>
  </outline>
</glyph>
<glyph name="semicolon" format="2">
  <advance width="541.0"/>
  <unicode hex="003B"/>
  <outline>
    <contour>
      <point x="147.0" y="788.0" type="curve" smooth="yes"/>
      <point x="147.0" y="724.0"/>
      <point x="194.0" y="673.0"/>
      <point x="262.0" y="673.0" type="curve" smooth="yes"/>
      <point x="330.0" y="673.0"/>
      <point x="374.0" y="724.0"/>
      <point x="374.0" y="788.0" type="curve" smooth="yes"/>
      <point x="374.0" y="851.0"/>
      <point x="330.0" y="900.0"/>
      <point x="262.0" y="900.0" type="curve" smooth="yes"/>
      <point x="194.0" y="900.0"/>
      <point x="147.0" y="851.0"/>
    </contour>
    <contour>
      <point x="185.0" y="-354.0" type="line"/>
      <point x="319.0" y="-249.0"/>
      <point x="392.0" y="-112.0"/>
      <point x="392.0" y="44.0" type="curve" smooth="yes"/>
      <point x="392.0" y="158.0"/>
      <point x="337.0" y="218.0"/>
      <point x="260.0" y="218.0" type="curve" smooth="yes"/>
      <point x="200.0" y="218.0"/>
      <point x="156.0" y="172.0"/>
      <point x="156.0" y="106.0" type="curve" smooth="yes"/>
      <point x="156.0" y="-2.0"/>
      <point x="286.0" y="11.0"/>
      <point x="286.0" y="-114.0" type="curve" smooth="yes"/>
      <point x="286.0" y="-187.0"/>
      <point x="240.0" y="-282.0"/>
      <point x="176.0" y="-343.0" type="curve"/>
    </contour>
  </outline>
</glyph>
<glyph name="less" format="2">
  <advance width="931.0"/>
  <unicode hex="003C"/>
  <outline>
    <contour>
      <point x="114.0" y="796.0" type="line"/>
      <point x="713.0" y="1109.0" type="line"/>
      <point x="733.0" y="1074.0" type="line"/>
      <point x="145.0" y="761.0" type="line"/>
      <point x="735.0" y="453.0" type="line"/>
      <point x="715.0" y="409.0" type="line"/>
      <point x="114.0" y="724.0" type="line"/>
    </contour>
  </outline>
</glyph>
<glyph name="equal" format="2">
  <advance width="1058.0"/>
  <unicode hex="003D"/>
  <outline>
    <contour>
      <point x="176.0" y="550.0" type="line"/>
      <point x="902.0" y="550.0" type="line"/>
      <point x="887.0" y="502.0" type="line"/>
      <point x="161.0" y="502.0" type="line"/>
    </contour>
    <contour>
      <point x="176.0" y="957.0" type="line"/>
      <point x="902.0" y="957.0" type="line"/>
      <point x="887.0" y="909.0" type="line"/>
      <point x="161.0" y="909.0" type="line"/>
    </contour>
  </outline>
</glyph>
<glyph name="greater" format="2">
  <advance width="931.0"/>
  <unicode hex="003E"/>
  <outline>
    <contour>
      <point x="816.0" y="724.0" type="line"/>
      <point x="216.0" y="409.0" type="line"/>
      <point x="196.0" y="453.0" type="line"/>
      <point x="785.0" y="761.0" type="line"/>
      <point x="198.0" y="1074.0" type="line"/>
      <point x="218.0" y="1109.0" type="line"/>
      <point x="816.0" y="796.0" type="line"/>
    </contour>
  </outline>
</glyph>
<glyph name="question" format="2">
  <advance width="799.0"/>
  <unicode hex="003F"/>
  <outline>
    <contour>
      <point x="235.0" y="374.0" type="line"/>
      <point x="218.0" y="884.0" type="line"/>
      <point x="277.0" y="884.0" type="line" smooth="yes"/>
      <point x="546.0" y="884.0"/>
      <point x="664.0" y="939.0"/>
      <point x="664.0" y="1067.0" type="curve" smooth="yes"/>
      <point x="664.0" y="1322.0"/>
      <point x="161.0" y="1318.0"/>
      <point x="161.0" y="1489.0" type="curve" smooth="yes"/>
      <point x="161.0" y="1542.0"/>
      <point x="189.0" y="1566.0"/>
      <point x="257.0" y="1566.0" type="curve" smooth="yes"/>
      <point x="471.0" y="1566.0"/>
      <point x="695.0" y="1300.0"/>
      <point x="695.0" y="1047.0" type="curve" smooth="yes"/>
      <point x="695.0" y="845.0"/>
      <point x="559.0" y="719.0"/>
      <point x="332.0" y="711.0" type="curve" smooth="yes"/>
      <point x="275.0" y="708.0" type="line"/>
      <point x="257.0" y="374.0" type="line"/>
    </contour>
    <contour>
      <point x="132.0" y="84.0" type="curve" smooth="yes"/>
      <point x="132.0" y="22.0"/>
      <point x="176.0" y="-22.0"/>
      <point x="238.0" y="-22.0" type="curve" smooth="yes"/>
      <point x="299.0" y="-22.0"/>
      <point x="343.0" y="22.0"/>
      <point x="343.0" y="84.0" type="curve" smooth="yes"/>
      <point x="343.0" y="145.0"/>
      <point x="299.0" y="189.0"/>
      <point x="238.0" y="189.0" type="curve" smooth="yes"/>
      <point x="176.0" y="189.0"/>
      <point x="132.0" y="145.0"/>
    </contour>
  </outline>
</glyph>
<glyph name="at" format="2">
  <advance width="1654.0"/>
  <unicode hex="0040"/>
  <outline>
    <contour>
      <point x="1212.0" y="-279.0" type="line"/>
      <point x="1100.0" y="-345.0"/>
      <point x="966.0" y="-381.0"/>
      <point x="814.0" y="-381.0" type="curve" smooth="yes"/>
      <point x="381.0" y="-381.0"/>
      <point x="95.0" y="-123.0"/>
      <point x="95.0" y="268.0" type="curve" smooth="yes"/>
      <point x="95.0" y="719.0"/>
      <point x="460.0" y="1074.0"/>
      <point x="924.0" y="1074.0" type="curve" smooth="yes"/>
      <point x="1285.0" y="1074.0"/>
      <point x="1544.0" y="840.0"/>
      <point x="1544.0" y="513.0" type="curve" smooth="yes"/>
      <point x="1544.0" y="229.0"/>
      <point x="1351.0" y="-13.0"/>
      <point x="1122.0" y="-13.0" type="curve" smooth="yes"/>
      <point x="1010.0" y="-13.0"/>
      <point x="944.0" y="44.0"/>
      <point x="944.0" y="143.0" type="curve" smooth="yes"/>
      <point x="944.0" y="161.0"/>
      <point x="946.0" y="174.0"/>
      <point x="953.0" y="183.0" type="curve"/>
      <point x="946.0" y="185.0" type="line"/>
      <point x="867.0" y="70.0"/>
      <point x="774.0" y="11.0"/>
      <point x="669.0" y="11.0" type="curve" smooth="yes"/>
      <point x="537.0" y="11.0"/>
      <point x="455.0" y="97.0"/>
      <point x="455.0" y="235.0" type="curve" smooth="yes"/>
      <point x="455.0" y="486.0"/>
      <point x="715.0" y="779.0"/>
      <point x="935.0" y="779.0" type="curve" smooth="yes"/>
      <point x="1003.0" y="779.0"/>
      <point x="1047.0" y="752.0"/>
      <point x="1074.0" y="691.0" type="curve"/>
      <point x="1082.0" y="691.0" type="line"/>
      <point x="1109.0" y="779.0" type="line"/>
      <point x="1276.0" y="779.0" type="line"/>
      <point x="1104.0" y="198.0" type="line" smooth="yes"/>
      <point x="1093.0" y="167.0"/>
      <point x="1091.0" y="150.0"/>
      <point x="1091.0" y="125.0" type="curve" smooth="yes"/>
      <point x="1091.0" y="59.0"/>
      <point x="1113.0" y="35.0"/>
      <point x="1168.0" y="35.0" type="curve" smooth="yes"/>
      <point x="1346.0" y="35.0"/>
      <point x="1511.0" y="262.0"/>
      <point x="1511.0" y="510.0" type="curve" smooth="yes"/>
      <point x="1511.0" y="821.0"/>
      <point x="1265.0" y="1041.0"/>
      <point x="922.0" y="1041.0" type="curve" smooth="yes"/>
      <point x="532.0" y="1041.0"/>
      <point x="235.0" y="713.0"/>
      <point x="235.0" y="284.0" type="curve" smooth="yes"/>
      <point x="235.0" y="-101.0"/>
      <point x="477.0" y="-345.0"/>
      <point x="858.0" y="-345.0" type="curve" smooth="yes"/>
      <point x="992.0" y="-345.0"/>
      <point x="1085.0" y="-319.0"/>
      <point x="1201.0" y="-251.0" type="curve"/>
    </contour>
    <contour>
      <point x="715.0" y="42.0" type="curve" smooth="yes"/>
      <point x="873.0" y="42.0"/>
      <point x="1047.0" y="339.0"/>
      <point x="1047.0" y="605.0" type="curve" smooth="yes"/>
      <point x="1047.0" y="708.0"/>
      <point x="1021.0" y="752.0"/>
      <point x="959.0" y="752.0" type="curve" smooth="yes"/>
      <point x="801.0" y="752.0"/>
      <point x="616.0" y="460.0"/>
      <point x="616.0" y="207.0" type="curve" smooth="yes"/>
      <point x="616.0" y="99.0"/>
      <point x="651.0" y="42.0"/>
    </contour>
  </outline>
</glyph>
<glyph name="A" format="2">
  <advance width="1448.0"/>
  <unicode hex="0041"/>
  <anchor x="1230.0" y="0.0" name="bottom"/>
  <anchor x="702.0" y="1760.0" name="top"/>
  <outline>
    <contour>
      <point x="392.0" y="18.0" type="line"/>
      <point x="392.0" y="0.0" type="line"/>
      <point x="-77.0" y="0.0" type="line"/>
      <point x="-77.0" y="18.0" type="line"/>
      <point x="46.0" y="29.0" type="line" smooth="yes"/>
      <point x="119.0" y="35.0"/>
      <point x="141.0" y="51.0"/>
      <point x="165.0" y="117.0" type="curve" smooth="yes"/>
      <point x="704.0" y="1553.0" type="line"/>
      <point x="744.0" y="1553.0" type="line"/>
      <point x="1298.0" y="40.0" type="line"/>
      <point x="1481.0" y="18.0" type="line"/>
      <point x="1481.0" y="0.0" type="line"/>
      <point x="942.0" y="0.0" type="line"/>
      <point x="942.0" y="18.0" type="line"/>
      <point x="1122.0" y="40.0" type="line"/>
      <point x="656.0" y="1309.0" type="line"/>
      <point x="647.0" y="1309.0" type="line"/>
      <point x="200.0" y="117.0" type="line" smooth="yes"/>
      <point x="194.0" y="99.0"/>
      <point x="191.0" y="88.0"/>
      <point x="191.0" y="77.0" type="curve" smooth="yes"/>
      <point x="191.0" y="44.0"/>
      <point x="209.0" y="33.0"/>
      <point x="257.0" y="29.0" type="curve" smooth="yes"/>
    </contour>
    <contour>
      <point x="370.0" y="638.0" type="line"/>
      <point x="957.0" y="638.0" type="line"/>
      <point x="957.0" y="603.0" type="line"/>
      <point x="370.0" y="603.0" type="line"/>
    </contour>
  </outline>
</glyph>
<glyph name="B" format="2">
  <advance width="1353.0"/>
  <unicode hex="0042"/>
  <outline>
    <contour>
      <point x="330.0" y="0.0" type="line"/>
      <point x="330.0" y="26.0" type="line"/>
      <point x="684.0" y="26.0" type="line" smooth="yes"/>
      <point x="920.0" y="26.0"/>
      <point x="1025.0" y="161.0"/>
      <point x="1025.0" y="409.0" type="curve" smooth="yes"/>
      <point x="1025.0" y="682.0"/>
      <point x="902.0" y="790.0"/>
      <point x="684.0" y="790.0" type="curve" smooth="yes"/>
      <point x="330.0" y="790.0" type="line"/>
      <point x="330.0" y="816.0" type="line"/>
      <point x="693.0" y="816.0" type="line" smooth="yes"/>
      <point x="895.0" y="816.0"/>
      <point x="970.0" y="939.0"/>
      <point x="970.0" y="1157.0" type="curve" smooth="yes"/>
      <point x="970.0" y="1377.0"/>
      <point x="862.0" y="1492.0"/>
      <point x="629.0" y="1492.0" type="curve" smooth="yes"/>
      <point x="363.0" y="1492.0" type="line"/>
      <point x="363.0" y="1518.0" type="line"/>
      <point x="636.0" y="1518.0" type="line" smooth="yes"/>
      <point x="981.0" y="1518.0"/>
      <point x="1168.0" y="1390.0"/>
      <point x="1168.0" y="1157.0" type="curve" smooth="yes"/>
      <point x="1168.0" y="972.0"/>
      <point x="1052.0" y="840.0"/>
      <point x="840.0" y="810.0" type="curve"/>
      <point x="840.0" y="801.0" type="line"/>
      <point x="1096.0" y="766.0"/>
      <point x="1234.0" y="631.0"/>
      <point x="1234.0" y="416.0" type="curve" smooth="yes"/>
      <point x="1234.0" y="205.0"/>
      <point x="1100.0" y="0.0"/>
      <point x="737.0" y="0.0" type="curve" smooth="yes"/>
    </contour>
    <contour>
      <point x="88.0" y="1500.0" type="line"/>
      <point x="88.0" y="1518.0" type="line"/>
      <point x="438.0" y="1518.0" type="line"/>
      <point x="438.0" y="0.0" type="line"/>
      <point x="88.0" y="0.0" type="line"/>
      <point x="88.0" y="18.0" type="line"/>
      <point x="268.0" y="35.0" type="line"/>
      <point x="268.0" y="1483.0" type="line"/>
    </contour>
  </outline>
</glyph>
<glyph name="C" format="2">
  <advance width="1487.0"/>
  <unicode hex="0043"/>
  <anchor x="825.0" y="0.0" name="bottom"/>
  <anchor x="803.0" y="1760.0" name="top"/>
  <outline>
    <contour>
      <point x="1157.0" y="150.0" type="curve" smooth="yes"/>
      <point x="1245.0" y="249.0"/>
      <point x="1291.0" y="387.0"/>
      <point x="1320.0" y="510.0" type="curve"/>
      <point x="1349.0" y="506.0" type="line"/>
      <point x="1349.0" y="0.0" type="line"/>
      <point x="1320.0" y="0.0" type="line"/>
      <point x="1245.0" y="121.0" type="line"/>
      <point x="1115.0" y="26.0"/>
      <point x="953.0" y="-35.0"/>
      <point x="807.0" y="-35.0" type="curve" smooth="yes"/>
      <point x="418.0" y="-35.0"/>
      <point x="114.0" y="312.0"/>
      <point x="114.0" y="759.0" type="curve" smooth="yes"/>
      <point x="114.0" y="1203.0"/>
      <point x="418.0" y="1553.0"/>
      <point x="803.0" y="1553.0" type="curve" smooth="yes"/>
      <point x="935.0" y="1553.0"/>
      <point x="1067.0" y="1514.0"/>
      <point x="1239.0" y="1421.0" type="curve"/>
      <point x="1291.0" y="1527.0" type="line"/>
      <point x="1320.0" y="1527.0" type="line"/>
      <point x="1342.0" y="1032.0" type="line"/>
      <point x="1311.0" y="1023.0" type="line"/>
      <point x="1291.0" y="1133.0"/>
      <point x="1258.0" y="1230.0"/>
      <point x="1214.0" y="1302.0" type="curve" smooth="yes"/>
      <point x="1126.0" y="1448.0"/>
      <point x="979.0" y="1527.0"/>
      <point x="810.0" y="1527.0" type="curve" smooth="yes"/>
      <point x="497.0" y="1527.0"/>
      <point x="326.0" y="1247.0"/>
      <point x="326.0" y="759.0" type="curve" smooth="yes"/>
      <point x="326.0" y="273.0"/>
      <point x="499.0" y="-4.0"/>
      <point x="807.0" y="-4.0" type="curve" smooth="yes"/>
      <point x="942.0" y="-4.0"/>
      <point x="1074.0" y="59.0"/>
    </contour>
  </outline>
</glyph>
<glyph name="D" format="2">
  <advance width="1549.0"/>
  <unicode hex="0044"/>
  <anchor x="700.0" y="0.0" name="bottom"/>
  <anchor x="700.0" y="1760.0" name="top"/>
  <outline>
    <contour>
      <point x="88.0" y="1500.0" type="line"/>
      <point x="88.0" y="1518.0" type="line"/>
      <point x="438.0" y="1518.0" type="line"/>
      <point x="438.0" y="0.0" type="line"/>
      <point x="88.0" y="0.0" type="line"/>
      <point x="88.0" y="18.0" type="line"/>
      <point x="268.0" y="35.0" type="line"/>
      <point x="268.0" y="1483.0" type="line"/>
    </contour>
    <contour>
      <point x="326.0" y="1518.0" type="line"/>
      <point x="673.0" y="1518.0" type="line" smooth="yes"/>
      <point x="876.0" y="1518.0"/>
      <point x="1027.0" y="1481.0"/>
      <point x="1142.0" y="1401.0" type="curve" smooth="yes"/>
      <point x="1322.0" y="1276.0"/>
      <point x="1426.0" y="1045.0"/>
      <point x="1426.0" y="768.0" type="curve" smooth="yes"/>
      <point x="1426.0" y="488.0"/>
      <point x="1320.0" y="249.0"/>
      <point x="1142.0" y="119.0" type="curve" smooth="yes"/>
      <point x="1027.0" y="35.0"/>
      <point x="887.0" y="0.0"/>
      <point x="673.0" y="0.0" type="curve" smooth="yes"/>
      <point x="326.0" y="0.0" type="line"/>
      <point x="326.0" y="26.0" type="line"/>
      <point x="653.0" y="26.0" type="line" smooth="yes"/>
      <point x="889.0" y="26.0"/>
      <point x="986.0" y="59.0"/>
      <point x="1063.0" y="156.0" type="curve" smooth="yes"/>
      <point x="1157.0" y="277.0"/>
      <point x="1214.0" y="510.0"/>
      <point x="1214.0" y="779.0" type="curve" smooth="yes"/>
      <point x="1214.0" y="1038.0"/>
      <point x="1162.0" y="1245.0"/>
      <point x="1063.0" y="1362.0" type="curve" smooth="yes"/>
      <point x="981.0" y="1456.0"/>
      <point x="878.0" y="1492.0"/>
      <point x="653.0" y="1492.0" type="curve" smooth="yes"/>
      <point x="326.0" y="1492.0" type="line"/>
    </contour>
  </outline>
</glyph>
<glyph name="E" format="2">
  <advance width="1351.0"/>
  <unicode hex="0045"/>
  <anchor x="689.0" y="0.0" name="bottom"/>
  <anchor x="691.0" y="1760.0" name="top"/>
  <outline>
    <contour>
      <point x="438.0" y="1492.0" type="line"/>
      <point x="438.0" y="26.0" type="line"/>
      <point x="931.0" y="26.0" type="line" smooth="yes"/>
      <point x="1001.0" y="26.0"/>
      <point x="1025.0" y="42.0"/>
      <point x="1052.0" y="108.0" type="curve" smooth="yes"/>
      <point x="1197.0" y="464.0" type="line"/>
      <point x="1221.0" y="462.0" type="line"/>
      <point x="1166.0" y="0.0" type="line"/>
      <point x="88.0" y="0.0" type="line"/>
      <point x="88.0" y="18.0" type="line"/>
      <point x="268.0" y="35.0" type="line"/>
      <point x="268.0" y="1483.0" type="line"/>
      <point x="88.0" y="1500.0" type="line"/>
      <point x="88.0" y="1518.0" type="line"/>
      <point x="1168.0" y="1518.0" type="line"/>
      <point x="1199.0" y="1104.0" type="line"/>
      <point x="1177.0" y="1102.0" type="line"/>
      <point x="1054.0" y="1410.0" type="line" smooth="yes"/>
      <point x="1027.0" y="1476.0"/>
      <point x="1005.0" y="1492.0"/>
      <point x="935.0" y="1492.0" type="curve" smooth="yes"/>
    </contour>
    <contour>
      <point x="763.0" y="816.0" type="line" smooth="yes"/>
      <point x="834.0" y="816.0"/>
      <point x="856.0" y="834.0"/>
      <point x="869.0" y="902.0" type="curve" smooth="yes"/>
      <point x="906.0" y="1080.0" type="line"/>
      <point x="933.0" y="1080.0" type="line"/>
      <point x="933.0" y="517.0" type="line"/>
      <point x="906.0" y="517.0" type="line"/>
      <point x="869.0" y="695.0" type="line" smooth="yes"/>
      <point x="856.0" y="763.0"/>
      <point x="834.0" y="781.0"/>
      <point x="763.0" y="781.0" type="curve" smooth="yes"/>
      <point x="418.0" y="781.0" type="line"/>
      <point x="418.0" y="816.0" type="line"/>
    </contour>
  </outline>
</glyph>
<glyph name="F" format="2">
  <advance width="1219.0"/>
  <unicode hex="0046"/>
  <outline>
    <contour>
      <point x="438.0" y="1492.0" type="line"/>
      <point x="438.0" y="35.0" type="line"/>
      <point x="653.0" y="18.0" type="line"/>
      <point x="653.0" y="0.0" type="line"/>
      <point x="88.0" y="0.0" type="line"/>
      <point x="88.0" y="18.0" type="line"/>
      <point x="268.0" y="35.0" type="line"/>
      <point x="268.0" y="1483.0" type="line"/>
      <point x="88.0" y="1500.0" type="line"/>
      <point x="88.0" y="1518.0" type="line"/>
      <point x="1118.0" y="1518.0" type="line"/>
      <point x="1153.0" y="1080.0" type="line"/>
      <point x="1135.0" y="1078.0" type="line"/>
      <point x="1003.0" y="1410.0" type="line" smooth="yes"/>
      <point x="977.0" y="1476.0"/>
      <point x="955.0" y="1492.0"/>
      <point x="884.0" y="1492.0" type="curve" smooth="yes"/>
    </contour>
    <contour>
      <point x="757.0" y="816.0" type="line" smooth="yes"/>
      <point x="827.0" y="816.0"/>
      <point x="849.0" y="834.0"/>
      <point x="862.0" y="902.0" type="curve" smooth="yes"/>
      <point x="900.0" y="1080.0" type="line"/>
      <point x="926.0" y="1080.0" type="line"/>
      <point x="926.0" y="517.0" type="line"/>
      <point x="900.0" y="517.0" type="line"/>
      <point x="862.0" y="695.0" type="line" smooth="yes"/>
      <point x="849.0" y="763.0"/>
      <point x="827.0" y="781.0"/>
      <point x="757.0" y="781.0" type="curve" smooth="yes"/>
      <point x="411.0" y="781.0" type="line"/>
      <point x="411.0" y="816.0" type="line"/>
    </contour>
  </outline>
</glyph>
<glyph name="G" format="2">
  <advance width="1547.0"/>
  <unicode hex="0047"/>
  <anchor x="818.0" y="1760.0" name="top"/>
  <outline>
    <contour>
      <point x="1003.0" y="741.0" type="line"/>
      <point x="1003.0" y="759.0" type="line"/>
      <point x="1511.0" y="759.0" type="line"/>
      <point x="1511.0" y="741.0" type="line"/>
      <point x="1331.0" y="724.0" type="line"/>
      <point x="1331.0" y="150.0" type="line"/>
      <point x="1173.0" y="2.0"/>
      <point x="917.0" y="-35.0"/>
      <point x="807.0" y="-35.0" type="curve" smooth="yes"/>
      <point x="418.0" y="-35.0"/>
      <point x="114.0" y="312.0"/>
      <point x="114.0" y="759.0" type="curve" smooth="yes"/>
      <point x="114.0" y="1203.0"/>
      <point x="418.0" y="1553.0"/>
      <point x="803.0" y="1553.0" type="curve" smooth="yes"/>
      <point x="931.0" y="1553.0"/>
      <point x="1063.0" y="1514.0"/>
      <point x="1230.0" y="1421.0" type="curve"/>
      <point x="1283.0" y="1527.0" type="line"/>
      <point x="1311.0" y="1527.0" type="line"/>
      <point x="1333.0" y="1032.0" type="line"/>
      <point x="1302.0" y="1023.0" type="line"/>
      <point x="1283.0" y="1133.0"/>
      <point x="1250.0" y="1230.0"/>
      <point x="1206.0" y="1302.0" type="curve" smooth="yes"/>
      <point x="1118.0" y="1448.0"/>
      <point x="975.0" y="1527.0"/>
      <point x="810.0" y="1527.0" type="curve" smooth="yes"/>
      <point x="497.0" y="1527.0"/>
      <point x="326.0" y="1247.0"/>
      <point x="326.0" y="759.0" type="curve" smooth="yes"/>
      <point x="326.0" y="268.0"/>
      <point x="499.0" y="-9.0"/>
      <point x="807.0" y="-9.0" type="curve" smooth="yes"/>
      <point x="957.0" y="-9.0"/>
      <point x="1091.0" y="66.0"/>
      <point x="1162.0" y="169.0" type="curve"/>
      <point x="1162.0" y="724.0" type="line"/>
    </contour>
  </outline>
</glyph>
<glyph name="H" format="2">
  <advance width="1608.0"/>
  <unicode hex="0048"/>
  <anchor x="810.0" y="0.0" name="bottom"/>
  <anchor x="810.0" y="1760.0" name="top"/>
  <outline>
    <contour>
      <point x="979.0" y="1500.0" type="line"/>
      <point x="979.0" y="1518.0" type="line"/>
      <point x="1520.0" y="1518.0" type="line"/>
      <point x="1520.0" y="1500.0" type="line"/>
      <point x="1340.0" y="1483.0" type="line"/>
      <point x="1340.0" y="35.0" type="line"/>
      <point x="1520.0" y="18.0" type="line"/>
      <point x="1520.0" y="0.0" type="line"/>
      <point x="979.0" y="0.0" type="line"/>
      <point x="979.0" y="18.0" type="line"/>
      <point x="1170.0" y="35.0" type="line"/>
      <point x="1170.0" y="1483.0" type="line"/>
    </contour>
    <contour>
      <point x="88.0" y="1500.0" type="line"/>
      <point x="88.0" y="1518.0" type="line"/>
      <point x="629.0" y="1518.0" type="line"/>
      <point x="629.0" y="1500.0" type="line"/>
      <point x="438.0" y="1483.0" type="line"/>
      <point x="438.0" y="35.0" type="line"/>
      <point x="629.0" y="18.0" type="line"/>
      <point x="629.0" y="0.0" type="line"/>
      <point x="88.0" y="0.0" type="line"/>
      <point x="88.0" y="18.0" type="line"/>
      <point x="268.0" y="35.0" type="line"/>
      <point x="268.0" y="1483.0" type="line"/>
    </contour>
    <contour>
      <point x="356.0" y="816.0" type="line"/>
      <point x="1252.0" y="816.0" type="line"/>
      <point x="1252.0" y="781.0" type="line"/>
      <point x="356.0" y="781.0" type="line"/>
    </contour>
  </outline>
</glyph>
<glyph name="I" format="2">
  <advance width="706.0"/>
  <unicode hex="0049"/>
  <anchor x="354.0" y="0.0" name="bottom"/>
  <anchor x="354.0" y="1760.0" name="top"/>
  <outline>
    <contour>
      <point x="268.0" y="1483.0" type="line"/>
      <point x="268.0" y="35.0" type="line"/>
      <point x="88.0" y="18.0" type="line"/>
      <point x="88.0" y="0.0" type="line"/>
      <point x="618.0" y="0.0" type="line"/>
      <point x="618.0" y="18.0" type="line"/>
      <point x="438.0" y="35.0" type="line"/>
      <point x="438.0" y="1483.0" type="line"/>
      <point x="618.0" y="1500.0" type="line"/>
      <point x="618.0" y="1518.0" type="line"/>
      <point x="88.0" y="1518.0" type="line"/>
      <point x="88.0" y="1500.0" type="line"/>
    </contour>
  </outline>
</glyph>
<glyph name="J" format="2">
  <advance width="726.0"/>
  <unicode hex="004A"/>
  <anchor x="381.0" y="1760.0" name="top"/>
  <outline>
    <contour>
      <point x="295.0" y="1483.0" type="line"/>
      <point x="114.0" y="1500.0" type="line"/>
      <point x="114.0" y="1518.0" type="line"/>
      <point x="645.0" y="1518.0" type="line"/>
      <point x="645.0" y="1500.0" type="line"/>
      <point x="464.0" y="1483.0" type="line"/>
      <point x="464.0" y="125.0" type="line" smooth="yes"/>
      <point x="464.0" y="-66.0"/>
      <point x="444.0" y="-163.0"/>
      <point x="392.0" y="-240.0" type="curve" smooth="yes"/>
      <point x="332.0" y="-323.0"/>
      <point x="231.0" y="-376.0"/>
      <point x="121.0" y="-376.0" type="curve" smooth="yes"/>
      <point x="-15.0" y="-376.0"/>
      <point x="-119.0" y="-304.0"/>
      <point x="-119.0" y="-207.0" type="curve" smooth="yes"/>
      <point x="-119.0" y="-147.0"/>
      <point x="-84.0" y="-110.0"/>
      <point x="-26.0" y="-110.0" type="curve" smooth="yes"/>
      <point x="31.0" y="-110.0"/>
      <point x="66.0" y="-147.0"/>
      <point x="66.0" y="-209.0" type="curve" smooth="yes"/>
      <point x="66.0" y="-224.0"/>
      <point x="64.0" y="-257.0"/>
      <point x="64.0" y="-273.0" type="curve" smooth="yes"/>
      <point x="64.0" y="-323.0"/>
      <point x="90.0" y="-350.0"/>
      <point x="139.0" y="-350.0" type="curve" smooth="yes"/>
      <point x="233.0" y="-350.0"/>
      <point x="295.0" y="-229.0"/>
      <point x="295.0" y="-44.0" type="curve" smooth="yes"/>
    </contour>
  </outline>
</glyph>
<glyph name="K" format="2">
  <advance width="1443.0"/>
  <unicode hex="004B"/>
  <anchor x="737.0" y="0.0" name="bottom"/>
  <outline>
    <contour>
      <point x="669.0" y="931.0" type="line"/>
      <point x="1313.0" y="88.0" type="line" smooth="yes"/>
      <point x="1362.0" y="33.0"/>
      <point x="1395.0" y="18.0"/>
      <point x="1476.0" y="18.0" type="curve" smooth="yes"/>
      <point x="1485.0" y="18.0" type="line"/>
      <point x="1485.0" y="0.0" type="line"/>
      <point x="1157.0" y="0.0" type="line"/>
      <point x="554.0" y="794.0" type="line"/>
    </contour>
    <contour>
      <point x="88.0" y="1500.0" type="line"/>
      <point x="88.0" y="1518.0" type="line"/>
      <point x="629.0" y="1518.0" type="line"/>
      <point x="629.0" y="1500.0" type="line"/>
      <point x="438.0" y="1483.0" type="line"/>
      <point x="438.0" y="35.0" type="line"/>
      <point x="629.0" y="18.0" type="line"/>
      <point x="629.0" y="0.0" type="line"/>
      <point x="88.0" y="0.0" type="line"/>
      <point x="88.0" y="18.0" type="line"/>
      <point x="268.0" y="35.0" type="line"/>
      <point x="268.0" y="1483.0" type="line"/>
    </contour>
    <contour>
      <point x="900.0" y="1500.0" type="curve"/>
      <point x="900.0" y="1518.0" type="line"/>
      <point x="1349.0" y="1518.0" type="line"/>
      <point x="1349.0" y="1500.0" type="line"/>
      <point x="1177.0" y="1472.0"/>
      <point x="1146.0" y="1456.0"/>
      <point x="1080.0" y="1382.0" type="curve" smooth="yes"/>
      <point x="378.0" y="579.0" type="line"/>
      <point x="378.0" y="618.0" type="line"/>
      <point x="1036.0" y="1377.0" type="line" smooth="yes"/>
      <point x="1058.0" y="1404.0"/>
      <point x="1071.0" y="1428.0"/>
      <point x="1071.0" y="1445.0" type="curve" smooth="yes"/>
      <point x="1071.0" y="1474.0"/>
      <point x="1038.0" y="1485.0"/>
    </contour>
  </outline>
</glyph>
<glyph name="L" format="2">
  <advance width="1283.0"/>
  <unicode hex="004C"/>
  <anchor x="660.0" y="0.0" name="bottom"/>
  <outline>
    <contour>
      <point x="88.0" y="1500.0" type="line"/>
      <point x="88.0" y="1518.0" type="line"/>
      <point x="629.0" y="1518.0" type="line"/>
      <point x="629.0" y="1500.0" type="line"/>
      <point x="438.0" y="1483.0" type="line"/>
      <point x="438.0" y="26.0" type="line"/>
      <point x="924.0" y="26.0" type="line" smooth="yes"/>
      <point x="994.0" y="26.0"/>
      <point x="1019.0" y="42.0"/>
      <point x="1045.0" y="108.0" type="curve" smooth="yes"/>
      <point x="1195.0" y="484.0" type="line"/>
      <point x="1221.0" y="480.0" type="line"/>
      <point x="1166.0" y="0.0" type="line"/>
      <point x="88.0" y="0.0" type="line"/>
      <point x="88.0" y="18.0" type="line"/>
      <point x="268.0" y="35.0" type="line"/>
      <point x="268.0" y="1483.0" type="line"/>
    </contour>
  </outline>
</glyph>
<glyph name="M" format="2">
  <advance width="1916.0"/>
  <unicode hex="004D"/>
  <outline>
    <contour>
      <point x="75.0" y="1500.0" type="line"/>
      <point x="75.0" y="1518.0" type="line"/>
      <point x="451.0" y="1518.0" type="line"/>
      <point x="992.0" y="227.0" type="line"/>
      <point x="1001.0" y="227.0" type="line"/>
      <point x="1485.0" y="1518.0" type="line"/>
      <point x="1533.0" y="1518.0" type="line"/>
      <point x="1478.0" y="1375.0" type="line"/>
      <point x="1470.0" y="1375.0" type="line"/>
      <point x="939.0" y="-35.0" type="line"/>
      <point x="917.0" y="-35.0" type="line"/>
      <point x="326.0" y="1377.0" type="line"/>
      <point x="317.0" y="1377.0" type="line"/>
      <point x="299.0" y="1395.0" type="line"/>
      <point x="299.0" y="1419.0" type="line"/>
      <point x="271.0" y="1485.0"/>
      <point x="246.0" y="1500.0"/>
      <point x="176.0" y="1500.0" type="curve" smooth="yes"/>
    </contour>
    <contour>
      <point x="317.0" y="1492.0" type="line"/>
      <point x="317.0" y="134.0" type="line" smooth="yes"/>
      <point x="317.0" y="64.0"/>
      <point x="330.0" y="42.0"/>
      <point x="383.0" y="35.0" type="curve" smooth="yes"/>
      <point x="539.0" y="18.0" type="line"/>
      <point x="539.0" y="0.0" type="line"/>
      <point x="57.0" y="0.0" type="line"/>
      <point x="57.0" y="18.0" type="line"/>
      <point x="216.0" y="35.0" type="line" smooth="yes"/>
      <point x="268.0" y="42.0"/>
      <point x="282.0" y="64.0"/>
      <point x="282.0" y="134.0" type="curve" smooth="yes"/>
      <point x="282.0" y="1492.0" type="line"/>
    </contour>
    <contour>
      <point x="1839.0" y="1518.0" type="line"/>
      <point x="1839.0" y="1500.0" type="line"/>
      <point x="1648.0" y="1483.0" type="line"/>
      <point x="1648.0" y="35.0" type="line"/>
      <point x="1839.0" y="18.0" type="line"/>
      <point x="1839.0" y="0.0" type="line"/>
      <point x="1298.0" y="0.0" type="line"/>
      <point x="1298.0" y="18.0" type="line"/>
      <point x="1478.0" y="35.0" type="line"/>
      <point x="1478.0" y="1434.0" type="line"/>
      <point x="1494.0" y="1518.0" type="line"/>
    </contour>
  </outline>
</glyph>
<glyph name="N" format="2">
  <advance width="1615.0"/>
  <unicode hex="004E"/>
  <anchor x="827.0" y="0.0" name="bottom"/>
  <anchor x="827.0" y="1760.0" name="top"/>
  <outline>
    <contour>
      <point x="95.0" y="1500.0" type="line"/>
      <point x="95.0" y="1518.0" type="line"/>
      <point x="422.0" y="1518.0" type="line"/>
      <point x="1289.0" y="304.0" type="line"/>
      <point x="1333.0" y="304.0" type="line"/>
      <point x="1333.0" y="-35.0" type="line"/>
      <point x="1311.0" y="-35.0" type="line"/>
      <point x="323.0" y="1366.0" type="line"/>
      <point x="304.0" y="1366.0" type="line"/>
      <point x="293.0" y="1397.0" type="line"/>
      <point x="271.0" y="1428.0" type="line" smooth="yes"/>
      <point x="231.0" y="1485.0"/>
      <point x="202.0" y="1500.0"/>
      <point x="132.0" y="1500.0" type="curve" smooth="yes"/>
    </contour>
    <contour>
      <point x="1298.0" y="150.0" type="line"/>
      <point x="1298.0" y="1384.0" type="line" smooth="yes"/>
      <point x="1298.0" y="1454.0"/>
      <point x="1285.0" y="1478.0"/>
      <point x="1232.0" y="1483.0" type="curve" smooth="yes"/>
      <point x="1054.0" y="1500.0" type="line"/>
      <point x="1054.0" y="1518.0" type="line"/>
      <point x="1580.0" y="1518.0" type="line"/>
      <point x="1580.0" y="1500.0" type="line"/>
      <point x="1421.0" y="1483.0" type="line" smooth="yes"/>
      <point x="1351.0" y="1474.0"/>
      <point x="1333.0" y="1454.0"/>
      <point x="1333.0" y="1384.0" type="curve" smooth="yes"/>
      <point x="1333.0" y="150.0" type="line"/>
    </contour>
    <contour>
      <point x="315.0" y="1461.0" type="line"/>
      <point x="315.0" y="134.0" type="line" smooth="yes"/>
      <point x="315.0" y="64.0"/>
      <point x="328.0" y="42.0"/>
      <point x="381.0" y="35.0" type="curve" smooth="yes"/>
      <point x="537.0" y="18.0" type="line"/>
      <point x="537.0" y="0.0" type="line"/>
      <point x="55.0" y="0.0" type="line"/>
      <point x="55.0" y="18.0" type="line"/>
      <point x="213.0" y="35.0" type="line" smooth="yes"/>
      <point x="266.0" y="42.0"/>
      <point x="279.0" y="64.0"/>
      <point x="279.0" y="134.0" type="curve" smooth="yes"/>
      <point x="279.0" y="1456.0" type="line"/>
    </contour>
  </outline>
</glyph>
<glyph name="O" format="2">
  <advance width="1615.0"/>
  <unicode hex="004F"/>
  <anchor x="810.0" y="0.0" name="bottom"/>
  <anchor x="812.0" y="1760.0" name="top"/>
  <outline>
    <contour>
      <point x="807.0" y="1553.0" type="curve" smooth="yes"/>
      <point x="418.0" y="1553.0"/>
      <point x="114.0" y="1206.0"/>
      <point x="114.0" y="759.0" type="curve" smooth="yes"/>
      <point x="114.0" y="312.0"/>
      <point x="418.0" y="-35.0"/>
      <point x="807.0" y="-35.0" type="curve" smooth="yes"/>
      <point x="1197.0" y="-35.0"/>
      <point x="1500.0" y="312.0"/>
      <point x="1500.0" y="759.0" type="curve" smooth="yes"/>
      <point x="1500.0" y="1206.0"/>
      <point x="1197.0" y="1553.0"/>
    </contour>
    <contour>
      <point x="326.0" y="759.0" type="curve" smooth="yes"/>
      <point x="326.0" y="1250.0"/>
      <point x="499.0" y="1527.0"/>
      <point x="807.0" y="1527.0" type="curve" smooth="yes"/>
      <point x="1115.0" y="1527.0"/>
      <point x="1289.0" y="1250.0"/>
      <point x="1289.0" y="759.0" type="curve" smooth="yes"/>
      <point x="1289.0" y="271.0"/>
      <point x="1115.0" y="-7.0"/>
      <point x="807.0" y="-7.0" type="curve" smooth="yes"/>
      <point x="499.0" y="-7.0"/>
      <point x="326.0" y="271.0"/>
    </contour>
  </outline>
</glyph>
<glyph name="P" format="2">
  <advance width="1250.0"/>
  <unicode hex="0050"/>
  <outline>
    <contour>
      <point x="268.0" y="35.0" type="line"/>
      <point x="268.0" y="1483.0" type="line"/>
      <point x="88.0" y="1500.0" type="line"/>
      <point x="88.0" y="1518.0" type="line"/>
      <point x="438.0" y="1518.0" type="line"/>
      <point x="438.0" y="35.0" type="line"/>
      <point x="653.0" y="18.0" type="line"/>
      <point x="653.0" y="0.0" type="line"/>
      <point x="88.0" y="0.0" type="line"/>
      <point x="88.0" y="18.0" type="line"/>
    </contour>
    <contour>
      <point x="363.0" y="1518.0" type="line"/>
      <point x="645.0" y="1518.0" type="line" smooth="yes"/>
      <point x="990.0" y="1518.0"/>
      <point x="1177.0" y="1364.0"/>
      <point x="1177.0" y="1098.0" type="curve" smooth="yes"/>
      <point x="1177.0" y="812.0"/>
      <point x="990.0" y="660.0"/>
      <point x="645.0" y="660.0" type="curve" smooth="yes"/>
      <point x="363.0" y="660.0" type="line"/>
      <point x="363.0" y="686.0" type="line"/>
      <point x="638.0" y="686.0" type="line" smooth="yes"/>
      <point x="876.0" y="686.0"/>
      <point x="979.0" y="816.0"/>
      <point x="979.0" y="1109.0" type="curve" smooth="yes"/>
      <point x="979.0" y="1324.0"/>
      <point x="915.0" y="1492.0"/>
      <point x="638.0" y="1492.0" type="curve" smooth="yes"/>
      <point x="363.0" y="1492.0" type="line"/>
    </contour>
  </outline>
</glyph>
<glyph name="Q" format="2">
  <advance width="1615.0"/>
  <unicode hex="0051"/>
  <outline>
    <contour>
      <point x="807.0" y="1553.0" type="curve" smooth="yes"/>
      <point x="1197.0" y="1553.0"/>
      <point x="1500.0" y="1206.0"/>
      <point x="1500.0" y="759.0" type="curve" smooth="yes"/>
      <point x="1500.0" y="312.0"/>
      <point x="1197.0" y="-35.0"/>
      <point x="807.0" y="-35.0" type="curve" smooth="yes"/>
      <point x="418.0" y="-35.0"/>
      <point x="114.0" y="312.0"/>
      <point x="114.0" y="759.0" type="curve" smooth="yes"/>
      <point x="114.0" y="1206.0"/>
      <point x="418.0" y="1553.0"/>
    </contour>
    <contour>
      <point x="326.0" y="759.0" type="curve" smooth="yes"/>
      <point x="326.0" y="268.0"/>
      <point x="499.0" y="-9.0"/>
      <point x="807.0" y="-9.0" type="curve" smooth="yes"/>
      <point x="1115.0" y="-9.0"/>
      <point x="1289.0" y="268.0"/>
      <point x="1289.0" y="759.0" type="curve" smooth="yes"/>
      <point x="1289.0" y="1250.0"/>
      <point x="1115.0" y="1527.0"/>
      <point x="807.0" y="1527.0" type="curve" smooth="yes"/>
      <point x="499.0" y="1527.0"/>
      <point x="326.0" y="1250.0"/>
    </contour>
    <contour>
      <point x="887.0" y="-18.0" type="line"/>
      <point x="1045.0" y="-73.0"/>
      <point x="1199.0" y="-194.0"/>
      <point x="1349.0" y="-194.0" type="curve" smooth="yes"/>
      <point x="1450.0" y="-194.0"/>
      <point x="1492.0" y="-136.0"/>
      <point x="1522.0" y="-66.0" type="curve" smooth="yes"/>
      <point x="1544.0" y="-79.0" type="line" smooth="yes"/>
      <point x="1485.0" y="-216.0"/>
      <point x="1351.0" y="-328.0"/>
      <point x="1203.0" y="-328.0" type="curve" smooth="yes"/>
      <point x="1089.0" y="-328.0"/>
      <point x="1001.0" y="-262.0"/>
      <point x="944.0" y="-187.0" type="curve" smooth="yes"/>
      <point x="884.0" y="-110.0"/>
      <point x="810.0" y="-35.0"/>
      <point x="719.0" y="-35.0" type="curve" smooth="yes"/>
      <point x="662.0" y="-35.0"/>
      <point x="583.0" y="-66.0"/>
      <point x="583.0" y="-121.0" type="curve" smooth="yes"/>
      <point x="583.0" y="-154.0"/>
      <point x="612.0" y="-194.0"/>
      <point x="612.0" y="-238.0" type="curve" smooth="yes"/>
      <point x="612.0" y="-288.0"/>
      <point x="572.0" y="-330.0"/>
      <point x="519.0" y="-330.0" type="curve" smooth="yes"/>
      <point x="469.0" y="-330.0"/>
      <point x="433.0" y="-290.0"/>
      <point x="433.0" y="-233.0" type="curve" smooth="yes"/>
      <point x="433.0" y="-136.0"/>
      <point x="535.0" y="-64.0"/>
      <point x="658.0" y="-18.0" type="curve"/>
    </contour>
  </outline>
</glyph>
<glyph name="R" format="2">
  <advance width="1351.0"/>
  <unicode hex="0052"/>
  <anchor x="717.0" y="0.0" name="bottom"/>
  <anchor x="711.0" y="1760.0" name="top"/>
  <outline>
    <contour>
      <point x="392.0" y="722.0" type="line"/>
      <point x="854.0" y="722.0" type="line"/>
      <point x="1256.0" y="92.0" type="line" smooth="yes"/>
      <point x="1294.0" y="33.0"/>
      <point x="1322.0" y="18.0"/>
      <point x="1393.0" y="18.0" type="curve" smooth="yes"/>
      <point x="1423.0" y="18.0" type="line"/>
      <point x="1423.0" y="0.0" type="line"/>
      <point x="1197.0" y="0.0" type="line" smooth="yes"/>
      <point x="1126.0" y="0.0"/>
      <point x="1100.0" y="15.0"/>
      <point x="1063.0" y="75.0" type="curve" smooth="yes"/>
      <point x="726.0" y="618.0" type="line" smooth="yes"/>
      <point x="684.0" y="684.0"/>
      <point x="673.0" y="693.0"/>
      <point x="601.0" y="693.0" type="curve" smooth="yes"/>
      <point x="392.0" y="693.0" type="line"/>
    </contour>
    <contour>
      <point x="268.0" y="35.0" type="line"/>
      <point x="268.0" y="1483.0" type="line"/>
      <point x="88.0" y="1500.0" type="line"/>
      <point x="88.0" y="1518.0" type="line"/>
      <point x="438.0" y="1518.0" type="line"/>
      <point x="438.0" y="35.0" type="line"/>
      <point x="629.0" y="18.0" type="line"/>
      <point x="629.0" y="0.0" type="line"/>
      <point x="88.0" y="0.0" type="line"/>
      <point x="88.0" y="18.0" type="line"/>
    </contour>
    <contour>
      <point x="363.0" y="1518.0" type="line"/>
      <point x="645.0" y="1518.0" type="line" smooth="yes"/>
      <point x="990.0" y="1518.0"/>
      <point x="1177.0" y="1375.0"/>
      <point x="1177.0" y="1111.0" type="curve" smooth="yes"/>
      <point x="1177.0" y="847.0"/>
      <point x="988.0" y="700.0"/>
      <point x="645.0" y="700.0" type="curve" smooth="yes"/>
      <point x="363.0" y="700.0" type="line"/>
      <point x="363.0" y="726.0" type="line"/>
      <point x="638.0" y="726.0" type="line" smooth="yes"/>
      <point x="873.0" y="726.0"/>
      <point x="983.0" y="849.0"/>
      <point x="983.0" y="1107.0" type="curve" smooth="yes"/>
      <point x="983.0" y="1366.0"/>
      <point x="871.0" y="1492.0"/>
      <point x="638.0" y="1492.0" type="curve" smooth="yes"/>
      <point x="363.0" y="1492.0" type="line"/>
    </contour>
  </outline>
</glyph>
<glyph name="S" format="2">
  <advance width="1212.0"/>
  <unicode hex="0053"/>
  <anchor x="607.0" y="0.0" name="bottom"/>
  <anchor x="612.0" y="1760.0" name="top"/>
  <outline>
    <contour>
      <point x="607.0" y="-35.0" type="curve" smooth="yes"/>
      <point x="471.0" y="-35.0"/>
      <point x="334.0" y="9.0"/>
      <point x="242.0" y="86.0" type="curve"/>
      <point x="196.0" y="-35.0" type="line"/>
      <point x="167.0" y="-35.0" type="line"/>
      <point x="139.0" y="491.0" type="line"/>
      <point x="158.0" y="495.0" type="line"/>
      <point x="202.0" y="297.0"/>
      <point x="242.0" y="198.0"/>
      <point x="315.0" y="117.0" type="curve" smooth="yes"/>
      <point x="389.0" y="33.0"/>
      <point x="486.0" y="-9.0"/>
      <point x="612.0" y="-9.0" type="curve" smooth="yes"/>
      <point x="825.0" y="-9.0"/>
      <point x="948.0" y="110.0"/>
      <point x="948.0" y="297.0" type="curve" smooth="yes"/>
      <point x="948.0" y="506.0"/>
      <point x="790.0" y="585.0"/>
      <point x="543.0" y="693.0" type="curve" smooth="yes"/>
      <point x="350.0" y="777.0"/>
      <point x="152.0" y="880.0"/>
      <point x="152.0" y="1133.0" type="curve" smooth="yes"/>
      <point x="152.0" y="1377.0"/>
      <point x="341.0" y="1553.0"/>
      <point x="603.0" y="1553.0" type="curve" smooth="yes"/>
      <point x="722.0" y="1553.0"/>
      <point x="818.0" y="1516.0"/>
      <point x="939.0" y="1421.0" type="curve"/>
      <point x="992.0" y="1527.0" type="line"/>
      <point x="1021.0" y="1527.0" type="line"/>
      <point x="1043.0" y="1047.0" type="line"/>
      <point x="1021.0" y="1041.0" type="line"/>
      <point x="994.0" y="1148.0"/>
      <point x="961.0" y="1236.0"/>
      <point x="931.0" y="1300.0" type="curve" smooth="yes"/>
      <point x="862.0" y="1441.0"/>
      <point x="752.0" y="1527.0"/>
      <point x="594.0" y="1527.0" type="curve" smooth="yes"/>
      <point x="411.0" y="1527.0"/>
      <point x="295.0" y="1415.0"/>
      <point x="295.0" y="1236.0" type="curve" smooth="yes"/>
      <point x="295.0" y="1036.0"/>
      <point x="442.0" y="957.0"/>
      <point x="693.0" y="843.0" type="curve" smooth="yes"/>
      <point x="911.0" y="744.0"/>
      <point x="1085.0" y="649.0"/>
      <point x="1085.0" y="407.0" type="curve" smooth="yes"/>
      <point x="1085.0" y="150.0"/>
      <point x="884.0" y="-35.0"/>
    </contour>
  </outline>
</glyph>
<glyph name="T" format="2">
  <advance width="1463.0"/>
  <unicode hex="0054"/>
  <anchor x="722.0" y="0.0" name="bottom"/>
  <anchor x="717.0" y="1760.0" name="top"/>
  <outline>
    <contour>
      <point x="345.0" y="1494.0" type="line" smooth="yes"/>
      <point x="275.0" y="1494.0"/>
      <point x="251.0" y="1476.0"/>
      <point x="222.0" y="1410.0" type="curve" smooth="yes"/>
      <point x="70.0" y="1071.0" type="line"/>
      <point x="53.0" y="1076.0" type="line"/>
      <point x="139.0" y="1553.0" type="line"/>
      <point x="152.0" y="1553.0" type="line"/>
      <point x="218.0" y="1525.0"/>
      <point x="251.0" y="1518.0"/>
      <point x="321.0" y="1518.0" type="curve" smooth="yes"/>
      <point x="1168.0" y="1518.0" type="line" smooth="yes"/>
      <point x="1239.0" y="1518.0"/>
      <point x="1272.0" y="1525.0"/>
      <point x="1338.0" y="1553.0" type="curve"/>
      <point x="1351.0" y="1553.0" type="line"/>
      <point x="1399.0" y="1076.0" type="line"/>
      <point x="1382.0" y="1071.0" type="line"/>
      <point x="1245.0" y="1410.0" type="line" smooth="yes"/>
      <point x="1219.0" y="1476.0"/>
      <point x="1197.0" y="1494.0"/>
      <point x="1126.0" y="1494.0" type="curve" smooth="yes"/>
      <point x="805.0" y="1494.0" type="line"/>
      <point x="805.0" y="35.0" type="line"/>
      <point x="1043.0" y="18.0" type="line"/>
      <point x="1043.0" y="0.0" type="line"/>
      <point x="398.0" y="0.0" type="line"/>
      <point x="398.0" y="18.0" type="line"/>
      <point x="636.0" y="35.0" type="line"/>
      <point x="636.0" y="1494.0" type="line"/>
    </contour>
  </outline>
</glyph>
<glyph name="U" format="2">
  <advance width="1463.0"/>
  <unicode hex="0055"/>
  <anchor x="752.0" y="1760.0" name="top"/>
  <outline>
    <contour>
      <point x="1179.0" y="528.0" type="line"/>
      <point x="1179.0" y="350.0"/>
      <point x="1157.0" y="251.0"/>
      <point x="1102.0" y="169.0" type="curve" smooth="yes"/>
      <point x="1027.0" y="62.0"/>
      <point x="900.0" y="0.0"/>
      <point x="752.0" y="0.0" type="curve" smooth="yes"/>
      <point x="673.0" y="0.0"/>
      <point x="596.0" y="18.0"/>
      <point x="546.0" y="48.0" type="curve" smooth="yes"/>
      <point x="453.0" y="103.0"/>
      <point x="416.0" y="209.0"/>
      <point x="416.0" y="422.0" type="curve" smooth="yes"/>
      <point x="416.0" y="1483.0" type="line"/>
      <point x="607.0" y="1500.0" type="line"/>
      <point x="607.0" y="1518.0" type="line"/>
      <point x="66.0" y="1518.0" type="line"/>
      <point x="66.0" y="1500.0" type="line"/>
      <point x="246.0" y="1483.0" type="line"/>
      <point x="246.0" y="495.0" type="line" smooth="yes"/>
      <point x="246.0" y="277.0"/>
      <point x="282.0" y="167.0"/>
      <point x="372.0" y="88.0" type="curve" smooth="yes"/>
      <point x="460.0" y="11.0"/>
      <point x="603.0" y="-35.0"/>
      <point x="737.0" y="-35.0" type="curve" smooth="yes"/>
      <point x="904.0" y="-35.0"/>
      <point x="1049.0" y="35.0"/>
      <point x="1129.0" y="150.0" type="curve" smooth="yes"/>
      <point x="1188.0" y="238.0"/>
      <point x="1214.0" y="354.0"/>
      <point x="1214.0" y="539.0" type="curve" smooth="yes"/>
      <point x="1214.0" y="1384.0" type="line" smooth="yes"/>
      <point x="1214.0" y="1454.0"/>
      <point x="1228.0" y="1474.0"/>
      <point x="1280.0" y="1483.0" type="curve" smooth="yes"/>
      <point x="1439.0" y="1500.0" type="line"/>
      <point x="1439.0" y="1518.0" type="line"/>
      <point x="957.0" y="1518.0" type="line"/>
      <point x="957.0" y="1500.0" type="line"/>
      <point x="1113.0" y="1483.0" type="line" smooth="yes"/>
      <point x="1166.0" y="1474.0"/>
      <point x="1179.0" y="1454.0"/>
      <point x="1179.0" y="1384.0" type="curve" smooth="yes"/>
    </contour>
  </outline>
</glyph>
<glyph name="V" format="2">
  <advance width="1448.0"/>
  <unicode hex="0056"/>
  <outline>
    <contour>
      <point x="1056.0" y="1500.0" type="line"/>
      <point x="1056.0" y="1518.0" type="line"/>
      <point x="1525.0" y="1518.0" type="line"/>
      <point x="1525.0" y="1500.0" type="line"/>
      <point x="1401.0" y="1489.0" type="line" smooth="yes"/>
      <point x="1327.0" y="1483.0"/>
      <point x="1307.0" y="1467.0"/>
      <point x="1283.0" y="1401.0" type="curve" smooth="yes"/>
      <point x="744.0" y="-35.0" type="line"/>
      <point x="704.0" y="-35.0" type="line"/>
      <point x="147.0" y="1483.0" type="line"/>
      <point x="-33.0" y="1500.0" type="line"/>
      <point x="-33.0" y="1518.0" type="line"/>
      <point x="517.0" y="1518.0" type="line"/>
      <point x="517.0" y="1500.0" type="line"/>
      <point x="326.0" y="1483.0" type="line"/>
      <point x="792.0" y="209.0" type="line"/>
      <point x="801.0" y="209.0" type="line"/>
      <point x="1247.0" y="1401.0" type="line" smooth="yes"/>
      <point x="1256.0" y="1423.0"/>
      <point x="1256.0" y="1432.0"/>
      <point x="1256.0" y="1443.0" type="curve" smooth="yes"/>
      <point x="1256.0" y="1472.0"/>
      <point x="1239.0" y="1485.0"/>
      <point x="1190.0" y="1489.0" type="curve" smooth="yes"/>
    </contour>
  </outline>
</glyph>
<glyph name="W" format="2">
  <advance width="2079.0"/>
  <unicode hex="0057"/>
  <anchor x="1005.0" y="1760.0" name="top"/>
  <outline>
    <contour>
      <point x="1091.0" y="1243.0" type="line"/>
      <point x="702.0" y="-35.0" type="line"/>
      <point x="667.0" y="-35.0" type="line"/>
      <point x="132.0" y="1483.0" type="line"/>
      <point x="-48.0" y="1500.0" type="line"/>
      <point x="-48.0" y="1518.0" type="line"/>
      <point x="502.0" y="1518.0" type="line"/>
      <point x="502.0" y="1500.0" type="line"/>
      <point x="310.0" y="1483.0" type="line"/>
      <point x="744.0" y="246.0" type="line"/>
      <point x="752.0" y="246.0" type="line"/>
      <point x="1056.0" y="1243.0" type="line"/>
    </contour>
    <contour>
      <point x="1668.0" y="1500.0" type="line"/>
      <point x="1668.0" y="1518.0" type="line"/>
      <point x="2136.0" y="1518.0" type="line"/>
      <point x="2136.0" y="1500.0" type="line"/>
      <point x="2013.0" y="1489.0" type="line" smooth="yes"/>
      <point x="1934.0" y="1483.0"/>
      <point x="1914.0" y="1467.0"/>
      <point x="1894.0" y="1401.0" type="curve" smooth="yes"/>
      <point x="1456.0" y="-35.0" type="line"/>
      <point x="1421.0" y="-35.0" type="line"/>
      <point x="887.0" y="1483.0" type="line"/>
      <point x="706.0" y="1500.0" type="line"/>
      <point x="706.0" y="1518.0" type="line"/>
      <point x="1256.0" y="1518.0" type="line"/>
      <point x="1256.0" y="1500.0" type="line"/>
      <point x="1065.0" y="1483.0" type="line"/>
      <point x="1498.0" y="246.0" type="line"/>
      <point x="1507.0" y="246.0" type="line"/>
      <point x="1859.0" y="1401.0" type="line" smooth="yes"/>
      <point x="1863.0" y="1417.0"/>
      <point x="1866.0" y="1430.0"/>
      <point x="1866.0" y="1443.0" type="curve" smooth="yes"/>
      <point x="1866.0" y="1474.0"/>
      <point x="1852.0" y="1485.0"/>
      <point x="1802.0" y="1489.0" type="curve" smooth="yes"/>
    </contour>
  </outline>
</glyph>
<glyph name="X" format="2">
  <advance width="1573.0"/>
  <unicode hex="0058"/>
  <outline>
    <contour>
      <point x="205.0" y="1483.0" type="line"/>
      <point x="24.0" y="1500.0" type="line"/>
      <point x="24.0" y="1518.0" type="line"/>
      <point x="585.0" y="1518.0" type="line"/>
      <point x="585.0" y="1500.0" type="line"/>
      <point x="394.0" y="1483.0" type="line"/>
      <point x="1390.0" y="35.0" type="line"/>
      <point x="1571.0" y="18.0" type="line"/>
      <point x="1571.0" y="0.0" type="line"/>
      <point x="1010.0" y="0.0" type="line"/>
      <point x="1010.0" y="18.0" type="line"/>
      <point x="1201.0" y="35.0" type="line"/>
    </contour>
    <contour>
      <point x="451.0" y="18.0" type="line"/>
      <point x="451.0" y="0.0" type="line"/>
      <point x="2.0" y="0.0" type="line"/>
      <point x="2.0" y="18.0" type="line"/>
      <point x="114.0" y="26.0" type="line" smooth="yes"/>
      <point x="185.0" y="33.0"/>
      <point x="213.0" y="48.0"/>
      <point x="255.0" y="106.0" type="curve" smooth="yes"/>
      <point x="730.0" y="748.0" type="line"/>
      <point x="766.0" y="748.0" type="line"/>
      <point x="290.0" y="106.0" type="line" smooth="yes"/>
      <point x="273.0" y="81.0"/>
      <point x="264.0" y="66.0"/>
      <point x="264.0" y="55.0" type="curve" smooth="yes"/>
      <point x="264.0" y="40.0"/>
      <point x="284.0" y="33.0"/>
      <point x="326.0" y="29.0" type="curve"/>
    </contour>
    <contour>
      <point x="1100.0" y="1500.0" type="line"/>
      <point x="1100.0" y="1518.0" type="line"/>
      <point x="1549.0" y="1518.0" type="line"/>
      <point x="1549.0" y="1500.0" type="line"/>
      <point x="1437.0" y="1492.0" type="line" smooth="yes"/>
      <point x="1366.0" y="1485.0"/>
      <point x="1338.0" y="1470.0"/>
      <point x="1296.0" y="1412.0" type="curve" smooth="yes"/>
      <point x="821.0" y="770.0" type="line"/>
      <point x="785.0" y="770.0" type="line"/>
      <point x="1261.0" y="1412.0" type="line" smooth="yes"/>
      <point x="1278.0" y="1437.0"/>
      <point x="1287.0" y="1452.0"/>
      <point x="1287.0" y="1463.0" type="curve" smooth="yes"/>
      <point x="1287.0" y="1478.0"/>
      <point x="1267.0" y="1485.0"/>
      <point x="1225.0" y="1489.0" type="curve"/>
    </contour>
  </outline>
</glyph>
<glyph name="Y" format="2">
  <advance width="1346.0"/>
  <unicode hex="0059"/>
  <anchor x="689.0" y="1760.0" name="top"/>
  <outline>
    <contour>
      <point x="926.0" y="1500.0" type="line"/>
      <point x="926.0" y="1518.0" type="line"/>
      <point x="1395.0" y="1518.0" type="line"/>
      <point x="1395.0" y="1500.0" type="line"/>
      <point x="1272.0" y="1489.0" type="line" smooth="yes"/>
      <point x="1197.0" y="1483.0"/>
      <point x="1184.0" y="1465.0"/>
      <point x="1153.0" y="1401.0" type="curve" smooth="yes"/>
      <point x="706.0" y="469.0" type="line"/>
      <point x="667.0" y="469.0" type="line"/>
      <point x="123.0" y="1483.0" type="line"/>
      <point x="-57.0" y="1500.0" type="line"/>
      <point x="-57.0" y="1518.0" type="line"/>
      <point x="491.0" y="1518.0" type="line"/>
      <point x="491.0" y="1500.0" type="line"/>
      <point x="299.0" y="1483.0" type="line"/>
      <point x="746.0" y="649.0" type="line"/>
      <point x="757.0" y="649.0" type="line"/>
      <point x="1118.0" y="1401.0" type="line" smooth="yes"/>
      <point x="1126.0" y="1421.0"/>
      <point x="1126.0" y="1432.0"/>
      <point x="1126.0" y="1443.0" type="curve" smooth="yes"/>
      <point x="1126.0" y="1472.0"/>
      <point x="1109.0" y="1485.0"/>
      <point x="1060.0" y="1489.0" type="curve" smooth="yes"/>
    </contour>
    <contour>
      <point x="770.0" y="616.0" type="line"/>
      <point x="770.0" y="35.0" type="line"/>
      <point x="961.0" y="18.0" type="line"/>
      <point x="961.0" y="0.0" type="line"/>
      <point x="409.0" y="0.0" type="line"/>
      <point x="409.0" y="18.0" type="line"/>
      <point x="601.0" y="35.0" type="line"/>
      <point x="601.0" y="616.0" type="line"/>
    </contour>
  </outline>
</glyph>
<glyph name="Z" format="2">
  <advance width="1291.0"/>
  <unicode hex="005A"/>
  <anchor x="640.0" y="0.0" name="bottom"/>
  <anchor x="675.0" y="1760.0" name="top"/>
  <outline>
    <contour>
      <point x="977.0" y="1492.0" type="line"/>
      <point x="447.0" y="1492.0" type="line" smooth="yes"/>
      <point x="376.0" y="1492.0"/>
      <point x="350.0" y="1476.0"/>
      <point x="319.0" y="1412.0" type="curve" smooth="yes"/>
      <point x="152.0" y="1080.0" type="line"/>
      <point x="121.0" y="1085.0" type="line"/>
      <point x="211.0" y="1518.0" type="line"/>
      <point x="1175.0" y="1518.0" type="line"/>
      <point x="1175.0" y="1500.0" type="line"/>
      <point x="275.0" y="35.0" type="line"/>
      <point x="275.0" y="26.0" type="line"/>
      <point x="878.0" y="26.0" type="line" smooth="yes"/>
      <point x="948.0" y="26.0"/>
      <point x="972.0" y="42.0"/>
      <point x="1001.0" y="108.0" type="curve" smooth="yes"/>
      <point x="1159.0" y="477.0" type="line"/>
      <point x="1190.0" y="473.0" type="line"/>
      <point x="1109.0" y="0.0" type="line"/>
      <point x="77.0" y="0.0" type="line"/>
      <point x="77.0" y="18.0" type="line"/>
      <point x="977.0" y="1483.0" type="line"/>
    </contour>
  </outline>
</glyph>
<glyph name="bracketleft" format="2">
  <advance width="673.0"/>
  <unicode hex="005B"/>
  <outline>
    <contour>
      <point x="202.0" y="-367.0" type="line"/>
      <point x="202.0" y="1615.0" type="line"/>
      <point x="618.0" y="1615.0" type="line"/>
      <point x="618.0" y="1580.0" type="line"/>
      <point x="348.0" y="1580.0" type="line"/>
      <point x="348.0" y="-332.0" type="line"/>
      <point x="618.0" y="-332.0" type="line"/>
      <point x="618.0" y="-367.0" type="line"/>
    </contour>
  </outline>
</glyph>
<glyph name="bracketright" format="2">
  <advance width="673.0"/>
  <unicode hex="005D"/>
  <outline>
    <contour>
      <point x="55.0" y="-367.0" type="line"/>
      <point x="55.0" y="-332.0" type="line"/>
      <point x="326.0" y="-332.0" type="line"/>
      <point x="326.0" y="1580.0" type="line"/>
      <point x="55.0" y="1580.0" type="line"/>
      <point x="55.0" y="1615.0" type="line"/>
      <point x="471.0" y="1615.0" type="line"/>
      <point x="471.0" y="-367.0" type="line"/>
    </contour>
  </outline>
</glyph>
<glyph name="asciicircum" format="2">
  <advance width="801.0"/>
  <unicode hex="005E"/>
  <outline>
    <contour>
      <point x="469.0" y="825.0" type="line" smooth="yes"/>
      <point x="455.0" y="851.0"/>
      <point x="438.0" y="871.0"/>
      <point x="400.0" y="871.0" type="curve" smooth="yes"/>
      <point x="367.0" y="871.0"/>
      <point x="345.0" y="856.0"/>
      <point x="332.0" y="825.0" type="curve" smooth="yes"/>
      <point x="145.0" y="416.0" type="line"/>
      <point x="152.0" y="414.0" type="line"/>
      <point x="400.0" y="735.0" type="line"/>
      <point x="649.0" y="414.0" type="line"/>
      <point x="656.0" y="416.0" type="line"/>
    </contour>
  </outline>
</glyph>
<glyph name="underscore" format="2">
  <advance width="871.0"/>
  <unicode hex="005F"/>
  <outline>
    <contour>
      <point x="130.0" y="-33.0" type="line"/>
      <point x="746.0" y="-33.0" type="line"/>
      <point x="730.0" y="-81.0" type="line"/>
      <point x="114.0" y="-81.0" type="line"/>
    </contour>
  </outline>
</glyph>
<glyph name="grave" format="2">
  <advance width="427.0"/>
  <unicode hex="0060"/>
  <anchor x="213.0" y="1166.0" name="_top"/>
  <outline>
    <contour>
      <point x="229.0" y="1474.0" type="line"/>
      <point x="218.0" y="1507.0"/>
      <point x="194.0" y="1520.0"/>
      <point x="161.0" y="1520.0" type="curve" smooth="yes"/>
      <point x="121.0" y="1520.0"/>
      <point x="99.0" y="1489.0"/>
      <point x="99.0" y="1452.0" type="curve" smooth="yes"/>
      <point x="99.0" y="1423.0"/>
      <point x="121.0" y="1404.0"/>
      <point x="178.0" y="1331.0" type="curve" smooth="yes"/>
      <point x="321.0" y="1151.0" type="line"/>
      <point x="328.0" y="1153.0" type="line"/>
    </contour>
  </outline>
</glyph>
<glyph name="a" format="2">
  <advance width="860.0"/>
  <unicode hex="0061"/>
  <anchor x="680.0" y="0.0" name="bottom"/>
  <anchor x="418.0" y="1166.0" name="top"/>
  <outline>
    <contour>
      <point x="286.0" y="-15.0" type="curve" smooth="yes"/>
      <point x="376.0" y="-15.0"/>
      <point x="471.0" y="37.0"/>
      <point x="537.0" y="121.0" type="curve"/>
      <point x="543.0" y="119.0" type="line"/>
      <point x="548.0" y="44.0"/>
      <point x="603.0" y="-7.0"/>
      <point x="680.0" y="-7.0" type="curve" smooth="yes"/>
      <point x="748.0" y="-7.0"/>
      <point x="810.0" y="35.0"/>
      <point x="845.0" y="108.0" type="curve"/>
      <point x="836.0" y="112.0" type="line"/>
      <point x="818.0" y="86.0"/>
      <point x="785.0" y="70.0"/>
      <point x="748.0" y="70.0" type="curve" smooth="yes"/>
      <point x="695.0" y="70.0"/>
      <point x="678.0" y="103.0"/>
      <point x="678.0" y="209.0" type="curve" smooth="yes"/>
      <point x="678.0" y="629.0" type="line" smooth="yes"/>
      <point x="678.0" y="788.0"/>
      <point x="675.0" y="821.0"/>
      <point x="660.0" y="860.0" type="curve" smooth="yes"/>
      <point x="634.0" y="920.0"/>
      <point x="574.0" y="953.0"/>
      <point x="493.0" y="953.0" type="curve" smooth="yes"/>
      <point x="427.0" y="953.0"/>
      <point x="352.0" y="933.0"/>
      <point x="288.0" y="898.0" type="curve" smooth="yes"/>
      <point x="180.0" y="840.0"/>
      <point x="103.0" y="748.0"/>
      <point x="103.0" y="678.0" type="curve" smooth="yes"/>
      <point x="103.0" y="631.0"/>
      <point x="134.0" y="598.0"/>
      <point x="178.0" y="598.0" type="curve" smooth="yes"/>
      <point x="227.0" y="598.0"/>
      <point x="257.0" y="642.0"/>
      <point x="257.0" y="717.0" type="curve" smooth="yes"/>
      <point x="257.0" y="737.0"/>
      <point x="255.0" y="761.0"/>
      <point x="255.0" y="777.0" type="curve" smooth="yes"/>
      <point x="255.0" y="858.0"/>
      <point x="317.0" y="911.0"/>
      <point x="407.0" y="911.0" type="curve" smooth="yes"/>
      <point x="502.0" y="911.0"/>
      <point x="535.0" y="854.0"/>
      <point x="535.0" y="684.0" type="curve" smooth="yes"/>
      <point x="535.0" y="484.0" type="line"/>
      <point x="213.0" y="420.0"/>
      <point x="95.0" y="341.0"/>
      <point x="95.0" y="194.0" type="curve" smooth="yes"/>
      <point x="95.0" y="70.0"/>
      <point x="174.0" y="-15.0"/>
    </contour>
    <contour>
      <point x="381.0" y="68.0" type="curve" smooth="yes"/>
      <point x="295.0" y="68.0"/>
      <point x="242.0" y="132.0"/>
      <point x="242.0" y="235.0" type="curve" smooth="yes"/>
      <point x="242.0" y="354.0"/>
      <point x="310.0" y="405.0"/>
      <point x="535.0" y="460.0" type="curve"/>
      <point x="535.0" y="150.0" type="line"/>
      <point x="499.0" y="97.0"/>
      <point x="440.0" y="68.0"/>
    </contour>
  </outline>
</glyph>
<glyph name="b" format="2">
  <advance width="1027.0"/>
  <unicode hex="0062"/>
  <outline>
    <contour>
      <point x="497.0" y="-22.0" type="curve" smooth="yes"/>
      <point x="407.0" y="-22.0"/>
      <point x="321.0" y="7.0"/>
      <point x="251.0" y="59.0" type="curve"/>
      <point x="242.0" y="59.0" type="line"/>
      <point x="176.0" y="0.0" type="line"/>
      <point x="158.0" y="0.0" type="line"/>
      <point x="158.0" y="1437.0" type="line"/>
      <point x="29.0" y="1485.0" type="line"/>
      <point x="29.0" y="1500.0" type="line"/>
      <point x="284.0" y="1586.0" type="line"/>
      <point x="301.0" y="1586.0" type="line"/>
      <point x="301.0" y="829.0" type="line"/>
      <point x="378.0" y="913.0"/>
      <point x="469.0" y="955.0"/>
      <point x="572.0" y="955.0" type="curve" smooth="yes"/>
      <point x="792.0" y="955.0"/>
      <point x="939.0" y="772.0"/>
      <point x="939.0" y="502.0" type="curve" smooth="yes"/>
      <point x="939.0" y="200.0"/>
      <point x="752.0" y="-22.0"/>
    </contour>
    <contour>
      <point x="495.0" y="0.0" type="curve" smooth="yes"/>
      <point x="664.0" y="0.0"/>
      <point x="774.0" y="180.0"/>
      <point x="774.0" y="455.0" type="curve" smooth="yes"/>
      <point x="774.0" y="724.0"/>
      <point x="669.0" y="889.0"/>
      <point x="497.0" y="889.0" type="curve" smooth="yes"/>
      <point x="418.0" y="889.0"/>
      <point x="345.0" y="854.0"/>
      <point x="301.0" y="796.0" type="curve"/>
      <point x="301.0" y="222.0" type="line" smooth="yes"/>
      <point x="301.0" y="88.0"/>
      <point x="378.0" y="0.0"/>
    </contour>
  </outline>
</glyph>
<glyph name="c" format="2">
  <advance width="893.0"/>
  <unicode hex="0063"/>
  <anchor x="493.0" y="0.0" name="bottom"/>
  <anchor x="508.0" y="1166.0" name="top"/>
  <outline>
    <contour>
      <point x="524.0" y="955.0" type="curve" smooth="yes"/>
      <point x="686.0" y="955.0"/>
      <point x="816.0" y="871.0"/>
      <point x="816.0" y="763.0" type="curve" smooth="yes"/>
      <point x="816.0" y="713.0"/>
      <point x="785.0" y="680.0"/>
      <point x="735.0" y="680.0" type="curve" smooth="yes"/>
      <point x="594.0" y="680.0"/>
      <point x="700.0" y="933.0"/>
      <point x="515.0" y="933.0" type="curve" smooth="yes"/>
      <point x="354.0" y="933.0"/>
      <point x="235.0" y="746.0"/>
      <point x="235.0" y="488.0" type="curve" smooth="yes"/>
      <point x="235.0" y="233.0"/>
      <point x="350.0" y="86.0"/>
      <point x="548.0" y="86.0" type="curve" smooth="yes"/>
      <point x="658.0" y="86.0"/>
      <point x="741.0" y="130.0"/>
      <point x="814.0" y="224.0" type="curve" smooth="yes"/>
      <point x="834.0" y="251.0" type="line"/>
      <point x="843.0" y="246.0" type="line"/>
      <point x="834.0" y="222.0" type="line" smooth="yes"/>
      <point x="777.0" y="68.0"/>
      <point x="651.0" y="-22.0"/>
      <point x="491.0" y="-22.0" type="curve" smooth="yes"/>
      <point x="255.0" y="-22.0"/>
      <point x="88.0" y="176.0"/>
      <point x="88.0" y="455.0" type="curve" smooth="yes"/>
      <point x="88.0" y="746.0"/>
      <point x="268.0" y="955.0"/>
    </contour>
  </outline>
</glyph>
<glyph name="d" format="2">
  <advance width="1038.0"/>
  <unicode hex="0064"/>
  <anchor x="453.0" y="0.0" name="bottom"/>
  <outline>
    <contour>
      <point x="453.0" y="-22.0" type="curve" smooth="yes"/>
      <point x="244.0" y="-22.0"/>
      <point x="88.0" y="178.0"/>
      <point x="88.0" y="449.0" type="curve" smooth="yes"/>
      <point x="88.0" y="748.0"/>
      <point x="277.0" y="955.0"/>
      <point x="554.0" y="955.0" type="curve" smooth="yes"/>
      <point x="612.0" y="955.0"/>
      <point x="669.0" y="946.0"/>
      <point x="726.0" y="928.0" type="curve"/>
      <point x="726.0" y="1437.0" type="line"/>
      <point x="596.0" y="1485.0" type="line"/>
      <point x="596.0" y="1500.0" type="line"/>
      <point x="851.0" y="1586.0" type="line"/>
      <point x="869.0" y="1586.0" type="line"/>
      <point x="869.0" y="136.0" type="line"/>
      <point x="990.0" y="110.0" type="line"/>
      <point x="990.0" y="99.0" type="line"/>
      <point x="750.0" y="-11.0" type="line"/>
      <point x="737.0" y="-11.0" type="line"/>
      <point x="737.0" y="139.0" type="line"/>
      <point x="730.0" y="141.0" type="line"/>
      <point x="662.0" y="35.0"/>
      <point x="565.0" y="-22.0"/>
    </contour>
    <contour>
      <point x="530.0" y="66.0" type="curve" smooth="yes"/>
      <point x="614.0" y="66.0"/>
      <point x="689.0" y="103.0"/>
      <point x="726.0" y="169.0" type="curve"/>
      <point x="726.0" y="733.0" type="line" smooth="yes"/>
      <point x="726.0" y="862.0"/>
      <point x="664.0" y="933.0"/>
      <point x="552.0" y="933.0" type="curve" smooth="yes"/>
      <point x="365.0" y="933.0"/>
      <point x="244.0" y="750.0"/>
      <point x="244.0" y="480.0" type="curve" smooth="yes"/>
      <point x="244.0" y="224.0"/>
      <point x="350.0" y="66.0"/>
    </contour>
  </outline>
</glyph>
<glyph name="e" format="2">
  <advance width="931.0"/>
  <unicode hex="0065"/>
  <anchor x="497.0" y="0.0" name="bottom"/>
  <anchor x="510.0" y="1166.0" name="top"/>
  <outline>
    <contour>
      <point x="851.0" y="598.0" type="line"/>
      <point x="847.0" y="832.0"/>
      <point x="735.0" y="955.0"/>
      <point x="530.0" y="955.0" type="curve" smooth="yes"/>
      <point x="266.0" y="955.0"/>
      <point x="88.0" y="755.0"/>
      <point x="88.0" y="464.0" type="curve" smooth="yes"/>
      <point x="88.0" y="176.0"/>
      <point x="253.0" y="-22.0"/>
      <point x="495.0" y="-22.0" type="curve" smooth="yes"/>
      <point x="656.0" y="-22.0"/>
      <point x="777.0" y="66.0"/>
      <point x="834.0" y="222.0" type="curve" smooth="yes"/>
      <point x="843.0" y="246.0" type="line"/>
      <point x="834.0" y="251.0" type="line"/>
      <point x="814.0" y="224.0" type="line" smooth="yes"/>
      <point x="741.0" y="132.0"/>
      <point x="645.0" y="88.0"/>
      <point x="548.0" y="88.0" type="curve" smooth="yes"/>
      <point x="356.0" y="88.0"/>
      <point x="240.0" y="224.0"/>
      <point x="240.0" y="497.0" type="curve" smooth="yes"/>
      <point x="240.0" y="752.0"/>
      <point x="341.0" y="931.0"/>
      <point x="506.0" y="931.0" type="curve" smooth="yes"/>
      <point x="607.0" y="931.0"/>
      <point x="680.0" y="882.0"/>
      <point x="680.0" y="715.0" type="curve" smooth="yes"/>
      <point x="680.0" y="682.0"/>
      <point x="678.0" y="645.0"/>
      <point x="673.0" y="627.0" type="curve"/>
      <point x="227.0" y="612.0" type="line"/>
      <point x="227.0" y="587.0" type="line"/>
      <point x="838.0" y="587.0" type="line"/>
    </contour>
  </outline>
</glyph>
<glyph name="f" format="2">
  <advance width="579.0"/>
  <unicode hex="0066"/>
  <outline>
    <contour>
      <point x="330.0" y="40.0" type="line"/>
      <point x="521.0" y="18.0" type="line"/>
      <point x="521.0" y="0.0" type="line"/>
      <point x="53.0" y="0.0" type="line"/>
      <point x="53.0" y="18.0" type="line"/>
      <point x="187.0" y="35.0" type="line"/>
      <point x="187.0" y="1060.0" type="line" smooth="yes"/>
      <point x="187.0" y="1272.0"/>
      <point x="191.0" y="1333.0"/>
      <point x="213.0" y="1390.0" type="curve" smooth="yes"/>
      <point x="264.0" y="1520.0"/>
      <point x="400.0" y="1613.0"/>
      <point x="543.0" y="1613.0" type="curve" smooth="yes"/>
      <point x="658.0" y="1613.0"/>
      <point x="757.0" y="1553.0"/>
      <point x="757.0" y="1483.0" type="curve" smooth="yes"/>
      <point x="757.0" y="1439.0"/>
      <point x="719.0" y="1404.0"/>
      <point x="675.0" y="1404.0" type="curve" smooth="yes"/>
      <point x="627.0" y="1404.0"/>
      <point x="601.0" y="1432.0"/>
      <point x="590.0" y="1494.0" type="curve" smooth="yes"/>
      <point x="572.0" y="1566.0"/>
      <point x="554.0" y="1584.0"/>
      <point x="506.0" y="1584.0" type="curve" smooth="yes"/>
      <point x="442.0" y="1584.0"/>
      <point x="392.0" y="1544.0"/>
      <point x="361.0" y="1470.0" type="curve" smooth="yes"/>
      <point x="337.0" y="1408.0"/>
      <point x="330.0" y="1342.0"/>
      <point x="330.0" y="1181.0" type="curve" smooth="yes"/>
    </contour>
    <contour>
      <point x="51.0" y="933.0" type="line"/>
      <point x="535.0" y="933.0" type="line"/>
      <point x="524.0" y="898.0" type="line"/>
      <point x="40.0" y="898.0" type="line"/>
    </contour>
  </outline>
</glyph>
<glyph name="g" format="2">
  <advance width="887.0"/>
  <unicode hex="0067"/>
  <anchor x="449.0" y="1166.0" name="top"/>
  <outline>
    <contour>
      <point x="449.0" y="312.0" type="curve" smooth="yes"/>
      <point x="653.0" y="312.0"/>
      <point x="799.0" y="447.0"/>
      <point x="799.0" y="634.0" type="curve" smooth="yes"/>
      <point x="799.0" y="821.0"/>
      <point x="653.0" y="955.0"/>
      <point x="449.0" y="955.0" type="curve" smooth="yes"/>
      <point x="244.0" y="955.0"/>
      <point x="99.0" y="823.0"/>
      <point x="99.0" y="636.0" type="curve" smooth="yes"/>
      <point x="99.0" y="447.0"/>
      <point x="244.0" y="312.0"/>
    </contour>
    <contour>
      <point x="449.0" y="334.0" type="curve" smooth="yes"/>
      <point x="339.0" y="334.0"/>
      <point x="262.0" y="458.0"/>
      <point x="262.0" y="634.0" type="curve" smooth="yes"/>
      <point x="262.0" y="810.0"/>
      <point x="339.0" y="933.0"/>
      <point x="449.0" y="933.0" type="curve" smooth="yes"/>
      <point x="559.0" y="933.0"/>
      <point x="636.0" y="810.0"/>
      <point x="636.0" y="634.0" type="curve" smooth="yes"/>
      <point x="636.0" y="458.0"/>
      <point x="559.0" y="334.0"/>
    </contour>
    <contour>
      <point x="678.0" y="865.0" type="line"/>
      <point x="691.0" y="937.0"/>
      <point x="711.0" y="970.0"/>
      <point x="744.0" y="970.0" type="curve" smooth="yes"/>
      <point x="781.0" y="970.0"/>
      <point x="803.0" y="926.0"/>
      <point x="847.0" y="926.0" type="curve" smooth="yes"/>
      <point x="889.0" y="926.0"/>
      <point x="922.0" y="959.0"/>
      <point x="922.0" y="1001.0" type="curve" smooth="yes"/>
      <point x="922.0" y="1052.0"/>
      <point x="887.0" y="1085.0"/>
      <point x="832.0" y="1085.0" type="curve" smooth="yes"/>
      <point x="752.0" y="1085.0"/>
      <point x="693.0" y="1014.0"/>
      <point x="658.0" y="880.0" type="curve"/>
    </contour>
    <contour>
      <point x="407.0" y="-541.0" type="curve" smooth="yes"/>
      <point x="660.0" y="-541.0"/>
      <point x="849.0" y="-407.0"/>
      <point x="849.0" y="-229.0" type="curve" smooth="yes"/>
      <point x="849.0" y="-75.0"/>
      <point x="755.0" y="4.0"/>
      <point x="504.0" y="51.0" type="curve" smooth="yes"/>
      <point x="282.0" y="92.0"/>
      <point x="244.0" y="121.0"/>
      <point x="244.0" y="180.0" type="curve" smooth="yes"/>
      <point x="244.0" y="246.0"/>
      <point x="350.0" y="299.0"/>
      <point x="537.0" y="321.0" type="curve"/>
      <point x="438.0" y="321.0" type="line"/>
      <point x="229.0" y="282.0"/>
      <point x="119.0" y="207.0"/>
      <point x="119.0" y="121.0" type="curve" smooth="yes"/>
      <point x="119.0" y="29.0"/>
      <point x="191.0" y="-40.0"/>
      <point x="438.0" y="-88.0" type="curve" smooth="yes"/>
      <point x="662.0" y="-132.0"/>
      <point x="722.0" y="-185.0"/>
      <point x="722.0" y="-295.0" type="curve" smooth="yes"/>
      <point x="722.0" y="-431.0"/>
      <point x="605.0" y="-519.0"/>
      <point x="420.0" y="-519.0" type="curve" smooth="yes"/>
      <point x="235.0" y="-519.0"/>
      <point x="130.0" y="-431.0"/>
      <point x="130.0" y="-275.0" type="curve" smooth="yes"/>
      <point x="130.0" y="-154.0"/>
      <point x="187.0" y="-77.0"/>
      <point x="306.0" y="-42.0" type="curve"/>
      <point x="306.0" y="-29.0" type="line"/>
      <point x="134.0" y="-70.0"/>
      <point x="24.0" y="-176.0"/>
      <point x="24.0" y="-295.0" type="curve" smooth="yes"/>
      <point x="24.0" y="-451.0"/>
      <point x="165.0" y="-541.0"/>
    </contour>
  </outline>
</glyph>
<glyph name="h" format="2">
  <advance width="997.0"/>
  <unicode hex="0068"/>
  <anchor x="504.0" y="0.0" name="bottom"/>
  <outline>
    <contour>
      <point x="451.0" y="18.0" type="line"/>
      <point x="451.0" y="0.0" type="line"/>
      <point x="40.0" y="0.0" type="line"/>
      <point x="40.0" y="18.0" type="line"/>
      <point x="174.0" y="35.0" type="line"/>
      <point x="174.0" y="1437.0" type="line"/>
      <point x="44.0" y="1485.0" type="line"/>
      <point x="44.0" y="1500.0" type="line"/>
      <point x="299.0" y="1586.0" type="line"/>
      <point x="317.0" y="1586.0" type="line"/>
      <point x="317.0" y="35.0" type="line"/>
    </contour>
    <contour>
      <point x="299.0" y="794.0" type="line"/>
      <point x="394.0" y="898.0"/>
      <point x="502.0" y="955.0"/>
      <point x="605.0" y="955.0" type="curve" smooth="yes"/>
      <point x="693.0" y="955.0"/>
      <point x="770.0" y="913.0"/>
      <point x="805.0" y="847.0" type="curve" smooth="yes"/>
      <point x="825.0" y="807.0"/>
      <point x="829.0" y="761.0"/>
      <point x="829.0" y="596.0" type="curve" smooth="yes"/>
      <point x="829.0" y="35.0" type="line"/>
      <point x="964.0" y="18.0" type="line"/>
      <point x="964.0" y="0.0" type="line"/>
      <point x="552.0" y="0.0" type="line"/>
      <point x="552.0" y="18.0" type="line"/>
      <point x="686.0" y="35.0" type="line"/>
      <point x="686.0" y="596.0" type="line" smooth="yes"/>
      <point x="686.0" y="717.0"/>
      <point x="682.0" y="759.0"/>
      <point x="664.0" y="794.0" type="curve" smooth="yes"/>
      <point x="640.0" y="845.0"/>
      <point x="585.0" y="873.0"/>
      <point x="515.0" y="873.0" type="curve" smooth="yes"/>
      <point x="431.0" y="873.0"/>
      <point x="359.0" y="834.0"/>
      <point x="299.0" y="759.0" type="curve"/>
    </contour>
  </outline>
</glyph>
<glyph name="i" format="2">
  <advance width="504.0"/>
  <unicode hex="0069"/>
  <outline>
    <contour>
      <point x="143.0" y="1272.0" type="curve" smooth="yes"/>
      <point x="143.0" y="1212.0"/>
      <point x="185.0" y="1166.0"/>
      <point x="249.0" y="1166.0" type="curve" smooth="yes"/>
      <point x="312.0" y="1166.0"/>
      <point x="354.0" y="1212.0"/>
      <point x="354.0" y="1272.0" type="curve" smooth="yes"/>
      <point x="354.0" y="1331.0"/>
      <point x="312.0" y="1377.0"/>
      <point x="249.0" y="1377.0" type="curve" smooth="yes"/>
      <point x="185.0" y="1377.0"/>
      <point x="143.0" y="1331.0"/>
    </contour>
    <contour>
      <point x="466.0" y="18.0" type="line"/>
      <point x="466.0" y="0.0" type="line"/>
      <point x="55.0" y="0.0" type="line"/>
      <point x="55.0" y="18.0" type="line"/>
      <point x="189.0" y="35.0" type="line"/>
      <point x="189.0" y="805.0" type="line"/>
      <point x="59.0" y="854.0" type="line"/>
      <point x="59.0" y="869.0" type="line"/>
      <point x="315.0" y="955.0" type="line"/>
      <point x="332.0" y="955.0" type="line"/>
      <point x="332.0" y="35.0" type="line"/>
    </contour>
  </outline>
</glyph>
<glyph name="j" format="2">
  <advance width="480.0"/>
  <unicode hex="006A"/>
  <outline>
    <contour>
      <point x="132.0" y="1272.0" type="curve" smooth="yes"/>
      <point x="132.0" y="1210.0"/>
      <point x="176.0" y="1166.0"/>
      <point x="238.0" y="1166.0" type="curve" smooth="yes"/>
      <point x="299.0" y="1166.0"/>
      <point x="343.0" y="1210.0"/>
      <point x="343.0" y="1272.0" type="curve" smooth="yes"/>
      <point x="343.0" y="1333.0"/>
      <point x="299.0" y="1377.0"/>
      <point x="238.0" y="1377.0" type="curve" smooth="yes"/>
      <point x="176.0" y="1377.0"/>
      <point x="132.0" y="1333.0"/>
    </contour>
    <contour>
      <point x="178.0" y="805.0" type="line"/>
      <point x="48.0" y="854.0" type="line"/>
      <point x="48.0" y="869.0" type="line"/>
      <point x="304.0" y="955.0" type="line"/>
      <point x="321.0" y="955.0" type="line"/>
      <point x="321.0" y="88.0" type="line" smooth="yes"/>
      <point x="321.0" y="-200.0"/>
      <point x="312.0" y="-271.0"/>
      <point x="271.0" y="-348.0" type="curve" smooth="yes"/>
      <point x="205.0" y="-471.0"/>
      <point x="95.0" y="-543.0"/>
      <point x="-29.0" y="-543.0" type="curve" smooth="yes"/>
      <point x="-130.0" y="-543.0"/>
      <point x="-198.0" y="-491.0"/>
      <point x="-198.0" y="-416.0" type="curve" smooth="yes"/>
      <point x="-198.0" y="-363.0"/>
      <point x="-163.0" y="-328.0"/>
      <point x="-114.0" y="-328.0" type="curve" smooth="yes"/>
      <point x="-70.0" y="-328.0"/>
      <point x="-44.0" y="-354.0"/>
      <point x="-29.0" y="-414.0" type="curve" smooth="yes"/>
      <point x="-13.0" y="-480.0"/>
      <point x="7.0" y="-502.0"/>
      <point x="53.0" y="-502.0" type="curve" smooth="yes"/>
      <point x="139.0" y="-502.0"/>
      <point x="178.0" y="-414.0"/>
      <point x="178.0" y="-224.0" type="curve" smooth="yes"/>
    </contour>
  </outline>
</glyph>
<glyph name="k" format="2">
  <advance width="1005.0"/>
  <unicode hex="006B"/>
  <anchor x="499.0" y="0.0" name="bottom"/>
  <outline>
    <contour>
      <point x="464.0" y="576.0" type="line"/>
      <point x="911.0" y="35.0" type="line"/>
      <point x="1032.0" y="18.0" type="line"/>
      <point x="1032.0" y="0.0" type="line"/>
      <point x="750.0" y="0.0" type="line"/>
      <point x="370.0" y="462.0" type="line"/>
    </contour>
    <contour>
      <point x="449.0" y="18.0" type="line"/>
      <point x="449.0" y="0.0" type="line"/>
      <point x="40.0" y="0.0" type="line"/>
      <point x="40.0" y="18.0" type="line"/>
      <point x="174.0" y="35.0" type="line"/>
      <point x="174.0" y="1437.0" type="line"/>
      <point x="44.0" y="1485.0" type="line"/>
      <point x="44.0" y="1500.0" type="line"/>
      <point x="299.0" y="1586.0" type="line"/>
      <point x="317.0" y="1586.0" type="line"/>
      <point x="317.0" y="35.0" type="line"/>
    </contour>
    <contour>
      <point x="532.0" y="915.0" type="curve"/>
      <point x="532.0" y="933.0" type="line"/>
      <point x="904.0" y="933.0" type="line"/>
      <point x="904.0" y="915.0" type="line"/>
      <point x="785.0" y="895.0"/>
      <point x="733.0" y="867.0"/>
      <point x="673.0" y="796.0" type="curve" smooth="yes"/>
      <point x="268.0" y="319.0" type="line"/>
      <point x="268.0" y="359.0" type="line"/>
      <point x="629.0" y="792.0" type="line" smooth="yes"/>
      <point x="656.0" y="825.0"/>
      <point x="669.0" y="847.0"/>
      <point x="669.0" y="862.0" type="curve" smooth="yes"/>
      <point x="669.0" y="889.0"/>
      <point x="638.0" y="900.0"/>
    </contour>
  </outline>
</glyph>
<glyph name="l" format="2">
  <advance width="491.0"/>
  <unicode hex="006C"/>
  <anchor x="244.0" y="0.0" name="bottom"/>
  <outline>
    <contour>
      <point x="451.0" y="18.0" type="line"/>
      <point x="451.0" y="0.0" type="line"/>
      <point x="40.0" y="0.0" type="line"/>
      <point x="40.0" y="18.0" type="line"/>
      <point x="174.0" y="35.0" type="line"/>
      <point x="174.0" y="1437.0" type="line"/>
      <point x="44.0" y="1485.0" type="line"/>
      <point x="44.0" y="1500.0" type="line"/>
      <point x="299.0" y="1586.0" type="line"/>
      <point x="317.0" y="1586.0" type="line"/>
      <point x="317.0" y="35.0" type="line"/>
    </contour>
  </outline>
</glyph>
<glyph name="m" format="2">
  <advance width="1434.0"/>
  <unicode hex="006D"/>
  <outline>
    <contour>
      <point x="466.0" y="18.0" type="line"/>
      <point x="466.0" y="0.0" type="line"/>
      <point x="57.0" y="0.0" type="line"/>
      <point x="57.0" y="18.0" type="line"/>
      <point x="189.0" y="35.0" type="line"/>
      <point x="189.0" y="805.0" type="line"/>
      <point x="59.0" y="854.0" type="line"/>
      <point x="59.0" y="869.0" type="line"/>
      <point x="308.0" y="955.0" type="line"/>
      <point x="326.0" y="955.0" type="line"/>
      <point x="326.0" y="796.0" type="line"/>
      <point x="332.0" y="788.0" type="line"/>
      <point x="332.0" y="35.0" type="line"/>
    </contour>
    <contour>
      <point x="315.0" y="794.0" type="line"/>
      <point x="405.0" y="900.0"/>
      <point x="499.0" y="955.0"/>
      <point x="596.0" y="955.0" type="curve" smooth="yes"/>
      <point x="680.0" y="955.0"/>
      <point x="741.0" y="917.0"/>
      <point x="777.0" y="847.0" type="curve" smooth="yes"/>
      <point x="796.0" y="807.0"/>
      <point x="801.0" y="761.0"/>
      <point x="801.0" y="596.0" type="curve" smooth="yes"/>
      <point x="801.0" y="35.0" type="line"/>
      <point x="937.0" y="18.0" type="line"/>
      <point x="937.0" y="0.0" type="line"/>
      <point x="521.0" y="0.0" type="line"/>
      <point x="521.0" y="18.0" type="line"/>
      <point x="658.0" y="35.0" type="line"/>
      <point x="658.0" y="596.0" type="line" smooth="yes"/>
      <point x="658.0" y="711.0"/>
      <point x="653.0" y="757.0"/>
      <point x="638.0" y="794.0" type="curve" smooth="yes"/>
      <point x="616.0" y="847.0"/>
      <point x="570.0" y="873.0"/>
      <point x="506.0" y="873.0" type="curve" smooth="yes"/>
      <point x="429.0" y="873.0"/>
      <point x="367.0" y="836.0"/>
      <point x="315.0" y="759.0" type="curve"/>
    </contour>
    <contour>
      <point x="783.0" y="794.0" type="line"/>
      <point x="873.0" y="900.0"/>
      <point x="968.0" y="955.0"/>
      <point x="1065.0" y="955.0" type="curve" smooth="yes"/>
      <point x="1148.0" y="955.0"/>
      <point x="1210.0" y="917.0"/>
      <point x="1245.0" y="847.0" type="curve" smooth="yes"/>
      <point x="1265.0" y="807.0"/>
      <point x="1269.0" y="752.0"/>
      <point x="1269.0" y="596.0" type="curve" smooth="yes"/>
      <point x="1269.0" y="35.0" type="line"/>
      <point x="1406.0" y="18.0" type="line"/>
      <point x="1406.0" y="0.0" type="line"/>
      <point x="992.0" y="0.0" type="line"/>
      <point x="992.0" y="18.0" type="line"/>
      <point x="1126.0" y="35.0" type="line"/>
      <point x="1126.0" y="596.0" type="line" smooth="yes"/>
      <point x="1126.0" y="711.0"/>
      <point x="1122.0" y="757.0"/>
      <point x="1107.0" y="794.0" type="curve" smooth="yes"/>
      <point x="1085.0" y="847.0"/>
      <point x="1038.0" y="873.0"/>
      <point x="975.0" y="873.0" type="curve" smooth="yes"/>
      <point x="898.0" y="873.0"/>
      <point x="836.0" y="836.0"/>
      <point x="783.0" y="759.0" type="curve"/>
    </contour>
  </outline>
</glyph>
<glyph name="n" format="2">
  <advance width="1016.0"/>
  <unicode hex="006E"/>
  <anchor x="521.0" y="0.0" name="bottom"/>
  <anchor x="515.0" y="1166.0" name="top"/>
  <outline>
    <contour>
      <point x="466.0" y="18.0" type="line"/>
      <point x="466.0" y="0.0" type="line"/>
      <point x="55.0" y="0.0" type="line"/>
      <point x="55.0" y="18.0" type="line"/>
      <point x="189.0" y="35.0" type="line"/>
      <point x="189.0" y="794.0" type="line"/>
      <point x="59.0" y="843.0" type="line"/>
      <point x="59.0" y="858.0" type="line"/>
      <point x="308.0" y="944.0" type="line"/>
      <point x="326.0" y="944.0" type="line"/>
      <point x="326.0" y="796.0" type="line"/>
      <point x="332.0" y="788.0" type="line"/>
      <point x="332.0" y="35.0" type="line"/>
    </contour>
    <contour>
      <point x="315.0" y="794.0" type="line"/>
      <point x="414.0" y="902.0"/>
      <point x="517.0" y="955.0"/>
      <point x="620.0" y="955.0" type="curve" smooth="yes"/>
      <point x="711.0" y="955.0"/>
      <point x="792.0" y="913.0"/>
      <point x="825.0" y="847.0" type="curve" smooth="yes"/>
      <point x="845.0" y="807.0"/>
      <point x="849.0" y="761.0"/>
      <point x="849.0" y="596.0" type="curve" smooth="yes"/>
      <point x="849.0" y="35.0" type="line"/>
      <point x="981.0" y="18.0" type="line"/>
      <point x="981.0" y="0.0" type="line"/>
      <point x="572.0" y="0.0" type="line"/>
      <point x="572.0" y="18.0" type="line"/>
      <point x="706.0" y="35.0" type="line"/>
      <point x="706.0" y="596.0" type="line" smooth="yes"/>
      <point x="706.0" y="708.0"/>
      <point x="702.0" y="757.0"/>
      <point x="684.0" y="794.0" type="curve" smooth="yes"/>
      <point x="660.0" y="845.0"/>
      <point x="603.0" y="873.0"/>
      <point x="532.0" y="873.0" type="curve" smooth="yes"/>
      <point x="451.0" y="873.0"/>
      <point x="378.0" y="836.0"/>
      <point x="315.0" y="759.0" type="curve"/>
    </contour>
  </outline>
</glyph>
<glyph name="o" format="2">
  <advance width="1047.0"/>
  <unicode hex="006F"/>
  <anchor x="524.0" y="0.0" name="bottom"/>
  <anchor x="524.0" y="1166.0" name="top"/>
  <outline>
    <contour>
      <point x="524.0" y="955.0" type="curve" smooth="yes"/>
      <point x="266.0" y="955.0"/>
      <point x="88.0" y="757.0"/>
      <point x="88.0" y="466.0" type="curve" smooth="yes"/>
      <point x="88.0" y="176.0"/>
      <point x="266.0" y="-22.0"/>
      <point x="524.0" y="-22.0" type="curve" smooth="yes"/>
      <point x="781.0" y="-22.0"/>
      <point x="959.0" y="176.0"/>
      <point x="959.0" y="466.0" type="curve" smooth="yes"/>
      <point x="959.0" y="757.0"/>
      <point x="781.0" y="955.0"/>
    </contour>
    <contour>
      <point x="251.0" y="466.0" type="curve" smooth="yes"/>
      <point x="251.0" y="759.0"/>
      <point x="352.0" y="933.0"/>
      <point x="524.0" y="933.0" type="curve" smooth="yes"/>
      <point x="693.0" y="933.0"/>
      <point x="796.0" y="759.0"/>
      <point x="796.0" y="466.0" type="curve" smooth="yes"/>
      <point x="796.0" y="174.0"/>
      <point x="693.0" y="0.0"/>
      <point x="524.0" y="0.0" type="curve" smooth="yes"/>
      <point x="352.0" y="0.0"/>
      <point x="251.0" y="174.0"/>
    </contour>
  </outline>
</glyph>
<glyph name="p" format="2">
  <advance width="1038.0"/>
  <unicode hex="0070"/>
  <outline>
    <contour>
      <point x="317.0" y="18.0" type="curve"/>
      <point x="317.0" y="-475.0" type="line"/>
      <point x="515.0" y="-499.0" type="line"/>
      <point x="515.0" y="-515.0" type="line"/>
      <point x="40.0" y="-515.0" type="line"/>
      <point x="40.0" y="-497.0" type="line"/>
      <point x="174.0" y="-480.0" type="line"/>
      <point x="174.0" y="805.0" type="line"/>
      <point x="44.0" y="854.0" type="line"/>
      <point x="44.0" y="869.0" type="line"/>
      <point x="293.0" y="955.0" type="line"/>
      <point x="310.0" y="955.0" type="line"/>
      <point x="310.0" y="799.0" type="line"/>
      <point x="319.0" y="799.0" type="line"/>
      <point x="383.0" y="895.0"/>
      <point x="491.0" y="955.0"/>
      <point x="605.0" y="955.0" type="curve" smooth="yes"/>
      <point x="803.0" y="955.0"/>
      <point x="948.0" y="761.0"/>
      <point x="948.0" y="493.0" type="curve" smooth="yes"/>
      <point x="948.0" y="191.0"/>
      <point x="761.0" y="-22.0"/>
      <point x="497.0" y="-22.0" type="curve" smooth="yes"/>
      <point x="433.0" y="-22.0"/>
      <point x="376.0" y="-9.0"/>
    </contour>
    <contour>
      <point x="513.0" y="0.0" type="curve" smooth="yes"/>
      <point x="671.0" y="0.0"/>
      <point x="788.0" y="194.0"/>
      <point x="788.0" y="462.0" type="curve" smooth="yes"/>
      <point x="788.0" y="722.0"/>
      <point x="682.0" y="889.0"/>
      <point x="521.0" y="889.0" type="curve" smooth="yes"/>
      <point x="431.0" y="889.0"/>
      <point x="352.0" y="838.0"/>
      <point x="317.0" y="757.0" type="curve"/>
      <point x="317.0" y="156.0" type="line" smooth="yes"/>
      <point x="317.0" y="73.0"/>
      <point x="407.0" y="0.0"/>
    </contour>
  </outline>
</glyph>
<glyph name="q" format="2">
  <advance width="1027.0"/>
  <unicode hex="0071"/>
  <outline>
    <contour>
      <point x="726.0" y="-475.0" type="line"/>
      <point x="726.0" y="108.0" type="line"/>
      <point x="653.0" y="22.0"/>
      <point x="559.0" y="-22.0"/>
      <point x="455.0" y="-22.0" type="curve" smooth="yes"/>
      <point x="240.0" y="-22.0"/>
      <point x="88.0" y="167.0"/>
      <point x="88.0" y="436.0" type="curve" smooth="yes"/>
      <point x="88.0" y="733.0"/>
      <point x="279.0" y="955.0"/>
      <point x="535.0" y="955.0" type="curve" smooth="yes"/>
      <point x="623.0" y="955.0"/>
      <point x="702.0" y="928.0"/>
      <point x="777.0" y="873.0" type="curve"/>
      <point x="785.0" y="873.0" type="line"/>
      <point x="845.0" y="933.0" type="line"/>
      <point x="869.0" y="933.0" type="line"/>
      <point x="869.0" y="-480.0" type="line"/>
      <point x="1003.0" y="-497.0" type="line"/>
      <point x="1003.0" y="-515.0" type="line"/>
      <point x="528.0" y="-515.0" type="line"/>
      <point x="528.0" y="-499.0" type="line"/>
    </contour>
    <contour>
      <point x="541.0" y="933.0" type="curve" smooth="yes"/>
      <point x="365.0" y="933.0"/>
      <point x="251.0" y="752.0"/>
      <point x="251.0" y="475.0" type="curve" smooth="yes"/>
      <point x="251.0" y="209.0"/>
      <point x="356.0" y="44.0"/>
      <point x="528.0" y="44.0" type="curve" smooth="yes"/>
      <point x="605.0" y="44.0"/>
      <point x="680.0" y="79.0"/>
      <point x="726.0" y="136.0" type="curve"/>
      <point x="726.0" y="711.0" type="line" smooth="yes"/>
      <point x="726.0" y="851.0"/>
      <point x="658.0" y="933.0"/>
    </contour>
  </outline>
</glyph>
<glyph name="r" format="2">
  <advance width="693.0"/>
  <unicode hex="0072"/>
  <anchor x="257.0" y="0.0" name="bottom"/>
  <anchor x="372.0" y="1166.0" name="top"/>
  <outline>
    <contour>
      <point x="317.0" y="748.0" type="line"/>
      <point x="400.0" y="884.0"/>
      <point x="482.0" y="955.0"/>
      <point x="557.0" y="955.0" type="curve" smooth="yes"/>
      <point x="616.0" y="955.0"/>
      <point x="662.0" y="909.0"/>
      <point x="662.0" y="854.0" type="curve" smooth="yes"/>
      <point x="662.0" y="805.0"/>
      <point x="625.0" y="770.0"/>
      <point x="579.0" y="770.0" type="curve" smooth="yes"/>
      <point x="515.0" y="770.0"/>
      <point x="510.0" y="845.0"/>
      <point x="455.0" y="845.0" type="curve" smooth="yes"/>
      <point x="409.0" y="845.0"/>
      <point x="352.0" y="781.0"/>
      <point x="332.0" y="706.0" type="curve"/>
    </contour>
    <contour>
      <point x="508.0" y="18.0" type="line"/>
      <point x="508.0" y="0.0" type="line"/>
      <point x="55.0" y="0.0" type="line"/>
      <point x="55.0" y="18.0" type="line"/>
      <point x="189.0" y="35.0" type="line"/>
      <point x="189.0" y="805.0" type="line"/>
      <point x="59.0" y="854.0" type="line"/>
      <point x="59.0" y="869.0" type="line"/>
      <point x="308.0" y="955.0" type="line"/>
      <point x="326.0" y="955.0" type="line"/>
      <point x="326.0" y="757.0" type="line"/>
      <point x="332.0" y="748.0" type="line"/>
      <point x="332.0" y="35.0" type="line"/>
    </contour>
  </outline>
</glyph>
<glyph name="s" format="2">
  <advance width="757.0"/>
  <unicode hex="0073"/>
  <anchor x="363.0" y="0.0" name="bottom"/>
  <anchor x="374.0" y="1166.0" name="top"/>
  <outline>
    <contour>
      <point x="429.0" y="955.0" type="curve" smooth="yes"/>
      <point x="502.0" y="955.0"/>
      <point x="581.0" y="942.0"/>
      <point x="627.0" y="924.0" type="curve"/>
      <point x="627.0" y="680.0" type="line"/>
      <point x="603.0" y="680.0" type="line"/>
      <point x="563.0" y="856.0"/>
      <point x="504.0" y="931.0"/>
      <point x="398.0" y="931.0" type="curve" smooth="yes"/>
      <point x="301.0" y="931.0"/>
      <point x="238.0" y="867.0"/>
      <point x="238.0" y="766.0" type="curve" smooth="yes"/>
      <point x="238.0" y="502.0"/>
      <point x="664.0" y="598.0"/>
      <point x="664.0" y="268.0" type="curve" smooth="yes"/>
      <point x="664.0" y="90.0"/>
      <point x="541.0" y="-22.0"/>
      <point x="348.0" y="-22.0" type="curve" smooth="yes"/>
      <point x="275.0" y="-22.0"/>
      <point x="178.0" y="-4.0"/>
      <point x="117.0" y="18.0" type="curve"/>
      <point x="106.0" y="304.0" type="line"/>
      <point x="132.0" y="304.0" type="line"/>
      <point x="163.0" y="99.0"/>
      <point x="235.0" y="2.0"/>
      <point x="356.0" y="2.0" type="curve" smooth="yes"/>
      <point x="464.0" y="2.0"/>
      <point x="535.0" y="77.0"/>
      <point x="535.0" y="189.0" type="curve" smooth="yes"/>
      <point x="535.0" y="466.0"/>
      <point x="106.0" y="376.0"/>
      <point x="106.0" y="695.0" type="curve" smooth="yes"/>
      <point x="106.0" y="860.0"/>
      <point x="222.0" y="955.0"/>
    </contour>
  </outline>
</glyph>
<glyph name="t" format="2">
  <advance width="590.0"/>
  <unicode hex="0074"/>
  <anchor x="343.0" y="0.0" name="bottom"/>
  <outline>
    <contour>
      <point x="304.0" y="1142.0" type="line"/>
      <point x="304.0" y="933.0" type="line"/>
      <point x="554.0" y="933.0" type="line"/>
      <point x="541.0" y="898.0" type="line"/>
      <point x="304.0" y="898.0" type="line"/>
      <point x="304.0" y="224.0" type="line" smooth="yes"/>
      <point x="304.0" y="174.0"/>
      <point x="312.0" y="134.0"/>
      <point x="328.0" y="110.0" type="curve" smooth="yes"/>
      <point x="345.0" y="75.0"/>
      <point x="381.0" y="57.0"/>
      <point x="427.0" y="57.0" type="curve" smooth="yes"/>
      <point x="475.0" y="57.0"/>
      <point x="515.0" y="79.0"/>
      <point x="568.0" y="132.0" type="curve"/>
      <point x="576.0" y="125.0" type="line"/>
      <point x="532.0" y="35.0"/>
      <point x="447.0" y="-22.0"/>
      <point x="354.0" y="-22.0" type="curve" smooth="yes"/>
      <point x="308.0" y="-22.0"/>
      <point x="262.0" y="-7.0"/>
      <point x="229.0" y="18.0" type="curve" smooth="yes"/>
      <point x="180.0" y="53.0"/>
      <point x="161.0" y="103.0"/>
      <point x="161.0" y="196.0" type="curve" smooth="yes"/>
      <point x="161.0" y="900.0" type="line"/>
      <point x="57.0" y="900.0" type="line"/>
      <point x="53.0" y="911.0" type="line"/>
      <point x="295.0" y="1144.0" type="line"/>
    </contour>
  </outline>
</glyph>
<glyph name="u" format="2">
  <advance width="975.0"/>
  <unicode hex="0075"/>
  <anchor x="462.0" y="0.0" name="bottom"/>
  <anchor x="484.0" y="1166.0" name="top"/>
  <outline>
    <contour>
      <point x="667.0" y="176.0" type="line"/>
      <point x="612.0" y="101.0"/>
      <point x="539.0" y="62.0"/>
      <point x="464.0" y="62.0" type="curve" smooth="yes"/>
      <point x="403.0" y="62.0"/>
      <point x="352.0" y="90.0"/>
      <point x="330.0" y="139.0" type="curve" smooth="yes"/>
      <point x="312.0" y="176.0"/>
      <point x="308.0" y="222.0"/>
      <point x="308.0" y="337.0" type="curve" smooth="yes"/>
      <point x="308.0" y="933.0" type="line"/>
      <point x="33.0" y="933.0" type="line"/>
      <point x="33.0" y="915.0" type="line"/>
      <point x="165.0" y="898.0" type="line"/>
      <point x="165.0" y="337.0" type="line" smooth="yes"/>
      <point x="165.0" y="172.0"/>
      <point x="169.0" y="125.0"/>
      <point x="189.0" y="86.0" type="curve" smooth="yes"/>
      <point x="222.0" y="20.0"/>
      <point x="297.0" y="-22.0"/>
      <point x="387.0" y="-22.0" type="curve" smooth="yes"/>
      <point x="488.0" y="-22.0"/>
      <point x="579.0" y="31.0"/>
      <point x="667.0" y="141.0" type="curve"/>
    </contour>
    <contour>
      <point x="662.0" y="898.0" type="line"/>
      <point x="662.0" y="154.0" type="line"/>
      <point x="667.0" y="141.0" type="line"/>
      <point x="673.0" y="139.0" type="line"/>
      <point x="673.0" y="-11.0" type="line"/>
      <point x="686.0" y="-11.0" type="line"/>
      <point x="926.0" y="99.0" type="line"/>
      <point x="926.0" y="110.0" type="line"/>
      <point x="805.0" y="136.0" type="line"/>
      <point x="805.0" y="933.0" type="line"/>
      <point x="530.0" y="933.0" type="line"/>
      <point x="530.0" y="915.0" type="line"/>
    </contour>
  </outline>
</glyph>
<glyph name="v" format="2">
  <advance width="981.0"/>
  <unicode hex="0076"/>
  <outline>
    <contour>
      <point x="482.0" y="-7.0" type="line"/>
      <point x="158.0" y="823.0" type="line" smooth="yes"/>
      <point x="132.0" y="891.0"/>
      <point x="106.0" y="909.0"/>
      <point x="4.0" y="915.0" type="curve"/>
      <point x="4.0" y="933.0" type="line"/>
      <point x="429.0" y="933.0" type="line"/>
      <point x="429.0" y="915.0" type="line"/>
      <point x="323.0" y="909.0"/>
      <point x="304.0" y="902.0"/>
      <point x="304.0" y="878.0" type="curve" smooth="yes"/>
      <point x="304.0" y="867.0"/>
      <point x="308.0" y="851.0"/>
      <point x="319.0" y="821.0" type="curve" smooth="yes"/>
      <point x="548.0" y="172.0" type="line"/>
      <point x="557.0" y="172.0" type="line"/>
      <point x="755.0" y="766.0" type="line" smooth="yes"/>
      <point x="763.0" y="794.0"/>
      <point x="768.0" y="816.0"/>
      <point x="768.0" y="834.0" type="curve" smooth="yes"/>
      <point x="768.0" y="880.0"/>
      <point x="730.0" y="898.0"/>
      <point x="614.0" y="915.0" type="curve"/>
      <point x="614.0" y="933.0" type="line"/>
      <point x="1008.0" y="933.0" type="line"/>
      <point x="1008.0" y="915.0" type="line"/>
      <point x="873.0" y="900.0"/>
      <point x="825.0" y="873.0"/>
      <point x="801.0" y="799.0" type="curve" smooth="yes"/>
      <point x="526.0" y="-7.0" type="line"/>
    </contour>
  </outline>
</glyph>
<glyph name="w" format="2">
  <advance width="1362.0"/>
  <unicode hex="0077"/>
  <anchor x="715.0" y="1166.0" name="top"/>
  <outline>
    <contour>
      <point x="706.0" y="733.0" type="line"/>
      <point x="464.0" y="-7.0" type="line"/>
      <point x="440.0" y="-7.0" type="line"/>
      <point x="143.0" y="840.0" type="line" smooth="yes"/>
      <point x="125.0" y="893.0"/>
      <point x="117.0" y="902.0"/>
      <point x="11.0" y="915.0" type="curve"/>
      <point x="11.0" y="933.0" type="line"/>
      <point x="405.0" y="933.0" type="line"/>
      <point x="405.0" y="915.0" type="line"/>
      <point x="310.0" y="909.0"/>
      <point x="297.0" y="895.0"/>
      <point x="297.0" y="871.0" type="curve" smooth="yes"/>
      <point x="297.0" y="858.0"/>
      <point x="301.0" y="843.0"/>
      <point x="310.0" y="818.0" type="curve" smooth="yes"/>
      <point x="502.0" y="233.0" type="line"/>
      <point x="510.0" y="233.0" type="line"/>
      <point x="678.0" y="746.0" type="line"/>
    </contour>
    <contour>
      <point x="913.0" y="-7.0" type="line"/>
      <point x="627.0" y="829.0" type="line" smooth="yes"/>
      <point x="609.0" y="880.0"/>
      <point x="590.0" y="906.0"/>
      <point x="506.0" y="915.0" type="curve"/>
      <point x="506.0" y="933.0" type="line"/>
      <point x="878.0" y="933.0" type="line"/>
      <point x="878.0" y="915.0" type="line"/>
      <point x="783.0" y="909.0"/>
      <point x="770.0" y="895.0"/>
      <point x="770.0" y="871.0" type="curve" smooth="yes"/>
      <point x="770.0" y="858.0"/>
      <point x="774.0" y="843.0"/>
      <point x="783.0" y="818.0" type="curve" smooth="yes"/>
      <point x="977.0" y="233.0" type="line"/>
      <point x="986.0" y="233.0" type="line"/>
      <point x="1155.0" y="766.0" type="line" smooth="yes"/>
      <point x="1164.0" y="794.0"/>
      <point x="1168.0" y="816.0"/>
      <point x="1168.0" y="834.0" type="curve" smooth="yes"/>
      <point x="1168.0" y="880.0"/>
      <point x="1137.0" y="898.0"/>
      <point x="1034.0" y="915.0" type="curve"/>
      <point x="1034.0" y="933.0" type="line"/>
      <point x="1388.0" y="933.0" type="line"/>
      <point x="1388.0" y="915.0" type="line"/>
      <point x="1258.0" y="893.0"/>
      <point x="1221.0" y="865.0"/>
      <point x="1188.0" y="763.0" type="curve" smooth="yes"/>
      <point x="937.0" y="-7.0" type="line"/>
    </contour>
  </outline>
</glyph>
<glyph name="x" format="2">
  <advance width="1012.0"/>
  <unicode hex="0078"/>
  <outline>
    <contour>
      <point x="856.0" y="92.0" type="line" smooth="yes"/>
      <point x="889.0" y="44.0"/>
      <point x="915.0" y="29.0"/>
      <point x="1008.0" y="18.0" type="curve"/>
      <point x="1008.0" y="0.0" type="line"/>
      <point x="601.0" y="0.0" type="line"/>
      <point x="601.0" y="18.0" type="line"/>
      <point x="680.0" y="26.0"/>
      <point x="704.0" y="31.0"/>
      <point x="704.0" y="53.0" type="curve" smooth="yes"/>
      <point x="704.0" y="68.0"/>
      <point x="693.0" y="88.0"/>
      <point x="678.0" y="112.0" type="curve" smooth="yes"/>
      <point x="196.0" y="840.0" type="line" smooth="yes"/>
      <point x="163.0" y="889.0"/>
      <point x="134.0" y="904.0"/>
      <point x="42.0" y="915.0" type="curve"/>
      <point x="42.0" y="933.0" type="line"/>
      <point x="449.0" y="933.0" type="line"/>
      <point x="449.0" y="915.0" type="line"/>
      <point x="370.0" y="906.0"/>
      <point x="345.0" y="902.0"/>
      <point x="345.0" y="880.0" type="curve" smooth="yes"/>
      <point x="345.0" y="865.0"/>
      <point x="356.0" y="845.0"/>
      <point x="372.0" y="821.0" type="curve" smooth="yes"/>
    </contour>
    <contour>
      <point x="502.0" y="455.0" type="line"/>
      <point x="268.0" y="143.0" type="line" smooth="yes"/>
      <point x="249.0" y="117.0"/>
      <point x="238.0" y="97.0"/>
      <point x="238.0" y="79.0" type="curve" smooth="yes"/>
      <point x="238.0" y="51.0"/>
      <point x="266.0" y="35.0"/>
      <point x="365.0" y="18.0" type="curve"/>
      <point x="365.0" y="0.0" type="line"/>
      <point x="2.0" y="0.0" type="line"/>
      <point x="2.0" y="18.0" type="line"/>
      <point x="121.0" y="37.0"/>
      <point x="169.0" y="64.0"/>
      <point x="224.0" y="136.0" type="curve" smooth="yes"/>
      <point x="482.0" y="477.0" type="line"/>
    </contour>
    <contour>
      <point x="493.0" y="506.0" type="line"/>
      <point x="708.0" y="790.0" type="line" smooth="yes"/>
      <point x="728.0" y="816.0"/>
      <point x="739.0" y="836.0"/>
      <point x="739.0" y="854.0" type="curve" smooth="yes"/>
      <point x="739.0" y="882.0"/>
      <point x="711.0" y="898.0"/>
      <point x="612.0" y="915.0" type="curve"/>
      <point x="612.0" y="933.0" type="line"/>
      <point x="975.0" y="933.0" type="line"/>
      <point x="975.0" y="915.0" type="line"/>
      <point x="856.0" y="895.0"/>
      <point x="807.0" y="869.0"/>
      <point x="752.0" y="796.0" type="curve" smooth="yes"/>
      <point x="513.0" y="484.0" type="line"/>
    </contour>
  </outline>
</glyph>
<glyph name="y" format="2">
  <advance width="994.0"/>
  <unicode hex="0079"/>
  <anchor x="524.0" y="1166.0" name="top"/>
  <outline>
    <contour>
      <point x="552.0" y="161.0" type="line"/>
      <point x="752.0" y="766.0" type="line" smooth="yes"/>
      <point x="761.0" y="794.0"/>
      <point x="766.0" y="816.0"/>
      <point x="766.0" y="834.0" type="curve" smooth="yes"/>
      <point x="766.0" y="880.0"/>
      <point x="728.0" y="898.0"/>
      <point x="612.0" y="915.0" type="curve"/>
      <point x="612.0" y="933.0" type="line"/>
      <point x="1005.0" y="933.0" type="line"/>
      <point x="1005.0" y="915.0" type="line"/>
      <point x="865.0" y="893.0"/>
      <point x="821.0" y="862.0"/>
      <point x="788.0" y="763.0" type="curve" smooth="yes"/>
      <point x="420.0" y="-317.0" type="line" smooth="yes"/>
      <point x="394.0" y="-396.0"/>
      <point x="370.0" y="-444.0"/>
      <point x="337.0" y="-477.0" type="curve" smooth="yes"/>
      <point x="299.0" y="-519.0"/>
      <point x="255.0" y="-541.0"/>
      <point x="205.0" y="-541.0" type="curve" smooth="yes"/>
      <point x="121.0" y="-541.0"/>
      <point x="59.0" y="-486.0"/>
      <point x="59.0" y="-414.0" type="curve" smooth="yes"/>
      <point x="59.0" y="-354.0"/>
      <point x="97.0" y="-317.0"/>
      <point x="154.0" y="-317.0" type="curve" smooth="yes"/>
      <point x="268.0" y="-317.0"/>
      <point x="220.0" y="-460.0"/>
      <point x="290.0" y="-460.0" type="curve" smooth="yes"/>
      <point x="330.0" y="-460.0"/>
      <point x="359.0" y="-411.0"/>
      <point x="396.0" y="-301.0" type="curve" smooth="yes"/>
      <point x="482.0" y="-40.0" type="line"/>
      <point x="143.0" y="840.0" type="line" smooth="yes"/>
      <point x="121.0" y="895.0"/>
      <point x="97.0" y="909.0"/>
      <point x="-4.0" y="915.0" type="curve"/>
      <point x="-4.0" y="933.0" type="line"/>
      <point x="420.0" y="933.0" type="line"/>
      <point x="420.0" y="915.0" type="line"/>
      <point x="315.0" y="909.0"/>
      <point x="295.0" y="902.0"/>
      <point x="295.0" y="878.0" type="curve" smooth="yes"/>
      <point x="295.0" y="867.0"/>
      <point x="299.0" y="851.0"/>
      <point x="310.0" y="821.0" type="curve" smooth="yes"/>
      <point x="543.0" y="161.0" type="line"/>
    </contour>
  </outline>
</glyph>
<glyph name="z" format="2">
  <advance width="854.0"/>
  <unicode hex="007A"/>
  <anchor x="431.0" y="0.0" name="bottom"/>
  <anchor x="429.0" y="1166.0" name="top"/>
  <outline>
    <contour>
      <point x="768.0" y="933.0" type="line"/>
      <point x="768.0" y="884.0" type="line"/>
      <point x="218.0" y="33.0" type="line"/>
      <point x="627.0" y="33.0" type="line"/>
      <point x="642.0" y="73.0" type="line" smooth="yes"/>
      <point x="673.0" y="156.0"/>
      <point x="702.0" y="249.0"/>
      <point x="726.0" y="341.0" type="curve"/>
      <point x="757.0" y="339.0" type="line"/>
      <point x="744.0" y="0.0" type="line"/>
      <point x="68.0" y="0.0" type="line"/>
      <point x="68.0" y="48.0" type="line"/>
      <point x="614.0" y="902.0" type="line"/>
      <point x="227.0" y="902.0" type="line"/>
      <point x="213.0" y="867.0" type="line" smooth="yes"/>
      <point x="185.0" y="790.0"/>
      <point x="152.0" y="680.0"/>
      <point x="139.0" y="609.0" type="curve"/>
      <point x="106.0" y="612.0" type="line"/>
      <point x="125.0" y="933.0" type="line"/>
    </contour>
  </outline>
</glyph>
<glyph name="braceleft" format="2">
  <advance width="671.0"/>
  <unicode hex="007B"/>
  <outline>
    <contour>
      <point x="205.0" y="656.0" type="line"/>
      <point x="352.0" y="618.0"/>
      <point x="418.0" y="535.0"/>
      <point x="418.0" y="385.0" type="curve" smooth="yes"/>
      <point x="418.0" y="222.0"/>
      <point x="341.0" y="55.0"/>
      <point x="341.0" y="-128.0" type="curve" smooth="yes"/>
      <point x="341.0" y="-277.0"/>
      <point x="394.0" y="-352.0"/>
      <point x="497.0" y="-352.0" type="curve" smooth="yes"/>
      <point x="526.0" y="-352.0"/>
      <point x="557.0" y="-348.0"/>
      <point x="605.0" y="-334.0" type="curve"/>
      <point x="612.0" y="-359.0" type="line"/>
      <point x="559.0" y="-374.0"/>
      <point x="506.0" y="-383.0"/>
      <point x="458.0" y="-383.0" type="curve" smooth="yes"/>
      <point x="286.0" y="-383.0"/>
      <point x="185.0" y="-286.0"/>
      <point x="185.0" y="-119.0" type="curve" smooth="yes"/>
      <point x="185.0" y="29.0"/>
      <point x="264.0" y="231.0"/>
      <point x="264.0" y="431.0" type="curve" smooth="yes"/>
      <point x="264.0" y="594.0"/>
      <point x="211.0" y="649.0"/>
      <point x="53.0" y="649.0" type="curve"/>
      <point x="53.0" y="671.0" type="line"/>
      <point x="211.0" y="671.0"/>
      <point x="264.0" y="719.0"/>
      <point x="264.0" y="869.0" type="curve" smooth="yes"/>
      <point x="264.0" y="1052.0"/>
      <point x="185.0" y="1230.0"/>
      <point x="185.0" y="1375.0" type="curve" smooth="yes"/>
      <point x="185.0" y="1538.0"/>
      <point x="286.0" y="1637.0"/>
      <point x="458.0" y="1637.0" type="curve" smooth="yes"/>
      <point x="506.0" y="1637.0"/>
      <point x="559.0" y="1628.0"/>
      <point x="612.0" y="1613.0" type="curve"/>
      <point x="605.0" y="1588.0" type="line"/>
      <point x="557.0" y="1602.0"/>
      <point x="526.0" y="1606.0"/>
      <point x="497.0" y="1606.0" type="curve" smooth="yes"/>
      <point x="394.0" y="1606.0"/>
      <point x="341.0" y="1529.0"/>
      <point x="341.0" y="1384.0" type="curve" smooth="yes"/>
      <point x="341.0" y="1208.0"/>
      <point x="418.0" y="1065.0"/>
      <point x="418.0" y="913.0" type="curve" smooth="yes"/>
      <point x="418.0" y="774.0"/>
      <point x="354.0" y="700.0"/>
      <point x="205.0" y="664.0" type="curve"/>
    </contour>
  </outline>
</glyph>
<glyph name="bar" format="2">
  <advance width="458.0"/>
  <unicode hex="007C"/>
  <outline>
    <contour>
      <point x="253.0" y="1518.0" type="line"/>
      <point x="253.0" y="-297.0" type="line"/>
      <point x="205.0" y="-297.0" type="line"/>
      <point x="205.0" y="1518.0" type="line"/>
    </contour>
  </outline>
</glyph>
<glyph name="braceright" format="2">
  <advance width="671.0"/>
  <unicode hex="007D"/>
  <outline>
    <contour>
      <point x="466.0" y="664.0" type="line"/>
      <point x="317.0" y="700.0"/>
      <point x="253.0" y="774.0"/>
      <point x="253.0" y="913.0" type="curve" smooth="yes"/>
      <point x="253.0" y="1065.0"/>
      <point x="330.0" y="1208.0"/>
      <point x="330.0" y="1384.0" type="curve" smooth="yes"/>
      <point x="330.0" y="1529.0"/>
      <point x="277.0" y="1606.0"/>
      <point x="174.0" y="1606.0" type="curve" smooth="yes"/>
      <point x="145.0" y="1606.0"/>
      <point x="112.0" y="1599.0"/>
      <point x="66.0" y="1588.0" type="curve"/>
      <point x="59.0" y="1613.0" type="line"/>
      <point x="112.0" y="1628.0"/>
      <point x="165.0" y="1637.0"/>
      <point x="213.0" y="1637.0" type="curve" smooth="yes"/>
      <point x="385.0" y="1637.0"/>
      <point x="486.0" y="1538.0"/>
      <point x="486.0" y="1375.0" type="curve" smooth="yes"/>
      <point x="486.0" y="1230.0"/>
      <point x="407.0" y="1052.0"/>
      <point x="407.0" y="869.0" type="curve" smooth="yes"/>
      <point x="407.0" y="719.0"/>
      <point x="460.0" y="671.0"/>
      <point x="618.0" y="671.0" type="curve"/>
      <point x="618.0" y="649.0" type="line"/>
      <point x="460.0" y="649.0"/>
      <point x="407.0" y="594.0"/>
      <point x="407.0" y="431.0" type="curve" smooth="yes"/>
      <point x="407.0" y="231.0"/>
      <point x="486.0" y="29.0"/>
      <point x="486.0" y="-119.0" type="curve" smooth="yes"/>
      <point x="486.0" y="-286.0"/>
      <point x="385.0" y="-383.0"/>
      <point x="213.0" y="-383.0" type="curve" smooth="yes"/>
      <point x="165.0" y="-383.0"/>
      <point x="112.0" y="-374.0"/>
      <point x="59.0" y="-359.0" type="curve"/>
      <point x="66.0" y="-334.0" type="line"/>
      <point x="112.0" y="-345.0"/>
      <point x="145.0" y="-352.0"/>
      <point x="174.0" y="-352.0" type="curve" smooth="yes"/>
      <point x="277.0" y="-352.0"/>
      <point x="330.0" y="-277.0"/>
      <point x="330.0" y="-128.0" type="curve" smooth="yes"/>
      <point x="330.0" y="55.0"/>
      <point x="253.0" y="222.0"/>
      <point x="253.0" y="385.0" type="curve" smooth="yes"/>
      <point x="253.0" y="535.0"/>
      <point x="319.0" y="618.0"/>
      <point x="466.0" y="656.0" type="curve"/>
    </contour>
  </outline>
</glyph>
<glyph name="asciitilde" format="2">
  <advance width="977.0"/>
  <unicode hex="007E"/>
  <outline>
    <contour>
      <point x="167.0" y="499.0" type="line"/>
      <point x="167.0" y="614.0"/>
      <point x="229.0" y="689.0"/>
      <point x="321.0" y="689.0" type="curve" smooth="yes"/>
      <point x="436.0" y="689.0"/>
      <point x="598.0" y="616.0"/>
      <point x="715.0" y="616.0" type="curve" smooth="yes"/>
      <point x="768.0" y="616.0"/>
      <point x="796.0" y="645.0"/>
      <point x="807.0" y="695.0" type="curve"/>
      <point x="818.0" y="695.0" type="line"/>
      <point x="818.0" y="574.0"/>
      <point x="759.0" y="497.0"/>
      <point x="664.0" y="497.0" type="curve" smooth="yes"/>
      <point x="543.0" y="497.0"/>
      <point x="389.0" y="576.0"/>
      <point x="268.0" y="576.0" type="curve" smooth="yes"/>
      <point x="216.0" y="576.0"/>
      <point x="183.0" y="548.0"/>
      <point x="176.0" y="499.0" type="curve"/>
    </contour>
  </outline>
</glyph>
<glyph name="exclamdown" format="2">
  <advance width="466.0"/>
  <unicode hex="00A1"/>
  <outline>
    <contour>
      <point x="222.0" y="651.0" type="line"/>
      <point x="211.0" y="409.0"/>
      <point x="200.0" y="187.0"/>
      <point x="185.0" y="2.0" type="curve" smooth="yes"/>
      <point x="167.0" y="-216.0"/>
      <point x="147.0" y="-381.0"/>
      <point x="147.0" y="-440.0" type="curve" smooth="yes"/>
      <point x="147.0" y="-504.0"/>
      <point x="176.0" y="-541.0"/>
      <point x="233.0" y="-541.0" type="curve" smooth="yes"/>
      <point x="286.0" y="-541.0"/>
      <point x="319.0" y="-502.0"/>
      <point x="319.0" y="-433.0" type="curve" smooth="yes"/>
      <point x="319.0" y="-376.0"/>
      <point x="304.0" y="-209.0"/>
      <point x="282.0" y="11.0" type="curve" smooth="yes"/>
      <point x="262.0" y="194.0"/>
      <point x="257.0" y="411.0"/>
      <point x="244.0" y="651.0" type="curve"/>
    </contour>
    <contour>
      <point x="339.0" y="942.0" type="curve" smooth="yes"/>
      <point x="339.0" y="1001.0"/>
      <point x="297.0" y="1047.0"/>
      <point x="233.0" y="1047.0" type="curve" smooth="yes"/>
      <point x="169.0" y="1047.0"/>
      <point x="128.0" y="1001.0"/>
      <point x="128.0" y="942.0" type="curve" smooth="yes"/>
      <point x="128.0" y="882.0"/>
      <point x="169.0" y="836.0"/>
      <point x="233.0" y="836.0" type="curve" smooth="yes"/>
      <point x="297.0" y="836.0"/>
      <point x="339.0" y="882.0"/>
    </contour>
  </outline>
</glyph>
<glyph name="cent" format="2">
  <advance width="961.0"/>
  <unicode hex="00A2"/>
  <outline>
    <contour>
      <point x="550.0" y="955.0" type="curve" smooth="yes"/>
      <point x="713.0" y="955.0"/>
      <point x="843.0" y="871.0"/>
      <point x="843.0" y="763.0" type="curve" smooth="yes"/>
      <point x="843.0" y="713.0"/>
      <point x="812.0" y="680.0"/>
      <point x="761.0" y="680.0" type="curve" smooth="yes"/>
      <point x="620.0" y="680.0"/>
      <point x="726.0" y="933.0"/>
      <point x="541.0" y="933.0" type="curve" smooth="yes"/>
      <point x="381.0" y="933.0"/>
      <point x="262.0" y="746.0"/>
      <point x="262.0" y="488.0" type="curve" smooth="yes"/>
      <point x="262.0" y="233.0"/>
      <point x="376.0" y="86.0"/>
      <point x="574.0" y="86.0" type="curve" smooth="yes"/>
      <point x="684.0" y="86.0"/>
      <point x="768.0" y="130.0"/>
      <point x="840.0" y="224.0" type="curve" smooth="yes"/>
      <point x="860.0" y="251.0" type="line"/>
      <point x="869.0" y="246.0" type="line"/>
      <point x="860.0" y="222.0" type="line" smooth="yes"/>
      <point x="803.0" y="68.0"/>
      <point x="678.0" y="-22.0"/>
      <point x="517.0" y="-22.0" type="curve" smooth="yes"/>
      <point x="282.0" y="-22.0"/>
      <point x="114.0" y="176.0"/>
      <point x="114.0" y="455.0" type="curve" smooth="yes"/>
      <point x="114.0" y="746.0"/>
      <point x="295.0" y="955.0"/>
    </contour>
    <contour>
      <point x="552.0" y="1254.0" type="line"/>
      <point x="552.0" y="-297.0" type="line"/>
      <point x="504.0" y="-297.0" type="line"/>
      <point x="504.0" y="1254.0" type="line"/>
    </contour>
  </outline>
</glyph>
<glyph name="sterling" format="2">
  <advance width="1379.0"/>
  <unicode hex="00A3"/>
  <outline>
    <contour>
      <point x="957.0" y="1525.0" type="curve" smooth="yes"/>
      <point x="867.0" y="1525.0"/>
      <point x="840.0" y="1448.0"/>
      <point x="724.0" y="862.0" type="curve" smooth="yes"/>
      <point x="638.0" y="438.0"/>
      <point x="634.0" y="425.0"/>
      <point x="532.0" y="209.0" type="curve"/>
      <point x="658.0" y="150.0"/>
      <point x="785.0" y="117.0"/>
      <point x="898.0" y="117.0" type="curve" smooth="yes"/>
      <point x="1069.0" y="117.0"/>
      <point x="1179.0" y="191.0"/>
      <point x="1206.0" y="326.0" type="curve"/>
      <point x="1217.0" y="326.0" type="line"/>
      <point x="1217.0" y="119.0"/>
      <point x="1098.0" y="-18.0"/>
      <point x="913.0" y="-18.0" type="curve" smooth="yes"/>
      <point x="779.0" y="-18.0"/>
      <point x="631.0" y="53.0"/>
      <point x="513.0" y="176.0" type="curve"/>
      <point x="414.0" y="31.0"/>
      <point x="341.0" y="-20.0"/>
      <point x="240.0" y="-20.0" type="curve" smooth="yes"/>
      <point x="136.0" y="-20.0"/>
      <point x="70.0" y="35.0"/>
      <point x="70.0" y="121.0" type="curve" smooth="yes"/>
      <point x="70.0" y="222.0"/>
      <point x="161.0" y="295.0"/>
      <point x="286.0" y="295.0" type="curve" smooth="yes"/>
      <point x="321.0" y="295.0"/>
      <point x="361.0" y="290.0"/>
      <point x="414.0" y="277.0" type="curve"/>
      <point x="453.0" y="444.0"/>
      <point x="455.0" y="460.0"/>
      <point x="554.0" y="968.0" type="curve" smooth="yes"/>
      <point x="629.0" y="1355.0"/>
      <point x="770.0" y="1553.0"/>
      <point x="970.0" y="1553.0" type="curve" smooth="yes"/>
      <point x="1113.0" y="1553.0"/>
      <point x="1250.0" y="1454.0"/>
      <point x="1250.0" y="1353.0" type="curve" smooth="yes"/>
      <point x="1250.0" y="1302.0"/>
      <point x="1217.0" y="1269.0"/>
      <point x="1170.0" y="1269.0" type="curve" smooth="yes"/>
      <point x="1041.0" y="1269.0"/>
      <point x="1107.0" y="1525.0"/>
    </contour>
    <contour>
      <point x="409.0" y="249.0" type="curve"/>
      <point x="367.0" y="262.0"/>
      <point x="326.0" y="268.0"/>
      <point x="290.0" y="268.0" type="curve" smooth="yes"/>
      <point x="180.0" y="268.0"/>
      <point x="101.0" y="207.0"/>
      <point x="101.0" y="121.0" type="curve" smooth="yes"/>
      <point x="101.0" y="51.0"/>
      <point x="150.0" y="7.0"/>
      <point x="227.0" y="7.0" type="curve" smooth="yes"/>
      <point x="315.0" y="7.0"/>
      <point x="363.0" y="70.0"/>
    </contour>
    <contour>
      <point x="310.0" y="730.0" type="line"/>
      <point x="321.0" y="779.0" type="line"/>
      <point x="1115.0" y="779.0" type="line"/>
      <point x="1104.0" y="730.0" type="line"/>
    </contour>
  </outline>
</glyph>
<glyph name="currency" format="2">
  <advance width="1294.0"/>
  <unicode hex="00A4"/>
  <outline>
    <contour>
      <point x="211.0" y="763.0" type="curve" smooth="yes"/>
      <point x="211.0" y="524.0"/>
      <point x="407.0" y="328.0"/>
      <point x="647.0" y="328.0" type="curve" smooth="yes"/>
      <point x="887.0" y="328.0"/>
      <point x="1082.0" y="524.0"/>
      <point x="1082.0" y="763.0" type="curve" smooth="yes"/>
      <point x="1082.0" y="1003.0"/>
      <point x="887.0" y="1199.0"/>
      <point x="647.0" y="1199.0" type="curve" smooth="yes"/>
      <point x="407.0" y="1199.0"/>
      <point x="211.0" y="1003.0"/>
    </contour>
    <contour>
      <point x="253.0" y="763.0" type="curve" smooth="yes"/>
      <point x="253.0" y="979.0"/>
      <point x="429.0" y="1155.0"/>
      <point x="647.0" y="1155.0" type="curve" smooth="yes"/>
      <point x="865.0" y="1155.0"/>
      <point x="1041.0" y="979.0"/>
      <point x="1041.0" y="763.0" type="curve" smooth="yes"/>
      <point x="1041.0" y="546.0"/>
      <point x="865.0" y="370.0"/>
      <point x="647.0" y="370.0" type="curve" smooth="yes"/>
      <point x="429.0" y="370.0"/>
      <point x="253.0" y="546.0"/>
    </contour>
    <contour>
      <point x="1129.0" y="1212.0" type="line"/>
      <point x="1096.0" y="1245.0" type="line"/>
      <point x="922.0" y="1071.0" type="line"/>
      <point x="957.0" y="1041.0" type="line"/>
    </contour>
    <contour>
      <point x="167.0" y="317.0" type="line"/>
      <point x="200.0" y="284.0" type="line"/>
      <point x="363.0" y="447.0" type="line"/>
      <point x="337.0" y="486.0" type="line"/>
    </contour>
    <contour>
      <point x="198.0" y="1245.0" type="line"/>
      <point x="165.0" y="1212.0" type="line"/>
      <point x="339.0" y="1038.0" type="line"/>
      <point x="370.0" y="1074.0" type="line"/>
    </contour>
    <contour>
      <point x="1093.0" y="284.0" type="line"/>
      <point x="1126.0" y="317.0" type="line"/>
      <point x="964.0" y="480.0" type="line"/>
      <point x="924.0" y="453.0" type="line"/>
    </contour>
  </outline>
</glyph>
<glyph name="yen" format="2">
  <advance width="1586.0"/>
  <unicode hex="00A5"/>
  <outline>
    <contour>
      <point x="1049.0" y="1500.0" type="line"/>
      <point x="1049.0" y="1518.0" type="line"/>
      <point x="1518.0" y="1518.0" type="line"/>
      <point x="1518.0" y="1500.0" type="line"/>
      <point x="1395.0" y="1489.0" type="line" smooth="yes"/>
      <point x="1320.0" y="1483.0"/>
      <point x="1307.0" y="1465.0"/>
      <point x="1276.0" y="1401.0" type="curve" smooth="yes"/>
      <point x="829.0" y="469.0" type="line"/>
      <point x="790.0" y="469.0" type="line"/>
      <point x="246.0" y="1483.0" type="line"/>
      <point x="66.0" y="1500.0" type="line"/>
      <point x="66.0" y="1518.0" type="line"/>
      <point x="614.0" y="1518.0" type="line"/>
      <point x="614.0" y="1500.0" type="line"/>
      <point x="422.0" y="1483.0" type="line"/>
      <point x="869.0" y="649.0" type="line"/>
      <point x="880.0" y="649.0" type="line"/>
      <point x="1241.0" y="1401.0" type="line" smooth="yes"/>
      <point x="1250.0" y="1421.0"/>
      <point x="1250.0" y="1432.0"/>
      <point x="1250.0" y="1443.0" type="curve" smooth="yes"/>
      <point x="1250.0" y="1472.0"/>
      <point x="1232.0" y="1485.0"/>
      <point x="1184.0" y="1489.0" type="curve" smooth="yes"/>
    </contour>
    <contour>
      <point x="893.0" y="616.0" type="line"/>
      <point x="893.0" y="35.0" type="line"/>
      <point x="1085.0" y="18.0" type="line"/>
      <point x="1085.0" y="0.0" type="line"/>
      <point x="532.0" y="0.0" type="line"/>
      <point x="532.0" y="18.0" type="line"/>
      <point x="724.0" y="35.0" type="line"/>
      <point x="724.0" y="616.0" type="line"/>
    </contour>
    <contour>
      <point x="403.0" y="601.0" type="line"/>
      <point x="414.0" y="649.0" type="line"/>
      <point x="1208.0" y="649.0" type="line"/>
      <point x="1197.0" y="601.0" type="line"/>
    </contour>
    <contour>
      <point x="403.0" y="343.0" type="line"/>
      <point x="414.0" y="392.0" type="line"/>
      <point x="1208.0" y="392.0" type="line"/>
      <point x="1197.0" y="343.0" type="line"/>
    </contour>
  </outline>
</glyph>
<glyph name="brokenbar" format="2">
  <advance width="462.0"/>
  <unicode hex="00A6"/>
  <outline>
    <contour>
      <point x="255.0" y="1518.0" type="line"/>
      <point x="255.0" y="724.0" type="line"/>
      <point x="207.0" y="724.0" type="line"/>
      <point x="207.0" y="1518.0" type="line"/>
    </contour>
    <contour>
      <point x="255.0" y="497.0" type="line"/>
      <point x="255.0" y="-297.0" type="line"/>
      <point x="207.0" y="-297.0" type="line"/>
      <point x="207.0" y="497.0" type="line"/>
    </contour>
  </outline>
</glyph>
<glyph name="section" format="2">
  <advance width="1080.0"/>
  <unicode hex="00A7"/>
  <outline>
    <contour>
      <point x="554.0" y="1615.0" type="curve" smooth="yes"/>
      <point x="741.0" y="1615.0"/>
      <point x="924.0" y="1511.0"/>
      <point x="924.0" y="1406.0" type="curve" smooth="yes"/>
      <point x="924.0" y="1362.0"/>
      <point x="889.0" y="1329.0"/>
      <point x="847.0" y="1329.0" type="curve" smooth="yes"/>
      <point x="726.0" y="1329.0"/>
      <point x="748.0" y="1588.0"/>
      <point x="530.0" y="1588.0" type="curve" smooth="yes"/>
      <point x="403.0" y="1588.0"/>
      <point x="321.0" y="1498.0"/>
      <point x="321.0" y="1366.0" type="curve" smooth="yes"/>
      <point x="321.0" y="1016.0"/>
      <point x="968.0" y="1071.0"/>
      <point x="968.0" y="664.0" type="curve" smooth="yes"/>
      <point x="968.0" y="444.0"/>
      <point x="772.0" y="268.0"/>
      <point x="532.0" y="268.0" type="curve"/>
      <point x="539.0" y="277.0" type="line"/>
      <point x="711.0" y="277.0"/>
      <point x="829.0" y="394.0"/>
      <point x="829.0" y="559.0" type="curve" smooth="yes"/>
      <point x="829.0" y="937.0"/>
      <point x="176.0" y="849.0"/>
      <point x="176.0" y="1267.0" type="curve" smooth="yes"/>
      <point x="176.0" y="1470.0"/>
      <point x="339.0" y="1615.0"/>
    </contour>
    <contour>
      <point x="506.0" y="-337.0" type="curve" smooth="yes"/>
      <point x="312.0" y="-337.0"/>
      <point x="128.0" y="-233.0"/>
      <point x="128.0" y="-128.0" type="curve" smooth="yes"/>
      <point x="128.0" y="-84.0"/>
      <point x="163.0" y="-51.0"/>
      <point x="205.0" y="-51.0" type="curve" smooth="yes"/>
      <point x="328.0" y="-51.0"/>
      <point x="297.0" y="-310.0"/>
      <point x="528.0" y="-310.0" type="curve" smooth="yes"/>
      <point x="673.0" y="-310.0"/>
      <point x="777.0" y="-205.0"/>
      <point x="777.0" y="-51.0" type="curve" smooth="yes"/>
      <point x="777.0" y="330.0"/>
      <point x="123.0" y="235.0"/>
      <point x="123.0" y="638.0" type="curve" smooth="yes"/>
      <point x="123.0" y="843.0"/>
      <point x="301.0" y="988.0"/>
      <point x="543.0" y="988.0" type="curve"/>
      <point x="517.0" y="961.0" type="line"/>
      <point x="370.0" y="961.0"/>
      <point x="266.0" y="869.0"/>
      <point x="266.0" y="735.0" type="curve" smooth="yes"/>
      <point x="266.0" y="405.0"/>
      <point x="915.0" y="455.0"/>
      <point x="915.0" y="53.0" type="curve" smooth="yes"/>
      <point x="915.0" y="-167.0"/>
      <point x="735.0" y="-337.0"/>
    </contour>
  </outline>
</glyph>
<glyph name="dieresis" format="2">
  <advance width="755.0"/>
  <unicode hex="00A8"/>
  <anchor x="376.0" y="1166.0" name="_top"/>
  <outline>
    <contour>
      <point x="99.0" y="1261.0" type="curve" smooth="yes"/>
      <point x="99.0" y="1208.0"/>
      <point x="136.0" y="1166.0"/>
      <point x="194.0" y="1166.0" type="curve" smooth="yes"/>
      <point x="251.0" y="1166.0"/>
      <point x="288.0" y="1208.0"/>
      <point x="288.0" y="1261.0" type="curve" smooth="yes"/>
      <point x="288.0" y="1313.0"/>
      <point x="251.0" y="1355.0"/>
      <point x="194.0" y="1355.0" type="curve" smooth="yes"/>
      <point x="136.0" y="1355.0"/>
      <point x="99.0" y="1313.0"/>
    </contour>
    <contour>
      <point x="466.0" y="1261.0" type="curve" smooth="yes"/>
      <point x="466.0" y="1208.0"/>
      <point x="504.0" y="1166.0"/>
      <point x="561.0" y="1166.0" type="curve" smooth="yes"/>
      <point x="618.0" y="1166.0"/>
      <point x="656.0" y="1208.0"/>
      <point x="656.0" y="1261.0" type="curve" smooth="yes"/>
      <point x="656.0" y="1313.0"/>
      <point x="618.0" y="1355.0"/>
      <point x="561.0" y="1355.0" type="curve" smooth="yes"/>
      <point x="504.0" y="1355.0"/>
      <point x="466.0" y="1313.0"/>
    </contour>
  </outline>
</glyph>
<glyph name="copyright" format="2">
  <advance width="1778.0"/>
  <unicode hex="00A9"/>
  <outline>
    <contour>
      <point x="1115.0" y="345.0" type="curve" smooth="yes"/>
      <point x="1175.0" y="411.0"/>
      <point x="1206.0" y="506.0"/>
      <point x="1225.0" y="590.0" type="curve"/>
      <point x="1250.0" y="587.0" type="line"/>
      <point x="1250.0" y="244.0" type="line"/>
      <point x="1225.0" y="244.0" type="line"/>
      <point x="1175.0" y="326.0" type="line"/>
      <point x="1087.0" y="262.0"/>
      <point x="977.0" y="220.0"/>
      <point x="878.0" y="220.0" type="curve" smooth="yes"/>
      <point x="609.0" y="220.0"/>
      <point x="398.0" y="455.0"/>
      <point x="398.0" y="759.0" type="curve" smooth="yes"/>
      <point x="398.0" y="1060.0"/>
      <point x="609.0" y="1298.0"/>
      <point x="873.0" y="1298.0" type="curve" smooth="yes"/>
      <point x="964.0" y="1298.0"/>
      <point x="1054.0" y="1272.0"/>
      <point x="1170.0" y="1208.0" type="curve"/>
      <point x="1206.0" y="1280.0" type="line"/>
      <point x="1230.0" y="1280.0" type="line"/>
      <point x="1245.0" y="944.0" type="line"/>
      <point x="1219.0" y="937.0" type="line"/>
      <point x="1206.0" y="1012.0"/>
      <point x="1184.0" y="1078.0"/>
      <point x="1153.0" y="1129.0" type="curve" smooth="yes"/>
      <point x="1093.0" y="1221.0"/>
      <point x="994.0" y="1272.0"/>
      <point x="878.0" y="1272.0" type="curve" smooth="yes"/>
      <point x="673.0" y="1272.0"/>
      <point x="559.0" y="1085.0"/>
      <point x="559.0" y="759.0" type="curve" smooth="yes"/>
      <point x="559.0" y="436.0"/>
      <point x="675.0" y="249.0"/>
      <point x="878.0" y="249.0" type="curve" smooth="yes"/>
      <point x="968.0" y="249.0"/>
      <point x="1058.0" y="288.0"/>
    </contour>
    <contour>
      <point x="117.0" y="757.0" type="curve" smooth="yes"/>
      <point x="117.0" y="332.0"/>
      <point x="464.0" y="-22.0"/>
      <point x="889.0" y="-22.0" type="curve" smooth="yes"/>
      <point x="1313.0" y="-22.0"/>
      <point x="1661.0" y="332.0"/>
      <point x="1661.0" y="757.0" type="curve" smooth="yes"/>
      <point x="1661.0" y="1181.0"/>
      <point x="1313.0" y="1540.0"/>
      <point x="889.0" y="1540.0" type="curve" smooth="yes"/>
      <point x="464.0" y="1540.0"/>
      <point x="117.0" y="1181.0"/>
    </contour>
    <contour>
      <point x="152.0" y="757.0" type="curve" smooth="yes"/>
      <point x="152.0" y="1164.0"/>
      <point x="477.0" y="1505.0"/>
      <point x="889.0" y="1505.0" type="curve" smooth="yes"/>
      <point x="1294.0" y="1505.0"/>
      <point x="1626.0" y="1164.0"/>
      <point x="1626.0" y="757.0" type="curve" smooth="yes"/>
      <point x="1626.0" y="345.0"/>
      <point x="1294.0" y="13.0"/>
      <point x="889.0" y="13.0" type="curve" smooth="yes"/>
      <point x="477.0" y="13.0"/>
      <point x="152.0" y="345.0"/>
    </contour>
  </outline>
</glyph>
<glyph name="ordfeminine" format="2">
  <advance width="735.0"/>
  <unicode hex="00AA"/>
  <outline>
    <contour>
      <point x="255.0" y="1166.0" type="curve" smooth="yes"/>
      <point x="319.0" y="1166.0"/>
      <point x="381.0" y="1206.0"/>
      <point x="422.0" y="1261.0" type="curve"/>
      <point x="429.0" y="1258.0" type="line"/>
      <point x="433.0" y="1208.0"/>
      <point x="475.0" y="1173.0"/>
      <point x="530.0" y="1173.0" type="curve" smooth="yes"/>
      <point x="581.0" y="1173.0"/>
      <point x="623.0" y="1201.0"/>
      <point x="647.0" y="1247.0" type="curve"/>
      <point x="636.0" y="1258.0" type="line"/>
      <point x="627.0" y="1245.0"/>
      <point x="618.0" y="1234.0"/>
      <point x="598.0" y="1234.0" type="curve" smooth="yes"/>
      <point x="563.0" y="1234.0"/>
      <point x="552.0" y="1265.0"/>
      <point x="552.0" y="1322.0" type="curve" smooth="yes"/>
      <point x="552.0" y="1610.0" type="line" smooth="yes"/>
      <point x="552.0" y="1720.0"/>
      <point x="552.0" y="1742.0"/>
      <point x="541.0" y="1769.0" type="curve" smooth="yes"/>
      <point x="526.0" y="1802.0"/>
      <point x="473.0" y="1835.0"/>
      <point x="409.0" y="1835.0" type="curve" smooth="yes"/>
      <point x="356.0" y="1835.0"/>
      <point x="293.0" y="1813.0"/>
      <point x="260.0" y="1795.0" type="curve" smooth="yes"/>
      <point x="189.0" y="1758.0"/>
      <point x="134.0" y="1694.0"/>
      <point x="134.0" y="1643.0" type="curve" smooth="yes"/>
      <point x="134.0" y="1615.0"/>
      <point x="154.0" y="1591.0"/>
      <point x="185.0" y="1591.0" type="curve" smooth="yes"/>
      <point x="220.0" y="1591.0"/>
      <point x="242.0" y="1624.0"/>
      <point x="242.0" y="1670.0" type="curve" smooth="yes"/>
      <point x="242.0" y="1690.0"/>
      <point x="238.0" y="1698.0"/>
      <point x="238.0" y="1714.0" type="curve" smooth="yes"/>
      <point x="238.0" y="1764.0"/>
      <point x="286.0" y="1795.0"/>
      <point x="341.0" y="1795.0" type="curve" smooth="yes"/>
      <point x="400.0" y="1795.0"/>
      <point x="420.0" y="1760.0"/>
      <point x="420.0" y="1648.0" type="curve" smooth="yes"/>
      <point x="420.0" y="1516.0" type="line"/>
      <point x="191.0" y="1467.0"/>
      <point x="106.0" y="1412.0"/>
      <point x="106.0" y="1313.0" type="curve" smooth="yes"/>
      <point x="106.0" y="1221.0"/>
      <point x="178.0" y="1166.0"/>
    </contour>
    <contour>
      <point x="326.0" y="1232.0" type="curve" smooth="yes"/>
      <point x="271.0" y="1232.0"/>
      <point x="242.0" y="1278.0"/>
      <point x="242.0" y="1342.0" type="curve" smooth="yes"/>
      <point x="242.0" y="1419.0"/>
      <point x="284.0" y="1454.0"/>
      <point x="420.0" y="1494.0" type="curve"/>
      <point x="420.0" y="1296.0" type="line"/>
      <point x="400.0" y="1250.0"/>
      <point x="361.0" y="1232.0"/>
    </contour>
  </outline>
</glyph>
<glyph name="logicalnot" format="2">
  <advance width="1010.0"/>
  <unicode hex="00AC"/>
  <outline>
    <contour>
      <point x="169.0" y="814.0" type="line"/>
      <point x="851.0" y="814.0" type="line"/>
      <point x="851.0" y="766.0" type="line"/>
      <point x="169.0" y="766.0" type="line"/>
    </contour>
    <contour>
      <point x="851.0" y="774.0" type="line"/>
      <point x="851.0" y="477.0" type="line"/>
      <point x="803.0" y="477.0" type="line"/>
      <point x="803.0" y="774.0" type="line"/>
    </contour>
  </outline>
</glyph>
<glyph name="uni00AD" format="2">
  <advance width="783.0"/>
  <unicode hex="00AD"/>
  <outline>
    <contour>
      <point x="158.0" y="524.0" type="line"/>
      <point x="642.0" y="524.0" type="line"/>
      <point x="627.0" y="475.0" type="line"/>
      <point x="143.0" y="475.0" type="line"/>
    </contour>
  </outline>
</glyph>
<glyph name="registered" format="2">
  <advance width="1778.0"/>
  <unicode hex="00AE"/>
  <outline>
    <contour>
      <point x="117.0" y="757.0" type="curve" smooth="yes"/>
      <point x="117.0" y="332.0"/>
      <point x="464.0" y="-22.0"/>
      <point x="889.0" y="-22.0" type="curve" smooth="yes"/>
      <point x="1313.0" y="-22.0"/>
      <point x="1661.0" y="332.0"/>
      <point x="1661.0" y="757.0" type="curve" smooth="yes"/>
      <point x="1661.0" y="1181.0"/>
      <point x="1313.0" y="1540.0"/>
      <point x="889.0" y="1540.0" type="curve" smooth="yes"/>
      <point x="464.0" y="1540.0"/>
      <point x="117.0" y="1181.0"/>
    </contour>
    <contour>
      <point x="152.0" y="757.0" type="curve" smooth="yes"/>
      <point x="152.0" y="1164.0"/>
      <point x="477.0" y="1505.0"/>
      <point x="889.0" y="1505.0" type="curve" smooth="yes"/>
      <point x="1294.0" y="1505.0"/>
      <point x="1626.0" y="1164.0"/>
      <point x="1626.0" y="757.0" type="curve" smooth="yes"/>
      <point x="1626.0" y="345.0"/>
      <point x="1294.0" y="13.0"/>
      <point x="889.0" y="13.0" type="curve" smooth="yes"/>
      <point x="477.0" y="13.0"/>
      <point x="152.0" y="345.0"/>
    </contour>
    <contour>
      <point x="656.0" y="739.0" type="line"/>
      <point x="975.0" y="739.0" type="line"/>
      <point x="1252.0" y="304.0" type="line" smooth="yes"/>
      <point x="1278.0" y="262.0"/>
      <point x="1298.0" y="253.0"/>
      <point x="1346.0" y="253.0" type="curve" smooth="yes"/>
      <point x="1368.0" y="253.0" type="line"/>
      <point x="1368.0" y="235.0" type="line"/>
      <point x="1192.0" y="235.0" type="line" smooth="yes"/>
      <point x="1144.0" y="235.0"/>
      <point x="1124.0" y="246.0"/>
      <point x="1100.0" y="288.0" type="curve" smooth="yes"/>
      <point x="867.0" y="662.0" type="line" smooth="yes"/>
      <point x="838.0" y="708.0"/>
      <point x="829.0" y="715.0"/>
      <point x="779.0" y="715.0" type="curve" smooth="yes"/>
      <point x="656.0" y="715.0" type="line"/>
    </contour>
    <contour>
      <point x="598.0" y="264.0" type="line"/>
      <point x="598.0" y="1256.0" type="line"/>
      <point x="488.0" y="1267.0" type="line"/>
      <point x="488.0" y="1285.0" type="line"/>
      <point x="730.0" y="1285.0" type="line"/>
      <point x="730.0" y="264.0" type="line"/>
      <point x="862.0" y="253.0" type="line"/>
      <point x="862.0" y="235.0" type="line"/>
      <point x="488.0" y="235.0" type="line"/>
      <point x="488.0" y="253.0" type="line"/>
    </contour>
    <contour>
      <point x="680.0" y="1285.0" type="line"/>
      <point x="873.0" y="1285.0" type="line" smooth="yes"/>
      <point x="1113.0" y="1285.0"/>
      <point x="1243.0" y="1186.0"/>
      <point x="1243.0" y="1003.0" type="curve" smooth="yes"/>
      <point x="1243.0" y="821.0"/>
      <point x="1111.0" y="719.0"/>
      <point x="873.0" y="719.0" type="curve" smooth="yes"/>
      <point x="680.0" y="719.0" type="line"/>
      <point x="680.0" y="741.0" type="line"/>
      <point x="869.0" y="741.0" type="line" smooth="yes"/>
      <point x="1032.0" y="741.0"/>
      <point x="1109.0" y="823.0"/>
      <point x="1109.0" y="1001.0" type="curve" smooth="yes"/>
      <point x="1109.0" y="1179.0"/>
      <point x="1030.0" y="1263.0"/>
      <point x="869.0" y="1263.0" type="curve" smooth="yes"/>
      <point x="680.0" y="1263.0" type="line"/>
    </contour>
  </outline>
</glyph>
<glyph name="macron" format="2">
  <advance width="638.0"/>
  <unicode hex="00AF"/>
  <anchor x="319.0" y="1166.0" name="_top"/>
  <outline>
    <contour>
      <point x="99.0" y="1265.0" type="line"/>
      <point x="539.0" y="1265.0" type="line"/>
      <point x="539.0" y="1217.0" type="line"/>
      <point x="99.0" y="1217.0" type="line"/>
    </contour>
  </outline>
</glyph>
<glyph name="degree" format="2">
  <advance width="750.0"/>
  <unicode hex="00B0"/>
  <outline>
    <contour>
      <point x="99.0" y="1558.0" type="curve" smooth="yes"/>
      <point x="99.0" y="1720.0"/>
      <point x="216.0" y="1841.0"/>
      <point x="376.0" y="1841.0" type="curve" smooth="yes"/>
      <point x="537.0" y="1841.0"/>
      <point x="649.0" y="1725.0"/>
      <point x="649.0" y="1560.0" type="curve" smooth="yes"/>
      <point x="649.0" y="1397.0"/>
      <point x="539.0" y="1278.0"/>
      <point x="374.0" y="1278.0" type="curve" smooth="yes"/>
      <point x="209.0" y="1278.0"/>
      <point x="99.0" y="1399.0"/>
    </contour>
    <contour>
      <point x="139.0" y="1560.0" type="curve" smooth="yes"/>
      <point x="139.0" y="1423.0"/>
      <point x="238.0" y="1318.0"/>
      <point x="374.0" y="1318.0" type="curve" smooth="yes"/>
      <point x="508.0" y="1318.0"/>
      <point x="607.0" y="1423.0"/>
      <point x="607.0" y="1560.0" type="curve" smooth="yes"/>
      <point x="607.0" y="1696.0"/>
      <point x="508.0" y="1800.0"/>
      <point x="374.0" y="1800.0" type="curve" smooth="yes"/>
      <point x="238.0" y="1800.0"/>
      <point x="139.0" y="1696.0"/>
    </contour>
  </outline>
</glyph>
<glyph name="twosuperior" format="2">
  <advance width="587.0"/>
  <unicode hex="00B2"/>
  <outline>
    <contour>
      <point x="486.0" y="1179.0" type="line"/>
      <point x="513.0" y="1393.0" type="line"/>
      <point x="497.0" y="1395.0" type="line"/>
      <point x="482.0" y="1333.0" type="line" smooth="yes"/>
      <point x="473.0" y="1298.0"/>
      <point x="460.0" y="1289.0"/>
      <point x="418.0" y="1289.0" type="curve" smooth="yes"/>
      <point x="189.0" y="1289.0" type="line"/>
      <point x="275.0" y="1375.0" type="line" smooth="yes"/>
      <point x="460.0" y="1560.0"/>
      <point x="495.0" y="1610.0"/>
      <point x="495.0" y="1687.0" type="curve" smooth="yes"/>
      <point x="495.0" y="1800.0"/>
      <point x="403.0" y="1879.0"/>
      <point x="273.0" y="1879.0" type="curve" smooth="yes"/>
      <point x="187.0" y="1879.0"/>
      <point x="108.0" y="1822.0"/>
      <point x="73.0" y="1736.0" type="curve"/>
      <point x="90.0" y="1727.0" type="line"/>
      <point x="121.0" y="1791.0"/>
      <point x="172.0" y="1824.0"/>
      <point x="231.0" y="1824.0" type="curve" smooth="yes"/>
      <point x="312.0" y="1824.0"/>
      <point x="359.0" y="1767.0"/>
      <point x="359.0" y="1665.0" type="curve" smooth="yes"/>
      <point x="359.0" y="1544.0"/>
      <point x="293.0" y="1423.0"/>
      <point x="156.0" y="1289.0" type="curve" smooth="yes"/>
      <point x="53.0" y="1188.0" type="line"/>
      <point x="55.0" y="1179.0" type="line"/>
    </contour>
  </outline>
</glyph>
<glyph name="threesuperior" format="2">
  <advance width="563.0"/>
  <unicode hex="00B3"/>
  <outline>
    <contour>
      <point x="185.0" y="1520.0" type="line"/>
      <point x="200.0" y="1525.0"/>
      <point x="224.0" y="1529.0"/>
      <point x="242.0" y="1529.0" type="curve" smooth="yes"/>
      <point x="317.0" y="1529.0"/>
      <point x="370.0" y="1456.0"/>
      <point x="370.0" y="1349.0" type="curve" smooth="yes"/>
      <point x="370.0" y="1245.0"/>
      <point x="323.0" y="1188.0"/>
      <point x="238.0" y="1188.0" type="curve" smooth="yes"/>
      <point x="200.0" y="1188.0"/>
      <point x="189.0" y="1201.0"/>
      <point x="169.0" y="1258.0" type="curve" smooth="yes"/>
      <point x="141.0" y="1324.0"/>
      <point x="132.0" y="1338.0"/>
      <point x="106.0" y="1338.0" type="curve" smooth="yes"/>
      <point x="79.0" y="1338.0"/>
      <point x="62.0" y="1320.0"/>
      <point x="62.0" y="1289.0" type="curve" smooth="yes"/>
      <point x="62.0" y="1221.0"/>
      <point x="143.0" y="1166.0"/>
      <point x="244.0" y="1166.0" type="curve" smooth="yes"/>
      <point x="383.0" y="1166.0"/>
      <point x="493.0" y="1265.0"/>
      <point x="493.0" y="1386.0" type="curve" smooth="yes"/>
      <point x="493.0" y="1489.0"/>
      <point x="414.0" y="1571.0"/>
      <point x="308.0" y="1573.0" type="curve"/>
      <point x="308.0" y="1582.0" type="line"/>
      <point x="392.0" y="1613.0"/>
      <point x="447.0" y="1683.0"/>
      <point x="447.0" y="1753.0" type="curve" smooth="yes"/>
      <point x="447.0" y="1828.0"/>
      <point x="389.0" y="1881.0"/>
      <point x="312.0" y="1881.0" type="curve" smooth="yes"/>
      <point x="205.0" y="1881.0"/>
      <point x="128.0" y="1828.0"/>
      <point x="88.0" y="1727.0" type="curve"/>
      <point x="106.0" y="1718.0" type="line"/>
      <point x="136.0" y="1789.0"/>
      <point x="180.0" y="1826.0"/>
      <point x="235.0" y="1826.0" type="curve" smooth="yes"/>
      <point x="293.0" y="1826.0"/>
      <point x="326.0" y="1786.0"/>
      <point x="326.0" y="1723.0" type="curve" smooth="yes"/>
      <point x="326.0" y="1641.0"/>
      <point x="275.0" y="1577.0"/>
      <point x="176.0" y="1538.0" type="curve"/>
    </contour>
  </outline>
</glyph>
<glyph name="acute" format="2">
  <advance width="427.0"/>
  <unicode hex="00B4"/>
  <anchor x="213.0" y="1166.0" name="_top"/>
  <outline>
    <contour>
      <point x="198.0" y="1474.0" type="line"/>
      <point x="209.0" y="1507.0"/>
      <point x="233.0" y="1520.0"/>
      <point x="266.0" y="1520.0" type="curve" smooth="yes"/>
      <point x="306.0" y="1520.0"/>
      <point x="328.0" y="1489.0"/>
      <point x="328.0" y="1452.0" type="curve" smooth="yes"/>
      <point x="328.0" y="1423.0"/>
      <point x="306.0" y="1404.0"/>
      <point x="249.0" y="1331.0" type="curve" smooth="yes"/>
      <point x="106.0" y="1151.0" type="line"/>
      <point x="99.0" y="1153.0" type="line"/>
    </contour>
  </outline>
</glyph>
<glyph name="mu" format="2">
  <advance width="1080.0"/>
  <unicode hex="00B5"/>
  <outline>
    <contour>
      <point x="722.0" y="898.0" type="line"/>
      <point x="722.0" y="154.0" type="line"/>
      <point x="726.0" y="141.0" type="line"/>
      <point x="733.0" y="139.0" type="line"/>
      <point x="733.0" y="-11.0" type="line"/>
      <point x="746.0" y="-11.0" type="line"/>
      <point x="986.0" y="99.0" type="line"/>
      <point x="986.0" y="110.0" type="line"/>
      <point x="865.0" y="136.0" type="line"/>
      <point x="865.0" y="933.0" type="line"/>
      <point x="590.0" y="933.0" type="line"/>
      <point x="590.0" y="915.0" type="line"/>
    </contour>
    <contour>
      <point x="260.0" y="112.0" type="line"/>
      <point x="293.0" y="26.0"/>
      <point x="356.0" y="-22.0"/>
      <point x="449.0" y="-22.0" type="curve" smooth="yes"/>
      <point x="548.0" y="-22.0"/>
      <point x="640.0" y="33.0"/>
      <point x="726.0" y="141.0" type="curve"/>
      <point x="726.0" y="176.0" type="line"/>
      <point x="671.0" y="101.0"/>
      <point x="598.0" y="62.0"/>
      <point x="524.0" y="62.0" type="curve" smooth="yes"/>
      <point x="460.0" y="62.0"/>
      <point x="414.0" y="88.0"/>
      <point x="389.0" y="139.0" type="curve" smooth="yes"/>
      <point x="372.0" y="174.0"/>
      <point x="367.0" y="216.0"/>
      <point x="367.0" y="337.0" type="curve" smooth="yes"/>
      <point x="367.0" y="933.0" type="line"/>
      <point x="92.0" y="933.0" type="line"/>
      <point x="92.0" y="915.0" type="line"/>
      <point x="224.0" y="898.0" type="line"/>
      <point x="224.0" y="337.0" type="line" smooth="yes"/>
      <point x="224.0" y="81.0"/>
      <point x="191.0" y="-253.0"/>
      <point x="191.0" y="-356.0" type="curve" smooth="yes"/>
      <point x="191.0" y="-440.0"/>
      <point x="209.0" y="-475.0"/>
      <point x="253.0" y="-475.0" type="curve" smooth="yes"/>
      <point x="295.0" y="-475.0"/>
      <point x="319.0" y="-444.0"/>
      <point x="319.0" y="-396.0" type="curve" smooth="yes"/>
      <point x="319.0" y="-321.0"/>
      <point x="249.0" y="-220.0"/>
      <point x="249.0" y="108.0" type="curve"/>
    </contour>
  </outline>
</glyph>
<glyph name="paragraph" format="2">
  <advance width="1041.0"/>
  <unicode hex="00B6"/>
  <outline>
    <contour>
      <point x="649.0" y="-238.0" type="line"/>
      <point x="649.0" y="1487.0" type="line"/>
      <point x="737.0" y="1487.0" type="line"/>
      <point x="737.0" y="-238.0" type="line"/>
      <point x="785.0" y="-238.0" type="line"/>
      <point x="785.0" y="1483.0" type="line"/>
      <point x="953.0" y="1498.0" type="line"/>
      <point x="953.0" y="1518.0" type="line"/>
      <point x="539.0" y="1518.0" type="line" smooth="yes"/>
      <point x="251.0" y="1518.0"/>
      <point x="75.0" y="1349.0"/>
      <point x="75.0" y="1085.0" type="curve" smooth="yes"/>
      <point x="75.0" y="854.0"/>
      <point x="235.0" y="658.0"/>
      <point x="488.0" y="658.0" type="curve" smooth="yes"/>
      <point x="601.0" y="658.0" type="line"/>
      <point x="601.0" y="-238.0" type="line"/>
    </contour>
  </outline>
</glyph>
<glyph name="periodcentered" format="2">
  <advance width="513.0"/>
  <unicode hex="00B7"/>
  <outline>
    <contour>
      <point x="143.0" y="524.0" type="curve" smooth="yes"/>
      <point x="143.0" y="460.0"/>
      <point x="189.0" y="409.0"/>
      <point x="257.0" y="409.0" type="curve" smooth="yes"/>
      <point x="326.0" y="409.0"/>
      <point x="370.0" y="460.0"/>
      <point x="370.0" y="524.0" type="curve" smooth="yes"/>
      <point x="370.0" y="587.0"/>
      <point x="326.0" y="636.0"/>
      <point x="257.0" y="636.0" type="curve" smooth="yes"/>
      <point x="189.0" y="636.0"/>
      <point x="143.0" y="587.0"/>
    </contour>
  </outline>
</glyph>
<glyph name="cedilla" format="2">
  <advance width="596.0"/>
  <unicode hex="00B8"/>
  <anchor x="297.0" y="0.0" name="_bottom"/>
  <outline>
    <contour>
      <point x="103.0" y="-444.0" type="line"/>
      <point x="132.0" y="-458.0"/>
      <point x="174.0" y="-466.0"/>
      <point x="213.0" y="-466.0" type="curve" smooth="yes"/>
      <point x="306.0" y="-466.0"/>
      <point x="367.0" y="-427.0"/>
      <point x="367.0" y="-365.0" type="curve" smooth="yes"/>
      <point x="367.0" y="-308.0"/>
      <point x="319.0" y="-273.0"/>
      <point x="242.0" y="-273.0" type="curve" smooth="yes"/>
      <point x="211.0" y="-273.0"/>
      <point x="180.0" y="-277.0"/>
      <point x="158.0" y="-286.0" type="curve"/>
      <point x="152.0" y="-279.0" type="line"/>
      <point x="273.0" y="2.0" type="line"/>
      <point x="299.0" y="2.0" type="line"/>
      <point x="229.0" y="-163.0" type="line"/>
      <point x="249.0" y="-158.0"/>
      <point x="260.0" y="-158.0"/>
      <point x="288.0" y="-158.0" type="curve" smooth="yes"/>
      <point x="411.0" y="-158.0"/>
      <point x="497.0" y="-224.0"/>
      <point x="497.0" y="-317.0" type="curve" smooth="yes"/>
      <point x="497.0" y="-420.0"/>
      <point x="396.0" y="-497.0"/>
      <point x="260.0" y="-497.0" type="curve" smooth="yes"/>
      <point x="191.0" y="-497.0"/>
      <point x="132.0" y="-480.0"/>
      <point x="99.0" y="-451.0" type="curve"/>
    </contour>
  </outline>
</glyph>
<glyph name="onesuperior" format="2">
  <advance width="420.0"/>
  <unicode hex="00B9"/>
  <outline>
    <contour>
      <point x="165.0" y="1773.0" type="line"/>
      <point x="64.0" y="1773.0" type="line"/>
      <point x="64.0" y="1784.0" type="line"/>
      <point x="169.0" y="1795.0"/>
      <point x="218.0" y="1824.0"/>
      <point x="268.0" y="1888.0" type="curve"/>
      <point x="279.0" y="1885.0" type="line"/>
      <point x="279.0" y="1206.0" type="line"/>
      <point x="370.0" y="1197.0" type="line"/>
      <point x="370.0" y="1179.0" type="line"/>
      <point x="64.0" y="1179.0" type="line"/>
      <point x="64.0" y="1197.0" type="line"/>
      <point x="165.0" y="1206.0" type="line"/>
    </contour>
  </outline>
</glyph>
<glyph name="ordmasculine" format="2">
  <advance width="796.0"/>
  <unicode hex="00BA"/>
  <outline>
    <contour>
      <point x="398.0" y="1835.0" type="curve" smooth="yes"/>
      <point x="222.0" y="1835.0"/>
      <point x="99.0" y="1698.0"/>
      <point x="99.0" y="1500.0" type="curve" smooth="yes"/>
      <point x="99.0" y="1300.0"/>
      <point x="222.0" y="1164.0"/>
      <point x="398.0" y="1164.0" type="curve" smooth="yes"/>
      <point x="574.0" y="1164.0"/>
      <point x="697.0" y="1300.0"/>
      <point x="697.0" y="1500.0" type="curve" smooth="yes"/>
      <point x="697.0" y="1698.0"/>
      <point x="574.0" y="1835.0"/>
    </contour>
    <contour>
      <point x="233.0" y="1500.0" type="curve" smooth="yes"/>
      <point x="233.0" y="1698.0"/>
      <point x="293.0" y="1813.0"/>
      <point x="398.0" y="1813.0" type="curve" smooth="yes"/>
      <point x="502.0" y="1813.0"/>
      <point x="563.0" y="1698.0"/>
      <point x="563.0" y="1500.0" type="curve" smooth="yes"/>
      <point x="563.0" y="1302.0"/>
      <point x="502.0" y="1186.0"/>
      <point x="398.0" y="1186.0" type="curve" smooth="yes"/>
      <point x="293.0" y="1186.0"/>
      <point x="233.0" y="1302.0"/>
    </contour>
  </outline>
</glyph>
<glyph name="guillemotright" format="2">
  <advance width="821.0"/>
  <unicode hex="00BB"/>
  <outline>
    <contour>
      <point x="376.0" y="66.0" type="line"/>
      <point x="574.0" y="462.0" type="line"/>
      <point x="383.0" y="854.0" type="line"/>
      <point x="389.0" y="858.0" type="line"/>
      <point x="713.0" y="466.0" type="line"/>
      <point x="713.0" y="455.0" type="line"/>
      <point x="385.0" y="59.0" type="line"/>
    </contour>
    <contour>
      <point x="117.0" y="66.0" type="line"/>
      <point x="315.0" y="462.0" type="line"/>
      <point x="123.0" y="854.0" type="line"/>
      <point x="130.0" y="858.0" type="line"/>
      <point x="453.0" y="466.0" type="line"/>
      <point x="453.0" y="455.0" type="line"/>
      <point x="125.0" y="59.0" type="line"/>
    </contour>
  </outline>
</glyph>
<glyph name="questiondown" format="2">
  <advance width="774.0"/>
  <unicode hex="00BF"/>
  <outline>
    <contour>
      <point x="552.0" y="651.0" type="line"/>
      <point x="570.0" y="141.0" type="line"/>
      <point x="510.0" y="141.0" type="line" smooth="yes"/>
      <point x="242.0" y="141.0"/>
      <point x="123.0" y="86.0"/>
      <point x="123.0" y="-42.0" type="curve" smooth="yes"/>
      <point x="123.0" y="-301.0"/>
      <point x="627.0" y="-286.0"/>
      <point x="627.0" y="-471.0" type="curve" smooth="yes"/>
      <point x="627.0" y="-517.0"/>
      <point x="594.0" y="-541.0"/>
      <point x="530.0" y="-541.0" type="curve" smooth="yes"/>
      <point x="317.0" y="-541.0"/>
      <point x="92.0" y="-275.0"/>
      <point x="92.0" y="-20.0" type="curve" smooth="yes"/>
      <point x="92.0" y="180.0"/>
      <point x="229.0" y="306.0"/>
      <point x="455.0" y="315.0" type="curve" smooth="yes"/>
      <point x="513.0" y="317.0" type="line"/>
      <point x="530.0" y="651.0" type="line"/>
    </contour>
    <contour>
      <point x="656.0" y="942.0" type="curve"/>
      <point x="656.0" y="1003.0"/>
      <point x="612.0" y="1047.0"/>
      <point x="550.0" y="1047.0" type="curve" smooth="yes"/>
      <point x="488.0" y="1047.0"/>
      <point x="444.0" y="1003.0"/>
      <point x="444.0" y="942.0" type="curve" smooth="yes"/>
      <point x="444.0" y="880.0"/>
      <point x="488.0" y="836.0"/>
      <point x="550.0" y="836.0" type="curve" smooth="yes"/>
      <point x="612.0" y="836.0"/>
      <point x="656.0" y="880.0"/>
    </contour>
  </outline>
</glyph>
<glyph name="AE" format="2">
  <advance width="1872.0"/>
  <unicode hex="00C6"/>
  <outline>
    <contour>
      <point x="383.0" y="18.0" type="line"/>
      <point x="378.0" y="0.0" type="line"/>
      <point x="-88.0" y="0.0" type="line"/>
      <point x="-84.0" y="18.0" type="line"/>
      <point x="42.0" y="29.0" type="line" smooth="yes"/>
      <point x="117.0" y="35.0"/>
      <point x="141.0" y="51.0"/>
      <point x="180.0" y="117.0" type="curve" smooth="yes"/>
      <point x="992.0" y="1500.0" type="line"/>
      <point x="1032.0" y="1500.0" type="line"/>
      <point x="922.0" y="1309.0" type="line"/>
      <point x="913.0" y="1309.0" type="line"/>
      <point x="216.0" y="117.0" type="line" smooth="yes"/>
      <point x="200.0" y="92.0"/>
      <point x="196.0" y="77.0"/>
      <point x="196.0" y="64.0" type="curve" smooth="yes"/>
      <point x="196.0" y="40.0"/>
      <point x="213.0" y="33.0"/>
      <point x="251.0" y="29.0" type="curve" smooth="yes"/>
    </contour>
    <contour>
      <point x="493.0" y="638.0" type="line"/>
      <point x="1080.0" y="638.0" type="line"/>
      <point x="1074.0" y="603.0" type="line"/>
      <point x="486.0" y="603.0" type="line"/>
    </contour>
    <contour>
      <point x="1091.0" y="1492.0" type="line"/>
      <point x="1091.0" y="26.0" type="line"/>
      <point x="1452.0" y="26.0" type="line" smooth="yes"/>
      <point x="1522.0" y="26.0"/>
      <point x="1547.0" y="42.0"/>
      <point x="1573.0" y="108.0" type="curve" smooth="yes"/>
      <point x="1718.0" y="464.0" type="line"/>
      <point x="1742.0" y="462.0" type="line"/>
      <point x="1687.0" y="0.0" type="line"/>
      <point x="741.0" y="0.0" type="line"/>
      <point x="741.0" y="18.0" type="line"/>
      <point x="922.0" y="35.0" type="line"/>
      <point x="922.0" y="1483.0" type="line"/>
      <point x="741.0" y="1500.0" type="line"/>
      <point x="741.0" y="1518.0" type="line"/>
      <point x="1690.0" y="1518.0" type="line"/>
      <point x="1720.0" y="1104.0" type="line"/>
      <point x="1698.0" y="1102.0" type="line"/>
      <point x="1575.0" y="1410.0" type="line" smooth="yes"/>
      <point x="1549.0" y="1476.0"/>
      <point x="1527.0" y="1492.0"/>
      <point x="1456.0" y="1492.0" type="curve" smooth="yes"/>
    </contour>
    <contour>
      <point x="1287.0" y="816.0" type="line" smooth="yes"/>
      <point x="1357.0" y="816.0"/>
      <point x="1379.0" y="834.0"/>
      <point x="1393.0" y="902.0" type="curve" smooth="yes"/>
      <point x="1430.0" y="1080.0" type="line"/>
      <point x="1456.0" y="1080.0" type="line"/>
      <point x="1456.0" y="517.0" type="line"/>
      <point x="1430.0" y="517.0" type="line"/>
      <point x="1393.0" y="695.0" type="line" smooth="yes"/>
      <point x="1379.0" y="763.0"/>
      <point x="1357.0" y="781.0"/>
      <point x="1287.0" y="781.0" type="curve" smooth="yes"/>
      <point x="1074.0" y="781.0" type="line"/>
      <point x="1074.0" y="816.0" type="line"/>
    </contour>
  </outline>
</glyph>
<glyph name="Eth" format="2">
  <advance width="1573.0"/>
  <unicode hex="00D0"/>
  <anchor x="724.0" y="0.0" name="bottom"/>
  <anchor x="724.0" y="1760.0" name="top"/>
  <outline>
    <contour>
      <point x="112.0" y="799.0" type="line"/>
      <point x="737.0" y="799.0" type="line"/>
      <point x="737.0" y="750.0" type="line"/>
      <point x="112.0" y="750.0" type="line"/>
    </contour>
    <component base="D" xOffset="24.0"/>
  </outline>
</glyph>
<glyph name="multiply" format="2">
  <advance width="1025.0"/>
  <unicode hex="00D7"/>
  <outline>
    <contour>
      <point x="222.0" y="1082.0" type="line"/>
      <point x="838.0" y="466.0" type="line"/>
      <point x="805.0" y="436.0" type="line"/>
      <point x="189.0" y="1052.0" type="line"/>
    </contour>
    <contour>
      <point x="836.0" y="1052.0" type="line"/>
      <point x="220.0" y="436.0" type="line"/>
      <point x="187.0" y="466.0" type="line"/>
      <point x="803.0" y="1082.0" type="line"/>
    </contour>
  </outline>
</glyph>
<glyph name="Oslash" format="2">
  <advance width="1615.0"/>
  <unicode hex="00D8"/>
  <outline>
    <contour>
      <point x="1285.0" y="1650.0" type="line"/>
      <point x="361.0" y="-165.0" type="line"/>
      <point x="310.0" y="-165.0" type="line"/>
      <point x="1234.0" y="1650.0" type="line"/>
    </contour>
    <contour>
      <point x="807.0" y="1553.0" type="curve" smooth="yes"/>
      <point x="1197.0" y="1553.0"/>
      <point x="1500.0" y="1206.0"/>
      <point x="1500.0" y="759.0" type="curve" smooth="yes"/>
      <point x="1500.0" y="312.0"/>
      <point x="1197.0" y="-35.0"/>
      <point x="807.0" y="-35.0" type="curve" smooth="yes"/>
      <point x="418.0" y="-35.0"/>
      <point x="114.0" y="312.0"/>
      <point x="114.0" y="759.0" type="curve" smooth="yes"/>
      <point x="114.0" y="1206.0"/>
      <point x="418.0" y="1553.0"/>
    </contour>
    <contour>
      <point x="326.0" y="759.0" type="curve" smooth="yes"/>
      <point x="326.0" y="271.0"/>
      <point x="499.0" y="-7.0"/>
      <point x="807.0" y="-7.0" type="curve" smooth="yes"/>
      <point x="1115.0" y="-7.0"/>
      <point x="1289.0" y="271.0"/>
      <point x="1289.0" y="759.0" type="curve" smooth="yes"/>
      <point x="1289.0" y="1250.0"/>
      <point x="1115.0" y="1527.0"/>
      <point x="807.0" y="1527.0" type="curve" smooth="yes"/>
      <point x="499.0" y="1527.0"/>
      <point x="326.0" y="1250.0"/>
    </contour>
  </outline>
</glyph>
<glyph name="Thorn" format="2">
  <advance width="1256.0"/>
  <unicode hex="00DE"/>
  <outline>
    <contour>
      <point x="363.0" y="1208.0" type="line"/>
      <point x="645.0" y="1208.0" type="line" smooth="yes"/>
      <point x="990.0" y="1208.0"/>
      <point x="1177.0" y="1054.0"/>
      <point x="1177.0" y="788.0" type="curve" smooth="yes"/>
      <point x="1177.0" y="502.0"/>
      <point x="990.0" y="350.0"/>
      <point x="645.0" y="350.0" type="curve" smooth="yes"/>
      <point x="363.0" y="350.0" type="line"/>
      <point x="363.0" y="376.0" type="line"/>
      <point x="638.0" y="376.0" type="line" smooth="yes"/>
      <point x="876.0" y="376.0"/>
      <point x="979.0" y="506.0"/>
      <point x="979.0" y="799.0" type="curve" smooth="yes"/>
      <point x="979.0" y="1014.0"/>
      <point x="915.0" y="1181.0"/>
      <point x="638.0" y="1181.0" type="curve" smooth="yes"/>
      <point x="363.0" y="1181.0" type="line"/>
    </contour>
    <contour>
      <point x="268.0" y="35.0" type="line"/>
      <point x="268.0" y="1483.0" type="line"/>
      <point x="88.0" y="1500.0" type="line"/>
      <point x="88.0" y="1518.0" type="line"/>
      <point x="653.0" y="1518.0" type="line"/>
      <point x="653.0" y="1500.0" type="line"/>
      <point x="438.0" y="1483.0" type="line"/>
      <point x="438.0" y="35.0" type="line"/>
      <point x="653.0" y="18.0" type="line"/>
      <point x="653.0" y="0.0" type="line"/>
      <point x="88.0" y="0.0" type="line"/>
      <point x="88.0" y="18.0" type="line"/>
    </contour>
  </outline>
</glyph>
<glyph name="germandbls" format="2">
  <advance width="1109.0"/>
  <unicode hex="00DF"/>
  <outline>
    <contour>
      <point x="541.0" y="1613.0" type="curve" smooth="yes"/>
      <point x="400.0" y="1613.0"/>
      <point x="286.0" y="1551.0"/>
      <point x="222.0" y="1443.0" type="curve" smooth="yes"/>
      <point x="178.0" y="1366.0"/>
      <point x="169.0" y="1298.0"/>
      <point x="169.0" y="1001.0" type="curve" smooth="yes"/>
      <point x="169.0" y="35.0" type="line"/>
      <point x="35.0" y="18.0" type="line"/>
      <point x="35.0" y="0.0" type="line"/>
      <point x="312.0" y="0.0" type="line"/>
      <point x="312.0" y="1232.0" type="line" smooth="yes"/>
      <point x="312.0" y="1470.0"/>
      <point x="378.0" y="1586.0"/>
      <point x="515.0" y="1586.0" type="curve" smooth="yes"/>
      <point x="629.0" y="1586.0"/>
      <point x="697.0" y="1505.0"/>
      <point x="697.0" y="1364.0" type="curve" smooth="yes"/>
      <point x="697.0" y="1104.0"/>
      <point x="486.0" y="1104.0"/>
      <point x="486.0" y="862.0" type="curve" smooth="yes"/>
      <point x="486.0" y="517.0"/>
      <point x="917.0" y="541.0"/>
      <point x="917.0" y="211.0" type="curve" smooth="yes"/>
      <point x="917.0" y="81.0"/>
      <point x="843.0" y="2.0"/>
      <point x="719.0" y="2.0" type="curve" smooth="yes"/>
      <point x="583.0" y="2.0"/>
      <point x="497.0" y="103.0"/>
      <point x="469.0" y="304.0" type="curve"/>
      <point x="442.0" y="304.0" type="line"/>
      <point x="453.0" y="20.0" type="line"/>
      <point x="530.0" y="-4.0"/>
      <point x="642.0" y="-22.0"/>
      <point x="719.0" y="-22.0" type="curve" smooth="yes"/>
      <point x="920.0" y="-22.0"/>
      <point x="1045.0" y="101.0"/>
      <point x="1045.0" y="295.0" type="curve" smooth="yes"/>
      <point x="1045.0" y="704.0"/>
      <point x="526.0" y="642.0"/>
      <point x="526.0" y="915.0" type="curve" smooth="yes"/>
      <point x="526.0" y="1124.0"/>
      <point x="838.0" y="1140.0"/>
      <point x="838.0" y="1375.0" type="curve" smooth="yes"/>
      <point x="838.0" y="1518.0"/>
      <point x="719.0" y="1613.0"/>
    </contour>
  </outline>
</glyph>
